  0
SECTION
  2
HEADER
  9
$ACADVER
  1
AC1027
  9
$ACADMAINTVER
 70
   125
  9
$DWGCODEPAGE
  3
ANSI_1252
  9
$LASTSAVEDBY
  1
thangas
  9
$REQUIREDVERSIONS
160
                 0
  9
$INSBASE
 10
0.0
 20
0.0
 30
0.0
  9
$EXTMIN
 10
0.0
 20
0.0
 30
0.0
  9
$EXTMAX
 10
297.0
 20
210.0
 30
0.0
  9
$LIMMIN
 10
0.0
 20
0.0
  9
$LIMMAX
 10
297.0
 20
210.0
  9
$ORTHOMODE
 70
     0
  9
$REGENMODE
 70
     1
  9
$FILLMODE
 70
     1
  9
$QTEXTMODE
 70
     0
  9
$MIRRTEXT
 70
     0
  9
$LTSCALE
 40
0.75
  9
$ATTMODE
 70
     1
  9
$TEXTSIZE
 40
3.5
  9
$TRACEWID
 40
1.0
  9
$TEXTSTYLE
  7
Standard
  9
$CLAYER
  8
0
  9
$CELTYPE
  6
ByLayer
  9
$CECOLOR
 62
   256
  9
$CELTSCALE
 40
1.0
  9
$DISPSILH
 70
     0
  9
$DIMSCALE
 40
1.0
  9
$DIMASZ
 40
3.5
  9
$DIMEXO
 40
2.1
  9
$DIMDLI
 40
10.5
  9
$DIMRND
 40
0.0
  9
$DIMDLE
 40
0.0
  9
$DIMEXE
 40
2.1
  9
$DIMTP
 40
0.1
  9
$DIMTM
 40
0.1
  9
$DIMTXT
 40
3.5
  9
$DIMCEN
 40
0.0
  9
$DIMTSZ
 40
0.0
  9
$DIMTOL
 70
     0
  9
$DIMLIM
 70
     0
  9
$DIMTIH
 70
     0
  9
$DIMTOH
 70
     0
  9
$DIMSE1
 70
     0
  9
$DIMSE2
 70
     0
  9
$DIMTAD
 70
     1
  9
$DIMZIN
 70
    12
  9
$DIMBLK
  1

  9
$DIMASO
 70
     1
  9
$DIMSHO
 70
     1
  9
$DIMPOST
  1

  9
$DIMAPOST
  1

  9
$DIMALT
 70
     0
  9
$DIMALTD
 70
     2
  9
$DIMALTF
 40
0.03937
  9
$DIMLFAC
 40
1.0
  9
$DIMTOFL
 70
     1
  9
$DIMTVP
 40
0.0
  9
$DIMTIX
 70
     0
  9
$DIMSOXD
 70
     0
  9
$DIMSAH
 70
     0
  9
$DIMBLK1
  1

  9
$DIMBLK2
  1

  9
$DIMSTYLE
  2
ISO-25
  9
$DIMCLRD
 70
   256
  9
$DIMCLRE
 70
   256
  9
$DIMCLRT
 70
   256
  9
$DIMTFAC
 40
0.714286
  9
$DIMGAP
 40
1.4
  9
$DIMJUST
 70
     0
  9
$DIMSD1
 70
     0
  9
$DIMSD2
 70
     0
  9
$DIMTOLJ
 70
     0
  9
$DIMTZIN
 70
    12
  9
$DIMALTZ
 70
    12
  9
$DIMALTTZ
 70
    12
  9
$DIMUPT
 70
     0
  9
$DIMDEC
 70
     2
  9
$DIMTDEC
 70
     2
  9
$DIMALTU
 70
     2
  9
$DIMALTTD
 70
     4
  9
$DIMTXSTY
  7
Standard
  9
$DIMAUNIT
 70
     0
  9
$DIMADEC
 70
     2
  9
$DIMALTRND
 40
0.0
  9
$DIMAZIN
 70
     3
  9
$DIMDSEP
 70
    46
  9
$DIMATFIT
 70
     3
  9
$DIMFRAC
 70
     0
  9
$DIMLDRBLK
  1

  9
$DIMLUNIT
 70
     2
  9
$DIMLWD
 70
    -2
  9
$DIMLWE
 70
    -2
  9
$DIMTMOVE
 70
     0
  9
$DIMFXL
 40
1.0
  9
$DIMFXLON
 70
     0
  9
$DIMJOGANG
 40
0.785398
  9
$DIMTFILL
 70
     0
  9
$DIMTFILLCLR
 70
     0
  9
$DIMARCSYM
 70
     0
  9
$DIMLTYPE
  6

  9
$DIMLTEX1
  6

  9
$DIMLTEX2
  6

  9
$DIMTXTDIRECTION
 70
     0
  9
$LUNITS
 70
     2
  9
$LUPREC
 70
     4
  9
$SKETCHINC
 40
1.0
  9
$FILLETRAD
 40
0.0
  9
$AUNITS
 70
     0
  9
$AUPREC
 70
     0
  9
$MENU
  1
.
  9
$ELEVATION
 40
0.0
  9
$PELEVATION
 40
0.0
  9
$THICKNESS
 40
0.0
  9
$LIMCHECK
 70
     0
  9
$CHAMFERA
 40
0.0
  9
$CHAMFERB
 40
0.0
  9
$CHAMFERC
 40
0.0
  9
$CHAMFERD
 40
0.0
  9
$SKPOLY
 70
     0
  9
$TDCREATE
 40
2459794.695081019
  9
$TDUCREATE
 40
2459794.611747685
  9
$TDUPDATE
 40
2459794.695081019
  9
$TDUUPDATE
 40
2459794.611747685
  9
$TDINDWG
 40
0.0000000000
  9
$TDUSRTIMER
 40
0.0000000000
  9
$USRTIMER
 70
     1
  9
$ANGBASE
 50
0.0
  9
$ANGDIR
 70
     0
  9
$PDMODE
 70
     0
  9
$PDSIZE
 40
0.0
  9
$PLINEWID
 40
0.0
  9
$SPLFRAME
 70
     0
  9
$SPLINETYPE
 70
     6
  9
$SPLINESEGS
 70
     8
  9
$HANDSEED
  5
3E4
  9
$SURFTAB1
 70
     6
  9
$SURFTAB2
 70
     6
  9
$SURFTYPE
 70
     6
  9
$SURFU
 70
     6
  9
$SURFV
 70
     6
  9
$UCSBASE
  2

  9
$UCSNAME
  2

  9
$UCSORG
 10
0.0
 20
0.0
 30
0.0
  9
$UCSXDIR
 10
1.0
 20
0.0
 30
0.0
  9
$UCSYDIR
 10
0.0
 20
1.0
 30
0.0
  9
$UCSORTHOREF
  2

  9
$UCSORTHOVIEW
 70
     0
  9
$UCSORGTOP
 10
0.0
 20
0.0
 30
0.0
  9
$UCSORGBOTTOM
 10
0.0
 20
0.0
 30
0.0
  9
$UCSORGLEFT
 10
0.0
 20
0.0
 30
0.0
  9
$UCSORGRIGHT
 10
0.0
 20
0.0
 30
0.0
  9
$UCSORGFRONT
 10
0.0
 20
0.0
 30
0.0
  9
$UCSORGBACK
 10
0.0
 20
0.0
 30
0.0
  9
$PUCSBASE
  2

  9
$PUCSNAME
  2

  9
$PUCSORG
 10
0.0
 20
0.0
 30
0.0
  9
$PUCSXDIR
 10
1.0
 20
0.0
 30
0.0
  9
$PUCSYDIR
 10
0.0
 20
1.0
 30
0.0
  9
$PUCSORTHOREF
  2

  9
$PUCSORTHOVIEW
 70
     0
  9
$PUCSORGTOP
 10
0.0
 20
0.0
 30
0.0
  9
$PUCSORGBOTTOM
 10
0.0
 20
0.0
 30
0.0
  9
$PUCSORGLEFT
 10
0.0
 20
0.0
 30
0.0
  9
$PUCSORGRIGHT
 10
0.0
 20
0.0
 30
0.0
  9
$PUCSORGFRONT
 10
0.0
 20
0.0
 30
0.0
  9
$PUCSORGBACK
 10
0.0
 20
0.0
 30
0.0
  9
$USERI1
 70
     0
  9
$USERI2
 70
     0
  9
$USERI3
 70
     0
  9
$USERI4
 70
     0
  9
$USERI5
 70
     0
  9
$USERR1
 40
0.0
  9
$USERR2
 40
0.0
  9
$USERR3
 40
0.0
  9
$USERR4
 40
0.0
  9
$USERR5
 40
0.0
  9
$WORLDVIEW
 70
     1
  9
$SHADEDGE
 70
     3
  9
$SHADEDIF
 70
    70
  9
$TILEMODE
 70
     1
  9
$MAXACTVP
 70
    64
  9
$PINSBASE
 10
0.0
 20
0.0
 30
0.0
  9
$PLIMCHECK
 70
     0
  9
$PEXTMIN
 10
1.000000E+20
 20
1.000000E+20
 30
1.000000E+20
  9
$PEXTMAX
 10
-1.000000E+20
 20
-1.000000E+20
 30
-1.000000E+20
  9
$PLIMMIN
 10
0.0
 20
0.0
  9
$PLIMMAX
 10
12.0
 20
9.0
  9
$UNITMODE
 70
     0
  9
$VISRETAIN
 70
     1
  9
$PLINEGEN
 70
     0
  9
$PSLTSCALE
 70
     1
  9
$TREEDEPTH
 70
  3020
  9
$CMLSTYLE
  2
Standard
  9
$CMLJUST
 70
     0
  9
$CMLSCALE
 40
20.0
  9
$PROXYGRAPHICS
 70
     1
  9
$MEASUREMENT
 70
     1
  9
$CELWEIGHT
370
    -1
  9
$ENDCAPS
280
     0
  9
$JOINSTYLE
280
     0
  9
$LWDISPLAY
290
     0
  9
$INSUNITS
 70
     4
  9
$HYPERLINKBASE
  1

  9
$STYLESHEET
  1

  9
$XEDIT
290
     1
  9
$CEPSNTYPE
380
     0
  9
$PSTYLEMODE
290
     1
  9
$FINGERPRINTGUID
  2
{27B6CD3D-055F-804C-8CE3-56A14A44BF8E}
  9
$VERSIONGUID
  2
{8BB98F46-68D4-2746-A475-2E4C748C8977}
  9
$EXTNAMES
290
     1
  9
$PSVPSCALE
 40
0.0
  9
$OLESTARTUP
290
     0
  9
$SORTENTS
280
   127
  9
$INDEXCTL
280
     0
  9
$HIDETEXT
280
     1
  9
$XCLIPFRAME
280
     0
  9
$HALOGAP
280
     0
  9
$OBSCOLOR
 70
   257
  9
$OBSLTYPE
280
     0
  9
$INTERSECTIONDISPLAY
280
     0
  9
$INTERSECTIONCOLOR
 70
   257
  9
$DIMASSOC
280
     2
  9
$PROJECTNAME
  1

  9
$CAMERADISPLAY
290
     0
  9
$LENSLENGTH
 40
50.0
  9
$CAMERAHEIGHT
 40
0.0
  9
$STEPSPERSEC
 40
2.0
  9
$STEPSIZE
 40
6.0
  9
$3DDWFPREC
 40
2.0
  9
$PSOLWIDTH
 40
5.0
  9
$PSOLHEIGHT
 40
80.0
  9
$LOFTANG1
 40
1.570796
  9
$LOFTANG2
 40
1.570796
  9
$LOFTMAG1
 40
0.0
  9
$LOFTMAG2
 40
0.0
  9
$LOFTPARAM
 70
     7
  9
$LOFTNORMALS
280
     1
  9
$LATITUDE
 40
37.795
  9
$LONGITUDE
 40
-122.394
  9
$NORTHDIRECTION
 40
0.0
  9
$TIMEZONE
 70
 -8000
  9
$LIGHTGLYPHDISPLAY
280
     1
  9
$TILEMODELIGHTSYNCH
280
     1
  9
$CMATERIAL
347
11
  9
$SOLIDHIST
280
     0
  9
$SHOWHIST
280
     1
  9
$DWFFRAME
280
     2
  9
$DGNFRAME
280
     0
  9
$REALWORLDSCALE
290
     1
  9
$INTERFERECOLOR
 62
     1
  9
$INTERFEREOBJVS
345
33
  9
$INTERFEREVPVS
346
30
  9
$CSHADOW
280
     0
  9
$SHADOWPLANELOCATION
 40
0.0
  0
ENDSEC
  0
SECTION
  2
CLASSES
  0
CLASS
  1
ACDBDICTIONARYWDFLT
  2
AcDbDictionaryWithDefault
  3
ObjectDBX Classes
 90
        0
 91
        1
280
     0
281
     0
  0
CLASS
  1
MATERIAL
  2
AcDbMaterial
  3
ObjectDBX Classes
 90
     1153
 91
        3
280
     0
281
     0
  0
CLASS
  1
VISUALSTYLE
  2
AcDbVisualStyle
  3
ObjectDBX Classes
 90
     4095
 91
       24
280
     0
281
     0
  0
CLASS
  1
SCALE
  2
AcDbScale
  3
ObjectDBX Classes
 90
     1153
 91
       18
280
     0
281
     0
  0
CLASS
  1
TABLESTYLE
  2
AcDbTableStyle
  3
ObjectDBX Classes
 90
     4095
 91
        1
280
     0
281
     0
  0
CLASS
  1
MLEADERSTYLE
  2
AcDbMLeaderStyle
  3
ACDB_MLEADERSTYLE_CLASS
 90
     4095
 91
        1
280
     0
281
     0
  0
CLASS
  1
ACDBSECTIONVIEWSTYLE
  2
AcDbSectionViewStyle
  3
ObjectDBX Classes
 90
     1025
 91
        1
280
     0
281
     0
  0
CLASS
  1
ACDBDETAILVIEWSTYLE
  2
AcDbDetailViewStyle
  3
ObjectDBX Classes
 90
     1025
 91
        1
280
     0
281
     0
  0
CLASS
  1
ACMESCOPE
  2
AcMeScope
  3
AcMeServices
 90
     1024
 91
        1
280
     0
281
     0
  0
CLASS
  1
ACMECOMMANDHISTORY
  2
AcMeCommandHistory
  3
AcMeServices
 90
     1024
 91
        1
280
     0
281
     0
  0
CLASS
  1
ACIMSYSVARMAN
  2
AcImSysVarManager
  3
AcMeServices
 90
     1024
 91
        1
280
     0
281
     0
  0
CLASS
  1
ACIMINTSYSVAR
  2
AcImIntSysVar
  3
AcMeServices
 90
     1024
 91
        1
280
     0
281
     0
  0
CLASS
  1
ACMESTATEMGR
  2
AcMeStateMgr
  3
AcMeServices
 90
     1024
 91
        1
280
     0
281
     0
  0
CLASS
  1
ACGREFMASTER
  2
AcGrefMaster
  3
AcAttribServices
 90
     1024
 91
        1
280
     0
281
     0
  0
CLASS
  1
SORTENTSTABLE
  2
AcDbSortentsTable
  3
ObjectDBX Classes
 90
        0
 91
        3
280
     0
281
     0
  0
CLASS
  1
MULTILEADER
  2
AcDbMLeader
  3
ACDB_MLEADER_CLASS
 90
     1025
 91
        1
280
     0
281
     1
  0
CLASS
  1
DICTIONARYVAR
  2
AcDbDictionaryVar
  3
ObjectDBX Classes
 90
        0
 91
        6
280
     0
281
     0
  0
CLASS
  1
CELLSTYLEMAP
  2
AcDbCellStyleMap
  3
ObjectDBX Classes
 90
     1152
 91
        1
280
     0
281
     0
  0
ENDSEC
  0
SECTION
  2
TABLES
  0
TABLE
  2
VPORT
  5
8
330
0
100
AcDbSymbolTable
 70
     1
1001
ACAD
1000
DbSaveVer
1071
      278
  0
VPORT
  5
57
330
8
100
AcDbSymbolTableRecord
100
AcDbViewportTableRecord
  2
*Active
 70
     0
 10
0.0
 20
0.0
 11
1.0
 21
1.0
 12
148.5
 22
105.0
 13
0.0
 23
0.0
 14
0.5
 24
0.5
 15
0.0
 25
0.0
 16
0.0
 26
0.0
 36
1.0
 17
0.0
 27
0.0
 37
0.0
 40
210.0
 41
1.788235
 42
50.0
 43
0.0
 44
0.0
 50
0.0
 51
0.0
 71
     0
 72
 20000
 73
     1
 74
     0
 75
     0
 76
     0
 77
     0
 78
     0
281
     0
 65
     1
110
0.0
120
0.0
130
0.0
111
1.0
121
0.0
131
0.0
112
0.0
122
1.0
132
0.0
 79
     0
146
0.0
348
2F
 60
     3
 61
     5
292
     1
282
     1
141
0.0
142
0.0
 63
   250
421
  3355443
  0
ENDTAB
  0
TABLE
  2
LTYPE
  5
5
330
0
100
AcDbSymbolTable
 70
    14
  0
LTYPE
  5
5B
330
5
100
AcDbSymbolTableRecord
100
AcDbLinetypeTableRecord
  2
ByBlock
 70
     0
  3

 72
    65
 73
     0
 40
0.0
  0
LTYPE
  5
5C
330
5
100
AcDbSymbolTableRecord
100
AcDbLinetypeTableRecord
  2
ByLayer
 70
     0
  3

 72
    65
 73
     0
 40
0.0
  0
LTYPE
  5
5D
330
5
100
AcDbSymbolTableRecord
100
AcDbLinetypeTableRecord
  2
Continuous
 70
     0
  3
Solid line
 72
    65
 73
     0
 40
0.0
  0
LTYPE
  5
81
330
5
100
AcDbSymbolTableRecord
100
AcDbLinetypeTableRecord
  2
HIDDEN
 70
     0
  3
Hidden __ __ __ __ __ __ __ __ __ __ __ __ __ _
 72
    65
 73
     2
 40
9.525
 49
6.35
 74
     0
 49
-3.175
 74
     0
  0
LTYPE
  5
82
330
5
100
AcDbSymbolTableRecord
100
AcDbLinetypeTableRecord
  2
PHANTOM2
 70
     0
  3
Phantom (.5x) ___ _ _ ___ _ _ ___ _ _ ___ _ _
 72
    65
 73
     6
 40
31.75
 49
15.875
 74
     0
 49
-3.175
 74
     0
 49
3.175
 74
     0
 49
-3.175
 74
     0
 49
3.175
 74
     0
 49
-3.175
 74
     0
  0
LTYPE
  5
83
330
5
100
AcDbSymbolTableRecord
100
AcDbLinetypeTableRecord
  2
CENTER
 70
     0
  3
Center ____ _ ____ _ ____ _ ____ _ ____ _ ____
 72
    65
 73
     4
 40
50.8
 49
31.75
 74
     0
 49
-6.35
 74
     0
 49
6.35
 74
     0
 49
-6.35
 74
     0
  0
LTYPE
  5
99
330
5
100
AcDbSymbolTableRecord
100
AcDbLinetypeTableRecord
  2
AM_ISO02W050
 70
     0
  3
__ __ __ __ __ __ __ __ __ __ __ __ __ __ __
 72
    65
 73
     2
 40
7.5
 49
6.0
 74
     0
 49
-1.5
 74
     0
  0
LTYPE
  5
9A
330
5
100
AcDbSymbolTableRecord
100
AcDbLinetypeTableRecord
  2
AM_ISO08W050
 70
     0
  3
____ . ____ . ____ . ____ . ____ . ____ . ____
 72
    65
 73
     4
 40
18.0
 49
12.0
 74
     0
 49
-1.5
 74
     0
 49
3.0
 74
     0
 49
-1.5
 74
     0
  0
LTYPE
  5
9B
330
5
100
AcDbSymbolTableRecord
100
AcDbLinetypeTableRecord
  2
AM_ISO09W050
 70
     0
  3
_____ . . _____ . . _____ . . ____ .. ____
 72
    65
 73
     6
 40
22.5
 49
12.0
 74
     0
 49
-1.5
 74
     0
 49
3.0
 74
     0
 49
-1.5
 74
     0
 49
3.0
 74
     0
 49
-1.5
 74
     0
  0
LTYPE
  5
9C
330
5
100
AcDbSymbolTableRecord
100
AcDbLinetypeTableRecord
  2
Amconstr
 70
     0
  3
_______________________
 72
    65
 73
     2
 40
9999.0
 49
9999.0
 74
     0
 49
0.0
 74
     0
  0
LTYPE
  5
9D
330
5
100
AcDbSymbolTableRecord
100
AcDbLinetypeTableRecord
  2
AM_ISO08W050x2
 70
     0
  3
__ . __ . __ . __ . __ . __
 72
    65
 73
     4
 40
9.0
 49
6.0
 74
     0
 49
-0.75
 74
     0
 49
1.5
 74
     0
 49
-0.75
 74
     0
  0
LTYPE
  5
9E
330
5
100
AcDbSymbolTableRecord
100
AcDbLinetypeTableRecord
  2
AM_ISO02W050x2
 70
     0
  3
 _ _ _ _ _ _ _ _ _ _ _ _
 72
    65
 73
     2
 40
3.75
 49
3.0
 74
     0
 49
-0.75
 74
     0
  0
LTYPE
  5
9F
330
5
100
AcDbSymbolTableRecord
100
AcDbLinetypeTableRecord
  2
Amzigzag
 70
     0
  3
/\/-/\/-/\/-/\/-/\/-/\/
 72
    65
 73
     2
 40
11.0001
 49
0.0001
 74
     4
 75
   136
340
96
 46
0.04
 50
0.0
 44
0.0
 45
0.0
 49
-11.0
 74
     0
  0
LTYPE
  5
A0
330
5
100
AcDbSymbolTableRecord
100
AcDbLinetypeTableRecord
  2
ACISOWELD
 70
     0
  3
_ _ _ _ _
 72
    65
 73
     2
 40
2.0
 49
2.0
 74
     0
 49
-1.0
 74
     0
  0
LTYPE
  5
A1
330
5
100
AcDbSymbolTableRecord
100
AcDbLinetypeTableRecord
  2
ACISOTGL
 70
     0
  3
_ _ _ _ _
 72
    65
 73
     2
 40
3.0
 49
2.0
 74
     0
 49
-1.0
 74
     0
  0
LTYPE
  5
A2
330
5
100
AcDbSymbolTableRecord
100
AcDbLinetypeTableRecord
  2
ACISOTGB
 70
     0
  3
__ . . __ . .
 72
    65
 73
     6
 40
9.0
 49
4.0
 74
     0
 49
-1.0
 74
     0
 49
1.0
 74
     0
 49
-1.0
 74
     0
 49
1.0
 74
     0
 49
-1.0
 74
     0
  0
ENDTAB
  0
TABLE
  2
LAYER
  5
2
330
0
100
AcDbSymbolTable
 70
    10
  0
LAYER
  5
54
330
2
100
AcDbSymbolTableRecord
100
AcDbLayerTableRecord
  2
0
 70
     0
 62
     7
  6
Continuous
370
    -3
390
F
347
21
348
0
1001
AcAecLayerStandard
1000

1000

  0
LAYER
  5
79
330
2
100
AcDbSymbolTableRecord
100
AcDbLayerTableRecord
  2
Defpoints
 70
     0
 62
     7
  6
Continuous
290
     0
370
    -3
390
F
347
21
348
0
1001
AcAecLayerStandard
1000

1000

  0
LAYER
  5
AE
330
2
100
AcDbSymbolTableRecord
100
AcDbLayerTableRecord
  2
Sichtbar
 70
     0
 62
     7
  6
Continuous
370
    35
390
F
347
21
348
0
  0
LAYER
  5
118
330
2
100
AcDbSymbolTableRecord
100
AcDbLayerTableRecord
  2
Sichtbar schmal
 70
     0
 62
     7
  6
Continuous
370
    18
390
F
347
21
348
0
  0
LAYER
  5
181
330
2
100
AcDbSymbolTableRecord
100
AcDbLayerTableRecord
  2
Border
 70
     0
 62
     7
  6
Continuous
370
    25
390
F
347
21
348
0
1001
AcAecLayerStandard
1000

1000

1001
AcCmTransparency
1071
        0
  0
LAYER
  5
198
330
2
100
AcDbSymbolTableRecord
100
AcDbLayerTableRecord
  2
Dimensions
 70
     0
 62
     7
  6
Continuous
370
    18
390
F
347
21
348
0
  0
LAYER
  5
1DD
330
2
100
AcDbSymbolTableRecord
100
AcDbLayerTableRecord
  2
Annotations
 70
     0
 62
     7
  6
Continuous
370
    18
390
F
347
21
348
0
  0
ENDTAB
  0
TABLE
  2
STYLE
  5
3
330
0
100
AcDbSymbolTable
 70
     4
  0
STYLE
  5
55
330
3
100
AcDbSymbolTableRecord
100
AcDbTextStyleTableRecord
  2
Standard
 70
     0
 40
0.0
 41
1.0
 50
0.0
 71
     0
 42
3.5
  3
arial.ttf
  4

1001
ACAD
1000
Arial
1071
       34
  0
STYLE
  5
5A
330
3
100
AcDbSymbolTableRecord
100
AcDbTextStyleTableRecord
  2
Annotative
 70
     0
 40
0.0
 41
1.0
 50
0.0
 71
     0
 42
0.2
  3
txt
  4

1001
AcadAnnotative
1000
AnnotativeData
1002
{
1070
     1
1070
     1
1002
}
  0
STYLE
  5
96
330
3
100
AcDbSymbolTableRecord
100
AcDbTextStyleTableRecord
  2

 70
     1
 40
0.0
 41
1.0
 50
0.0
 71
     0
 42
10.0
  3
genltshp.shx
  4

  0
STYLE
  5
97
330
3
100
AcDbSymbolTableRecord
100
AcDbTextStyleTableRecord
  2
ACISOGDT
 70
     0
 40
0.0
 41
1.0
 50
0.0
 71
     0
 42
10.0
  3
amgdt.shx
  4

  0
ENDTAB
  0
TABLE
  2
VIEW
  5
6
330
0
100
AcDbSymbolTable
 70
     0
  0
ENDTAB
  0
TABLE
  2
UCS
  5
7
330
0
100
AcDbSymbolTable
 70
     0
  0
ENDTAB
  0
TABLE
  2
APPID
  5
9
330
0
100
AcDbSymbolTable
 70
    23
  0
APPID
  5
56
330
9
100
AcDbSymbolTableRecord
100
AcDbRegAppTableRecord
  2
ACAD
 70
     0
  0
APPID
  5
5E
330
9
100
AcDbSymbolTableRecord
100
AcDbRegAppTableRecord
  2
AcadAnnotative
 70
     0
  0
APPID
  5
78
330
9
100
AcDbSymbolTableRecord
100
AcDbRegAppTableRecord
  2
ACAD_PSEXT
 70
     0
  0
APPID
  5
7A
330
9
100
AcDbSymbolTableRecord
100
AcDbRegAppTableRecord
  2
MCAD_NO_VIS
 70
     0
  0
APPID
  5
7B
330
9
100
AcDbSymbolTableRecord
100
AcDbRegAppTableRecord
  2
ACAD_TEMP_GRAPHIC
 70
     0
  0
APPID
  5
84
330
9
100
AcDbSymbolTableRecord
100
AcDbRegAppTableRecord
  2
ACAD_DSTYLE_DIMJAG
 70
     0
  0
APPID
  5
85
330
9
100
AcDbSymbolTableRecord
100
AcDbRegAppTableRecord
  2
ACAD_DSTYLE_DIMTALN
 70
     0
  0
APPID
  5
86
330
9
100
AcDbSymbolTableRecord
100
AcDbRegAppTableRecord
  2
ACAD_NAV_VCDISPLAY
 70
     0
  0
APPID
  5
87
330
9
100
AcDbSymbolTableRecord
100
AcDbRegAppTableRecord
  2
AcAecLayerStandard
 70
     0
  0
APPID
  5
88
330
9
100
AcDbSymbolTableRecord
100
AcDbRegAppTableRecord
  2
AcCmTransparency
 70
     0
  0
APPID
  5
89
330
9
100
AcDbSymbolTableRecord
100
AcDbRegAppTableRecord
  2
AcDbDynamicBlockGUID
 70
     0
  0
APPID
  5
8A
330
9
100
AcDbSymbolTableRecord
100
AcDbRegAppTableRecord
  2
ACAD_DSTYLE_DIMBREAK
 70
     0
  0
APPID
  5
8B
330
9
100
AcDbSymbolTableRecord
100
AcDbRegAppTableRecord
  2
FUSIONCURRENTTITLEBLOCK
 70
     0
  0
APPID
  5
8C
330
9
100
AcDbSymbolTableRecord
100
AcDbRegAppTableRecord
  2
AcSynergy
 70
     0
  0
APPID
  5
8D
330
9
100
AcDbSymbolTableRecord
100
AcDbRegAppTableRecord
  2
GENIUS_GENSCREG_15
 70
     0
  0
APPID
  5
8E
330
9
100
AcDbSymbolTableRecord
100
AcDbRegAppTableRecord
  2
GENIUS_GENOBJ-N-SDF_13
 70
     0
  0
APPID
  5
8F
330
9
100
AcDbSymbolTableRecord
100
AcDbRegAppTableRecord
  2
GENIUS_GENODEF_13
 70
     0
  0
APPID
  5
90
330
9
100
AcDbSymbolTableRecord
100
AcDbRegAppTableRecord
  2
ACAD_DIMASSOC_CALC_DIMLFAC
 70
     0
  0
APPID
  5
91
330
9
100
AcDbSymbolTableRecord
100
AcDbRegAppTableRecord
  2
ACAD_DIMASSOC_DIMLFAC
 70
     0
  0
APPID
  5
92
330
9
100
AcDbSymbolTableRecord
100
AcDbRegAppTableRecord
  2
ACAD_DIMASSOC_OVERRIDDEN_DIMLFAC
 70
     0
  0
APPID
  5
93
330
9
100
AcDbSymbolTableRecord
100
AcDbRegAppTableRecord
  2
ACAD_TC
 70
     0
  0
APPID
  5
94
330
9
100
AcDbSymbolTableRecord
100
AcDbRegAppTableRecord
  2
ACAD_DSTYLE_DIMJAG_POSITION
 70
     0
  0
APPID
  5
95
330
9
100
AcDbSymbolTableRecord
100
AcDbRegAppTableRecord
  2
ACATTRIBSERVICES
 70
     0
  0
ENDTAB
  0
TABLE
  2
DIMSTYLE
  5
A
330
0
100
AcDbSymbolTable
 70
     3
100
AcDbDimStyleTable
 71
     1
340
A5
  0
DIMSTYLE
105
58
330
A
100
AcDbSymbolTableRecord
100
AcDbDimStyleTableRecord
  2
Standard
 70
     0
 41
3.5
 42
2.1
 43
10.5
 44
2.1
 78
    12
 79
     3
140
3.5
143
0.03937
146
0.714286
147
1.4
179
     2
271
     2
272
     2
284
    12
340
55
  0
DIMSTYLE
105
59
330
A
100
AcDbSymbolTableRecord
100
AcDbDimStyleTableRecord
  2
Annotative
 70
     0
 40
0.0
 41
3.5
 42
2.1
 43
10.5
 44
2.1
 73
     0
 74
     0
 77
     1
 78
    12
 79
     3
140
3.5
141
2.5
143
0.03937
146
0.714286
147
1.4
171
     3
172
     1
179
     2
271
     2
272
     2
274
     3
278
    44
283
     0
284
    12
340
55
1001
AcadAnnotative
1000
AnnotativeData
1002
{
1070
     1
1070
     1
1002
}
  0
DIMSTYLE
105
A5
102
{ACAD_REACTORS
330
197
330
1A5
330
1B2
330
1C1
330
1CE
102
}
330
A
100
AcDbSymbolTableRecord
100
AcDbDimStyleTableRecord
  2
ISO-25
 70
     0
 41
3.5
 42
2.1
 43
10.5
 44
2.1
 47
0.1
 48
0.1
 73
     0
 74
     0
 77
     1
 78
    12
 79
     3
140
3.5
141
0.0
143
0.03937
146
0.714286
147
1.4
172
     1
176
   256
177
   256
178
   256
179
     2
271
     2
272
     2
274
     4
283
     0
284
    12
285
    12
286
    12
340
55
1001
ACAD_DSTYLE_DIMJAG
1070
   388
1040
1.5
1001
ACAD_DSTYLE_DIMTALN
1070
   392
1070
     1
1001
ACAD_DSTYLE_DIMBREAK
1070
   391
1040
3.5
  0
ENDTAB
  0
TABLE
  2
BLOCK_RECORD
  5
1
330
0
100
AcDbSymbolTable
 70
    15
  0
BLOCK_RECORD
  5
70
102
{ACAD_XDICTIONARY
360
A7
102
}
330
1
100
AcDbSymbolTableRecord
100
AcDbBlockTableRecord
  2
*Model_Space
340
73
 70
     0
280
     1
281
     0
  0
BLOCK_RECORD
  5
6C
330
1
100
AcDbSymbolTableRecord
100
AcDbBlockTableRecord
  2
*Paper_Space
340
6F
 70
     0
280
     1
281
     0
  0
BLOCK_RECORD
  5
74
330
1
100
AcDbSymbolTableRecord
100
AcDbBlockTableRecord
  2
*Paper_Space0
340
77
 70
     0
280
     1
281
     0
  0
BLOCK_RECORD
  5
182
102
{ACAD_XDICTIONARY
360
183
102
}
330
1
100
AcDbSymbolTableRecord
100
AcDbBlockTableRecord
  2
ISO_A4(L)_SHEET
340
0
310
2800000020000000200000000100080000000000000400000000000000000000000000000000000000000000000080000080000000808000800000008000800080800000C0C0C000C0DCC000F0CAA6000020400000206000002080000020A0000020C0000020E00000400000004020000040400000406000004080000040A0
310
000040C0000040E00000600000006020000060400000606000006080000060A0000060C0000060E00000800000008020000080400000806000008080000080A0000080C0000080E00000A0000000A0200000A0400000A0600000A0800000A0A00000A0C00000A0E00000C0000000C0200000C0400000C0600000C0800000C0
310
A00000C0C00000C0E00000E0000000E0200000E0400000E0600000E0800000E0A00000E0C00000E0E00040000000400020004000400040006000400080004000A0004000C0004000E00040200000402020004020400040206000402080004020A0004020C0004020E000404000004040200040404000404060004040800040
310
40A0004040C0004040E00040600000406020004060400040606000406080004060A0004060C0004060E00040800000408020004080400040806000408080004080A0004080C0004080E00040A0000040A0200040A0400040A0600040A0800040A0A00040A0C00040A0E00040C0000040C0200040C0400040C0600040C08000
310
40C0A00040C0C00040C0E00040E0000040E0200040E0400040E0600040E0800040E0A00040E0C00040E0E00080000000800020008000400080006000800080008000A0008000C0008000E00080200000802020008020400080206000802080008020A0008020C0008020E00080400000804020008040400080406000804080
310
008040A0008040C0008040E00080600000806020008060400080606000806080008060A0008060C0008060E00080800000808020008080400080806000808080008080A0008080C0008080E00080A0000080A0200080A0400080A0600080A0800080A0A00080A0C00080A0E00080C0000080C0200080C0400080C0600080C0
310
800080C0A00080C0C00080C0E00080E0000080E0200080E0400080E0600080E0800080E0A00080E0C00080E0E000C0000000C0002000C0004000C0006000C0008000C000A000C000C000C000E000C0200000C0202000C0204000C0206000C0208000C020A000C020C000C020E000C0400000C0402000C0404000C0406000C0
310
408000C040A000C040C000C040E000C0600000C0602000C0604000C0606000C0608000C060A000C060C000C060E000C0800000C0802000C0804000C0806000C0808000C080A000C080C000C080E000C0A00000C0A02000C0A04000C0A06000C0A08000C0A0A000C0A0C000C0A0E000C0C00000C0C02000C0C04000C0C06000
310
C0C08000C0C0A000F0FBFF00A4A0A000808080000000FF0000FF000000FFFF00FF000000FF00FF00FFFF0000FFFFFF0049494949494949494949494949494949494949494949494949494949494949494949494949494949494949494949494949494949494949494949494949494949494949494949494949494949494949
310
494949494949494949494949494949494949494949494949494949494949494949494949494949494949494949494949494949494949494949494949494949494949494949494949494949494949494949494949494949494949494949494949494949494949494949494949494949494949FFFFFFFFFFFFFFFFFFFFFFFFFF
310
FFFFFFFFFFFFFFFFFFFFFFFFFFFFFFFFFF4949FFFF494949494949494949494949FF49494949494949494949494949FFFF494949FF4949494949494949494949494949494949494949494949494949FF49494949FF4949494949494949494949494949494949494949494949494949FF49494949FF49494949494949494949
310
49494949494949494949494949494949FF49494949FF4949494949494949494949494949494949494949494949494949FF49494949FF4949494949494949494949494949494949494949494949494949FF49494949FF4949494949494949494949494949494949494949494949494949FF49494949FF494949494949494949
310
4949494949494949494949494949494949FF49494949FFFF494949494949494949494949494949494949494949494949FFFF49494949FF4949494949494949494949494949494949494949494949494949FF49494949FF4949494949494949494949494949494949494949494949494949FF49494949FF4949494949494949
310
494949494949494949494949494949494949FF49494949FF4949494949494949494949494949494949494949494949494949FF49494949FF4949494949494949494949494949494949494949494949494949FF49494949FF4949494949494949494949494949494949494949494949494949FF49494949FF49494949494949
310
49494949494949494949494949494949494949FF49494949FF494949494949494949494949FF49494949494949494949494949FF494949FFFFFFFFFFFFFFFFFFFFFFFFFFFFFFFFFFFFFFFFFFFFFFFFFFFFFFFFFFFF4949FFFFFF494949494949494949494949494949494949494949494949FFFFFF49494949494949494949
310
49494949494949494949494949494949494949494949494949494949494949494949494949494949494949494949494949494949494949494949494949494949494949494949494949494949494949494949494949494949494949494949494949494949494949494949494949494949494949494949494949494949494949
310
4949494949494949494949494949494949494949494949494949494949494949494949494949494949494949494949494949494949494949
102
{BLKREFS
331
180
102
}
 70
     4
280
     1
281
     0
1001
AcDbDynamicBlockGUID
1000
{3710841E-D716-9F4A-8536-8AFE682DFAB9}
  0
BLOCK_RECORD
  5
199
330
1
100
AcDbSymbolTableRecord
100
AcDbBlockTableRecord
  2
*D5
340
0
 70
     0
280
     1
281
     0
  0
BLOCK_RECORD
  5
1A6
330
1
100
AcDbSymbolTableRecord
100
AcDbBlockTableRecord
  2
*D6
340
0
 70
     0
280
     1
281
     0
  0
BLOCK_RECORD
  5
1B3
330
1
100
AcDbSymbolTableRecord
100
AcDbBlockTableRecord
  2
*D7
340
0
 70
     0
280
     1
281
     0
  0
BLOCK_RECORD
  5
1C2
330
1
100
AcDbSymbolTableRecord
100
AcDbBlockTableRecord
  2
*D8
340
0
 70
     0
280
     1
281
     0
  0
BLOCK_RECORD
  5
1CF
330
1
100
AcDbSymbolTableRecord
100
AcDbBlockTableRecord
  2
*D9
340
0
 70
     0
280
     1
281
     0
  0
BLOCK_RECORD
  5
1E0
330
1
100
AcDbSymbolTableRecord
100
AcDbBlockTableRecord
  2
*D10
340
0
 70
     0
280
     1
281
     0
  0
BLOCK_RECORD
  5
1EC
330
1
100
AcDbSymbolTableRecord
100
AcDbBlockTableRecord
  2
*D11
340
0
 70
     0
280
     1
281
     0
  0
BLOCK_RECORD
  5
1F8
330
1
100
AcDbSymbolTableRecord
100
AcDbBlockTableRecord
  2
*D12
340
0
 70
     0
280
     1
281
     0
  0
BLOCK_RECORD
  5
206
330
1
100
AcDbSymbolTableRecord
100
AcDbBlockTableRecord
  2
*D13
340
0
 70
     0
280
     1
281
     0
  0
BLOCK_RECORD
  5
212
330
1
100
AcDbSymbolTableRecord
100
AcDbBlockTableRecord
  2
*D14
340
0
 70
     0
280
     1
281
     0
  0
ENDTAB
  0
ENDSEC
  0
SECTION
  2
BLOCKS
  0
BLOCK
  5
71
330
70
100
AcDbEntity
  8
0
100
AcDbBlockBegin
  2
*Model_Space
 70
     0
 10
0.0
 20
0.0
 30
0.0
  3
*Model_Space
  1

  0
ENDBLK
  5
72
330
70
100
AcDbEntity
  8
0
100
AcDbBlockEnd
  0
BLOCK
  5
6D
330
6C
100
AcDbEntity
 67
     1
  8
0
100
AcDbBlockBegin
  2
*Paper_Space
 70
     0
 10
0.0
 20
0.0
 30
0.0
  3
*Paper_Space
  1

  0
ENDBLK
  5
6E
330
6C
100
AcDbEntity
 67
     1
  8
0
100
AcDbBlockEnd
  0
BLOCK
  5
75
330
74
100
AcDbEntity
 67
     1
  8
0
100
AcDbBlockBegin
  2
*Paper_Space0
 70
     0
 10
0.0
 20
0.0
 30
0.0
  3
*Paper_Space0
  1

  0
ENDBLK
  5
76
330
74
100
AcDbEntity
 67
     1
  8
0
100
AcDbBlockEnd
  0
BLOCK
  5
185
330
182
100
AcDbEntity
  8
0
100
AcDbBlockBegin
  2
ISO_A4(L)_SHEET
 70
     0
 10
0.0
 20
0.0
 30
0.0
  3
ISO_A4(L)_SHEET
  1

  0
LINE
  5
186
330
182
100
AcDbEntity
  8
Defpoints
100
AcDbLine
 10
0.0
 20
210.0
 30
0.0
 11
0.0
 21
195.0
 31
0.0
  0
LINE
  5
187
330
182
100
AcDbEntity
  8
Defpoints
100
AcDbLine
 10
0.0
 20
15.0
 30
0.0
 11
0.0
 21
0.0
 31
0.0
  0
LINE
  5
188
330
182
100
AcDbEntity
  8
Defpoints
100
AcDbLine
 10
0.0
 20
0.0
 30
0.0
 11
15.0
 21
0.0
 31
0.0
  0
LINE
  5
189
330
182
100
AcDbEntity
  8
Defpoints
100
AcDbLine
 10
282.0
 20
0.0
 30
0.0
 11
297.0
 21
0.0
 31
0.0
  0
LINE
  5
18A
330
182
100
AcDbEntity
  8
Defpoints
100
AcDbLine
 10
297.0
 20
0.0
 30
0.0
 11
297.0
 21
15.0
 31
0.0
  0
LINE
  5
18B
330
182
100
AcDbEntity
  8
Defpoints
100
AcDbLine
 10
297.0
 20
195.0
 30
0.0
 11
297.0
 21
210.0
 31
0.0
  0
LINE
  5
18C
330
182
100
AcDbEntity
  8
Border
100
AcDbLine
 10
287.0
 20
10.0
 30
0.0
 11
287.0
 21
200.0
 31
0.0
  0
LINE
  5
18D
330
182
100
AcDbEntity
  8
Defpoints
100
AcDbLine
 10
297.0
 20
210.0
 30
0.0
 11
282.0
 21
210.0
 31
0.0
  0
LINE
  5
18E
330
182
100
AcDbEntity
  8
Defpoints
100
AcDbLine
 10
15.0
 20
210.0
 30
0.0
 11
0.0
 21
210.0
 31
0.0
  0
LINE
  5
18F
330
182
100
AcDbEntity
  8
Border
100
AcDbLine
 10
287.0
 20
10.0
 30
0.0
 11
20.0
 21
10.0
 31
0.0
  0
LINE
  5
190
330
182
100
AcDbEntity
  8
Border
100
AcDbLine
 10
15.0
 20
100.0
 30
0.0
 11
25.0
 21
100.0
 31
0.0
  0
LINE
  5
191
330
182
100
AcDbEntity
  8
Border
100
AcDbLine
 10
292.0
 20
100.0
 30
0.0
 11
282.0
 21
100.0
 31
0.0
  0
LINE
  5
192
330
182
100
AcDbEntity
  8
Border
100
AcDbLine
 10
148.5
 20
205.0
 30
0.0
 11
148.5
 21
195.0
 31
0.0
  0
LINE
  5
193
330
182
100
AcDbEntity
  8
Border
100
AcDbLine
 10
148.5
 20
5.0
 30
0.0
 11
148.5
 21
15.0
 31
0.0
  0
LINE
  5
194
330
182
100
AcDbEntity
  8
Border
100
AcDbLine
 10
287.0
 20
200.0
 30
0.0
 11
20.0
 21
200.0
 31
0.0
  0
LINE
  5
195
330
182
100
AcDbEntity
  8
Border
100
AcDbLine
 10
20.0
 20
200.0
 30
0.0
 11
20.0
 21
10.0
 31
0.0
  0
ENDBLK
  5
196
330
182
100
AcDbEntity
  8
0
100
AcDbBlockEnd
  0
BLOCK
  5
19A
330
199
100
AcDbEntity
  8
0
100
AcDbBlockBegin
  2
*D5
 70
     1
 10
0.0
 20
0.0
 30
0.0
  3
*D5
  1

  0
LINE
  5
19B
330
199
100
AcDbEntity
  8
Dimensions
440
 16777216
370
    -2
100
AcDbLine
 10
54.06539
 20
169.924959
 30
0.0
 11
54.06539
 21
159.424959
 31
0.0
  0
LINE
  5
19C
330
199
100
AcDbEntity
  8
Dimensions
440
 16777216
370
    -2
100
AcDbLine
 10
81.77039
 20
172.157791
 30
0.0
 11
81.77039
 21
159.424959
 31
0.0
  0
LINE
  5
19D
330
199
100
AcDbEntity
  8
Dimensions
440
 16777216
370
    -2
100
AcDbLine
 10
57.56539
 20
161.524959
 30
0.0
 11
78.27039
 21
161.524959
 31
0.0
  0
SOLID
  5
19E
330
199
100
AcDbEntity
  8
Dimensions
440
 16777216
100
AcDbTrace
 10
57.56539
 20
162.108292
 30
0.0
 11
57.56539
 21
160.941626
 31
0.0
 12
54.06539
 22
161.524959
 32
0.0
 13
54.06539
 23
161.524959
 33
0.0
  0
SOLID
  5
19F
330
199
100
AcDbEntity
  8
Dimensions
440
 16777216
100
AcDbTrace
 10
78.27039
 20
162.108292
 30
0.0
 11
78.27039
 21
160.941626
 31
0.0
 12
81.77039
 22
161.524959
 32
0.0
 13
81.77039
 23
161.524959
 33
0.0
  0
MTEXT
  5
1A0
330
199
100
AcDbEntity
  8
Dimensions
440
 16777216
100
AcDbMText
 10
67.91789
 20
164.711965
 30
0.0
 40
3.5
 41
0.0
 46
0.0
 71
     5
 72
     1
  1
55.41
 73
     1
 44
1.0
  0
POINT
  5
1A1
330
199
100
AcDbEntity
  8
Defpoints
 62
     0
440
 16777216
100
AcDbPoint
 10
54.06539
 20
172.024959
 30
0.0
  0
POINT
  5
1A2
330
199
100
AcDbEntity
  8
Defpoints
 62
     0
440
 16777216
100
AcDbPoint
 10
81.77039
 20
174.257791
 30
0.0
  0
POINT
  5
1A3
330
199
100
AcDbEntity
  8
Defpoints
 62
     0
440
 16777216
100
AcDbPoint
 10
81.77039
 20
161.524959
 30
0.0
  0
ENDBLK
  5
1A4
330
199
100
AcDbEntity
  8
0
100
AcDbBlockEnd
  0
BLOCK
  5
1A7
330
1A6
100
AcDbEntity
  8
0
100
AcDbBlockBegin
  2
*D6
 70
     1
 10
0.0
 20
0.0
 30
0.0
  3
*D6
  1

  0
LINE
  5
1A8
330
1A6
100
AcDbEntity
  8
Dimensions
440
 16777216
370
    -2
100
AcDbLine
 10
54.06539
 20
169.924959
 30
0.0
 11
54.06539
 21
148.924959
 31
0.0
  0
LINE
  5
1A9
330
1A6
100
AcDbEntity
  8
Dimensions
440
 16777216
370
    -2
100
AcDbLine
 10
166.04039
 20
172.157791
 30
0.0
 11
166.04039
 21
148.924959
 31
0.0
  0
LINE
  5
1AA
330
1A6
100
AcDbEntity
  8
Dimensions
440
 16777216
370
    -2
100
AcDbLine
 10
57.56539
 20
151.024959
 30
0.0
 11
162.54039
 21
151.024959
 31
0.0
  0
SOLID
  5
1AB
330
1A6
100
AcDbEntity
  8
Dimensions
440
 16777216
100
AcDbTrace
 10
57.56539
 20
151.608292
 30
0.0
 11
57.56539
 21
150.441626
 31
0.0
 12
54.06539
 22
151.024959
 32
0.0
 13
54.06539
 23
151.024959
 33
0.0
  0
SOLID
  5
1AC
330
1A6
100
AcDbEntity
  8
Dimensions
440
 16777216
100
AcDbTrace
 10
162.54039
 20
151.608292
 30
0.0
 11
162.54039
 21
150.441626
 31
0.0
 12
166.04039
 22
151.024959
 32
0.0
 13
166.04039
 23
151.024959
 33
0.0
  0
MTEXT
  5
1AD
330
1A6
100
AcDbEntity
  8
Dimensions
440
 16777216
100
AcDbMText
 10
110.05289
 20
154.213158
 30
0.0
 40
3.5
 41
0.0
 46
0.0
 71
     5
 72
     1
  1
223.95
 73
     1
 44
1.0
  0
POINT
  5
1AE
330
1A6
100
AcDbEntity
  8
Defpoints
 62
     0
440
 16777216
100
AcDbPoint
 10
54.06539
 20
172.024959
 30
0.0
  0
POINT
  5
1AF
330
1A6
100
AcDbEntity
  8
Defpoints
 62
     0
440
 16777216
100
AcDbPoint
 10
166.04039
 20
174.257791
 30
0.0
  0
POINT
  5
1B0
330
1A6
100
AcDbEntity
  8
Defpoints
 62
     0
440
 16777216
100
AcDbPoint
 10
166.04039
 20
151.024959
 30
0.0
  0
ENDBLK
  5
1B1
330
1A6
100
AcDbEntity
  8
0
100
AcDbBlockEnd
  0
BLOCK
  5
1B4
330
1B3
100
AcDbEntity
  8
0
100
AcDbBlockBegin
  2
*D7
 70
     1
 10
0.0
 20
0.0
 30
0.0
  3
*D7
  1

  0
LINE
  5
1B5
330
1B3
100
AcDbEntity
  8
Dimensions
440
 16777216
370
    -2
100
AcDbLine
 10
166.04039
 20
172.157791
 30
0.0
 11
166.04039
 21
161.276755
 31
0.0
  0
LINE
  5
1B6
330
1B3
100
AcDbEntity
  8
Dimensions
440
 16777216
370
    -2
100
AcDbLine
 10
172.04039
 20
172.157791
 30
0.0
 11
172.04039
 21
161.276755
 31
0.0
  0
LINE
  5
1B7
330
1B3
100
AcDbEntity
  8
Dimensions
440
 16777216
370
    -2
100
AcDbLine
 10
175.54039
 20
163.376755
 30
0.0
 11
179.04039
 21
163.376755
 31
0.0
  0
LINE
  5
1B8
330
1B3
100
AcDbEntity
  8
Dimensions
440
 16777216
370
    -2
100
AcDbLine
 10
162.54039
 20
163.376755
 30
0.0
 11
151.592027
 21
163.376755
 31
0.0
  0
LINE
  5
1B9
330
1B3
100
AcDbEntity
  8
Dimensions
440
 16777216
370
    -2
100
AcDbLine
 10
172.04039
 20
163.376755
 30
0.0
 11
166.04039
 21
163.376755
 31
0.0
  0
SOLID
  5
1BA
330
1B3
100
AcDbEntity
  8
Dimensions
440
 16777216
100
AcDbTrace
 10
175.54039
 20
163.960089
 30
0.0
 11
175.54039
 21
162.793422
 31
0.0
 12
172.04039
 22
163.376755
 32
0.0
 13
172.04039
 23
163.376755
 33
0.0
  0
SOLID
  5
1BB
330
1B3
100
AcDbEntity
  8
Dimensions
440
 16777216
100
AcDbTrace
 10
162.54039
 20
163.960089
 30
0.0
 11
162.54039
 21
162.793422
 31
0.0
 12
166.04039
 22
163.376755
 32
0.0
 13
166.04039
 23
163.376755
 33
0.0
  0
MTEXT
  5
1BC
330
1B3
100
AcDbEntity
  8
Dimensions
440
 16777216
100
AcDbMText
 10
155.316209
 20
166.533918
 30
0.0
 40
3.5
 41
0.0
 46
0.0
 71
     5
 72
     1
  1
12
 73
     1
 44
1.0
  0
POINT
  5
1BD
330
1B3
100
AcDbEntity
  8
Defpoints
 62
     0
440
 16777216
100
AcDbPoint
 10
166.04039
 20
174.257791
 30
0.0
  0
POINT
  5
1BE
330
1B3
100
AcDbEntity
  8
Defpoints
 62
     0
440
 16777216
100
AcDbPoint
 10
172.04039
 20
174.257791
 30
0.0
  0
POINT
  5
1BF
330
1B3
100
AcDbEntity
  8
Defpoints
 62
     0
440
 16777216
100
AcDbPoint
 10
172.04039
 20
163.376755
 30
0.0
  0
ENDBLK
  5
1C0
330
1B3
100
AcDbEntity
  8
0
100
AcDbBlockEnd
  0
BLOCK
  5
1C3
330
1C2
100
AcDbEntity
  8
0
100
AcDbBlockBegin
  2
*D8
 70
     1
 10
0.0
 20
0.0
 30
0.0
  3
*D8
  1

  0
LINE
  5
1C4
330
1C2
100
AcDbEntity
  8
Dimensions
440
 16777216
370
    -2
100
AcDbLine
 10
166.04039
 20
172.157791
 30
0.0
 11
166.04039
 21
151.157791
 31
0.0
  0
LINE
  5
1C5
330
1C2
100
AcDbEntity
  8
Dimensions
440
 16777216
370
    -2
100
AcDbLine
 10
178.04039
 20
172.157791
 30
0.0
 11
178.04039
 21
151.157791
 31
0.0
  0
LINE
  5
1C6
330
1C2
100
AcDbEntity
  8
Dimensions
440
 16777216
370
    -2
100
AcDbLine
 10
169.54039
 20
153.257791
 30
0.0
 11
174.54039
 21
153.257791
 31
0.0
  0
SOLID
  5
1C7
330
1C2
100
AcDbEntity
  8
Dimensions
440
 16777216
100
AcDbTrace
 10
169.54039
 20
153.841124
 30
0.0
 11
169.54039
 21
152.674457
 31
0.0
 12
166.04039
 22
153.257791
 32
0.0
 13
166.04039
 23
153.257791
 33
0.0
  0
SOLID
  5
1C8
330
1C2
100
AcDbEntity
  8
Dimensions
440
 16777216
100
AcDbTrace
 10
174.54039
 20
153.841124
 30
0.0
 11
174.54039
 21
152.674457
 31
0.0
 12
178.04039
 22
153.257791
 32
0.0
 13
178.04039
 23
153.257791
 33
0.0
  0
MTEXT
  5
1C9
330
1C2
100
AcDbEntity
  8
Dimensions
440
 16777216
100
AcDbMText
 10
172.04039
 20
156.414953
 30
0.0
 40
3.5
 41
0.0
 46
0.0
 71
     5
 72
     1
  1
24
 73
     1
 44
1.0
  0
POINT
  5
1CA
330
1C2
100
AcDbEntity
  8
Defpoints
 62
     0
440
 16777216
100
AcDbPoint
 10
166.04039
 20
174.257791
 30
0.0
  0
POINT
  5
1CB
330
1C2
100
AcDbEntity
  8
Defpoints
 62
     0
440
 16777216
100
AcDbPoint
 10
178.04039
 20
174.257791
 30
0.0
  0
POINT
  5
1CC
330
1C2
100
AcDbEntity
  8
Defpoints
 62
     0
440
 16777216
100
AcDbPoint
 10
178.04039
 20
153.257791
 30
0.0
  0
ENDBLK
  5
1CD
330
1C2
100
AcDbEntity
  8
0
100
AcDbBlockEnd
  0
BLOCK
  5
1D0
330
1CF
100
AcDbEntity
  8
0
100
AcDbBlockBegin
  2
*D9
 70
     1
 10
0.0
 20
0.0
 30
0.0
  3
*D9
  1

  0
LINE
  5
1D1
330
1CF
100
AcDbEntity
  8
Dimensions
440
 16777216
370
    -2
100
AcDbLine
 10
180.14039
 20
174.257791
 30
0.0
 11
192.578065
 21
174.257791
 31
0.0
  0
LINE
  5
1D2
330
1CF
100
AcDbEntity
  8
Dimensions
440
 16777216
370
    -2
100
AcDbLine
 10
190.478065
 20
177.757791
 30
0.0
 11
190.478065
 21
181.257791
 31
0.0
  0
LINE
  5
1D3
330
1CF
100
AcDbEntity
  8
Dimensions
440
 16777216
370
    -2
100
AcDbLine
 10
190.478065
 20
168.157802
 30
0.0
 11
190.478065
 21
155.521513
 31
0.0
  0
LINE
  5
1D4
330
1CF
100
AcDbEntity
  8
Dimensions
440
 16777216
370
    -2
100
AcDbLine
 10
190.478065
 20
174.257791
 30
0.0
 11
190.478065
 21
171.657802
 31
0.0
  0
SOLID
  5
1D5
330
1CF
100
AcDbEntity
  8
Dimensions
440
 16777216
100
AcDbTrace
 10
189.894732
 20
177.757791
 30
0.0
 11
191.061398
 21
177.757791
 31
0.0
 12
190.478065
 22
174.257791
 32
0.0
 13
190.478065
 23
174.257791
 33
0.0
  0
SOLID
  5
1D6
330
1CF
100
AcDbEntity
  8
Dimensions
440
 16777216
100
AcDbTrace
 10
189.894732
 20
168.157802
 30
0.0
 11
191.061398
 21
168.157802
 31
0.0
 12
190.478065
 22
171.657802
 32
0.0
 13
190.478065
 23
171.657802
 33
0.0
  0
MTEXT
  5
1D7
330
1CF
100
AcDbEntity
  8
Dimensions
440
 16777216
100
AcDbMText
 10
187.29106
 20
160.089657
 30
0.0
 40
3.5
 41
0.0
 46
0.0
 71
     5
 72
     1
  1
5.2
 11
0.0
 21
1.0
 31
0.0
 73
     1
 44
1.0
  0
POINT
  5
1D8
330
1CF
100
AcDbEntity
  8
Defpoints
 62
     0
440
 16777216
100
AcDbPoint
 10
178.04039
 20
174.257791
 30
0.0
  0
POINT
  5
1D9
330
1CF
100
AcDbEntity
  8
Defpoints
 62
     0
440
 16777216
100
AcDbPoint
 10
190.478065
 20
171.657802
 30
0.0
  0
POINT
  5
1DA
330
1CF
100
AcDbEntity
  8
Defpoints
 62
     0
440
 16777216
100
AcDbPoint
 10
190.478065
 20
171.657802
 30
0.0
  0
ENDBLK
  5
1DB
330
1CF
100
AcDbEntity
  8
0
100
AcDbBlockEnd
  0
BLOCK
  5
1E1
330
1E0
100
AcDbEntity
  8
0
100
AcDbBlockBegin
  2
*D10
 70
     1
 10
0.0
 20
0.0
 30
0.0
  3
*D10
  1

  0
LINE
  5
3A6
330
1E0
100
AcDbEntity
  8
Dimensions
440
 16777216
370
    -2
100
AcDbLine
 10
54.06539
 20
169.924959
 30
0.0
 11
54.06539
 21
159.424959
 31
0.0
  0
LINE
  5
3A7
330
1E0
100
AcDbEntity
  8
Dimensions
440
 16777216
370
    -2
100
AcDbLine
 10
81.77039
 20
172.157791
 30
0.0
 11
81.77039
 21
159.424959
 31
0.0
  0
LINE
  5
3A8
330
1E0
100
AcDbEntity
  8
Dimensions
440
 16777216
370
    -2
100
AcDbLine
 10
57.56539
 20
161.524959
 30
0.0
 11
78.27039
 21
161.524959
 31
0.0
  0
SOLID
  5
3A9
330
1E0
100
AcDbEntity
  8
Dimensions
440
 16777216
100
AcDbTrace
 10
57.56539
 20
162.108292
 30
0.0
 11
57.56539
 21
160.941626
 31
0.0
 12
54.06539
 22
161.524959
 32
0.0
 13
54.06539
 23
161.524959
 33
0.0
  0
SOLID
  5
3AA
330
1E0
100
AcDbEntity
  8
Dimensions
440
 16777216
100
AcDbTrace
 10
78.27039
 20
162.108292
 30
0.0
 11
78.27039
 21
160.941626
 31
0.0
 12
81.77039
 22
161.524959
 32
0.0
 13
81.77039
 23
161.524959
 33
0.0
  0
MTEXT
  5
3AB
330
1E0
100
AcDbEntity
  8
Dimensions
440
 16777216
100
AcDbMText
 10
67.91789
 20
164.711965
 30
0.0
 40
3.5
 41
0.0
 46
0.0
 71
     5
 72
     1
  1
55.41
 73
     1
 44
1.0
  0
POINT
  5
3AC
330
1E0
100
AcDbEntity
  8
Defpoints
 62
     0
440
 16777216
100
AcDbPoint
 10
54.06539
 20
172.024959
 30
0.0
  0
POINT
  5
3AD
330
1E0
100
AcDbEntity
  8
Defpoints
 62
     0
440
 16777216
100
AcDbPoint
 10
81.77039
 20
174.257791
 30
0.0
  0
POINT
  5
3AE
330
1E0
100
AcDbEntity
  8
Defpoints
 62
     0
440
 16777216
100
AcDbPoint
 10
81.77039
 20
161.524959
 30
0.0
  0
ENDBLK
  5
1E2
330
1E0
100
AcDbEntity
  8
0
100
AcDbBlockEnd
  0
BLOCK
  5
1ED
330
1EC
100
AcDbEntity
  8
0
100
AcDbBlockBegin
  2
*D11
 70
     1
 10
0.0
 20
0.0
 30
0.0
  3
*D11
  1

  0
LINE
  5
3AF
330
1EC
100
AcDbEntity
  8
Dimensions
440
 16777216
370
    -2
100
AcDbLine
 10
54.06539
 20
169.924959
 30
0.0
 11
54.06539
 21
148.924959
 31
0.0
  0
LINE
  5
3B0
330
1EC
100
AcDbEntity
  8
Dimensions
440
 16777216
370
    -2
100
AcDbLine
 10
166.04039
 20
172.157791
 30
0.0
 11
166.04039
 21
148.924959
 31
0.0
  0
LINE
  5
3B1
330
1EC
100
AcDbEntity
  8
Dimensions
440
 16777216
370
    -2
100
AcDbLine
 10
57.56539
 20
151.024959
 30
0.0
 11
162.54039
 21
151.024959
 31
0.0
  0
SOLID
  5
3B2
330
1EC
100
AcDbEntity
  8
Dimensions
440
 16777216
100
AcDbTrace
 10
57.56539
 20
151.608292
 30
0.0
 11
57.56539
 21
150.441626
 31
0.0
 12
54.06539
 22
151.024959
 32
0.0
 13
54.06539
 23
151.024959
 33
0.0
  0
SOLID
  5
3B3
330
1EC
100
AcDbEntity
  8
Dimensions
440
 16777216
100
AcDbTrace
 10
162.54039
 20
151.608292
 30
0.0
 11
162.54039
 21
150.441626
 31
0.0
 12
166.04039
 22
151.024959
 32
0.0
 13
166.04039
 23
151.024959
 33
0.0
  0
MTEXT
  5
3B4
330
1EC
100
AcDbEntity
  8
Dimensions
440
 16777216
100
AcDbMText
 10
110.05289
 20
154.213158
 30
0.0
 40
3.5
 41
0.0
 46
0.0
 71
     5
 72
     1
  1
223.95
 73
     1
 44
1.0
  0
POINT
  5
3B5
330
1EC
100
AcDbEntity
  8
Defpoints
 62
     0
440
 16777216
100
AcDbPoint
 10
54.06539
 20
172.024959
 30
0.0
  0
POINT
  5
3B6
330
1EC
100
AcDbEntity
  8
Defpoints
 62
     0
440
 16777216
100
AcDbPoint
 10
166.04039
 20
174.257791
 30
0.0
  0
POINT
  5
3B7
330
1EC
100
AcDbEntity
  8
Defpoints
 62
     0
440
 16777216
100
AcDbPoint
 10
166.04039
 20
151.024959
 30
0.0
  0
ENDBLK
  5
1EE
330
1EC
100
AcDbEntity
  8
0
100
AcDbBlockEnd
  0
BLOCK
  5
1F9
330
1F8
100
AcDbEntity
  8
0
100
AcDbBlockBegin
  2
*D12
 70
     1
 10
0.0
 20
0.0
 30
0.0
  3
*D12
  1

  0
LINE
  5
3B8
330
1F8
100
AcDbEntity
  8
Dimensions
440
 16777216
370
    -2
100
AcDbLine
 10
166.04039
 20
172.157791
 30
0.0
 11
166.04039
 21
161.276755
 31
0.0
  0
LINE
  5
3B9
330
1F8
100
AcDbEntity
  8
Dimensions
440
 16777216
370
    -2
100
AcDbLine
 10
172.04039
 20
172.157791
 30
0.0
 11
172.04039
 21
161.276755
 31
0.0
  0
LINE
  5
3BA
330
1F8
100
AcDbEntity
  8
Dimensions
440
 16777216
370
    -2
100
AcDbLine
 10
175.54039
 20
163.376755
 30
0.0
 11
179.04039
 21
163.376755
 31
0.0
  0
LINE
  5
3BB
330
1F8
100
AcDbEntity
  8
Dimensions
440
 16777216
370
    -2
100
AcDbLine
 10
162.54039
 20
163.376755
 30
0.0
 11
151.592027
 21
163.376755
 31
0.0
  0
LINE
  5
3BC
330
1F8
100
AcDbEntity
  8
Dimensions
440
 16777216
370
    -2
100
AcDbLine
 10
172.04039
 20
163.376755
 30
0.0
 11
166.04039
 21
163.376755
 31
0.0
  0
SOLID
  5
3BD
330
1F8
100
AcDbEntity
  8
Dimensions
440
 16777216
100
AcDbTrace
 10
175.54039
 20
163.960089
 30
0.0
 11
175.54039
 21
162.793422
 31
0.0
 12
172.04039
 22
163.376755
 32
0.0
 13
172.04039
 23
163.376755
 33
0.0
  0
SOLID
  5
3BE
330
1F8
100
AcDbEntity
  8
Dimensions
440
 16777216
100
AcDbTrace
 10
162.54039
 20
163.960089
 30
0.0
 11
162.54039
 21
162.793422
 31
0.0
 12
166.04039
 22
163.376755
 32
0.0
 13
166.04039
 23
163.376755
 33
0.0
  0
MTEXT
  5
3BF
330
1F8
100
AcDbEntity
  8
Dimensions
440
 16777216
100
AcDbMText
 10
155.316209
 20
166.533918
 30
0.0
 40
3.5
 41
0.0
 46
0.0
 71
     5
 72
     1
  1
12
 73
     1
 44
1.0
  0
POINT
  5
3C0
330
1F8
100
AcDbEntity
  8
Defpoints
 62
     0
440
 16777216
100
AcDbPoint
 10
166.04039
 20
174.257791
 30
0.0
  0
POINT
  5
3C1
330
1F8
100
AcDbEntity
  8
Defpoints
 62
     0
440
 16777216
100
AcDbPoint
 10
172.04039
 20
174.257791
 30
0.0
  0
POINT
  5
3C2
330
1F8
100
AcDbEntity
  8
Defpoints
 62
     0
440
 16777216
100
AcDbPoint
 10
172.04039
 20
163.376755
 30
0.0
  0
ENDBLK
  5
1FA
330
1F8
100
AcDbEntity
  8
0
100
AcDbBlockEnd
  0
BLOCK
  5
207
330
206
100
AcDbEntity
  8
0
100
AcDbBlockBegin
  2
*D13
 70
     1
 10
0.0
 20
0.0
 30
0.0
  3
*D13
  1

  0
LINE
  5
3C3
330
206
100
AcDbEntity
  8
Dimensions
440
 16777216
370
    -2
100
AcDbLine
 10
166.04039
 20
172.157791
 30
0.0
 11
166.04039
 21
151.157791
 31
0.0
  0
LINE
  5
3C4
330
206
100
AcDbEntity
  8
Dimensions
440
 16777216
370
    -2
100
AcDbLine
 10
178.04039
 20
172.157791
 30
0.0
 11
178.04039
 21
151.157791
 31
0.0
  0
LINE
  5
3C5
330
206
100
AcDbEntity
  8
Dimensions
440
 16777216
370
    -2
100
AcDbLine
 10
169.54039
 20
153.257791
 30
0.0
 11
174.54039
 21
153.257791
 31
0.0
  0
SOLID
  5
3C6
330
206
100
AcDbEntity
  8
Dimensions
440
 16777216
100
AcDbTrace
 10
169.54039
 20
153.841124
 30
0.0
 11
169.54039
 21
152.674457
 31
0.0
 12
166.04039
 22
153.257791
 32
0.0
 13
166.04039
 23
153.257791
 33
0.0
  0
SOLID
  5
3C7
330
206
100
AcDbEntity
  8
Dimensions
440
 16777216
100
AcDbTrace
 10
174.54039
 20
153.841124
 30
0.0
 11
174.54039
 21
152.674457
 31
0.0
 12
178.04039
 22
153.257791
 32
0.0
 13
178.04039
 23
153.257791
 33
0.0
  0
MTEXT
  5
3C8
330
206
100
AcDbEntity
  8
Dimensions
440
 16777216
100
AcDbMText
 10
172.04039
 20
156.414953
 30
0.0
 40
3.5
 41
0.0
 46
0.0
 71
     5
 72
     1
  1
24
 73
     1
 44
1.0
  0
POINT
  5
3C9
330
206
100
AcDbEntity
  8
Defpoints
 62
     0
440
 16777216
100
AcDbPoint
 10
166.04039
 20
174.257791
 30
0.0
  0
POINT
  5
3CA
330
206
100
AcDbEntity
  8
Defpoints
 62
     0
440
 16777216
100
AcDbPoint
 10
178.04039
 20
174.257791
 30
0.0
  0
POINT
  5
3CB
330
206
100
AcDbEntity
  8
Defpoints
 62
     0
440
 16777216
100
AcDbPoint
 10
178.04039
 20
153.257791
 30
0.0
  0
ENDBLK
  5
208
330
206
100
AcDbEntity
  8
0
100
AcDbBlockEnd
  0
BLOCK
  5
213
330
212
100
AcDbEntity
  8
0
100
AcDbBlockBegin
  2
*D14
 70
     1
 10
0.0
 20
0.0
 30
0.0
  3
*D14
  1

  0
LINE
  5
3CC
330
212
100
AcDbEntity
  8
Dimensions
440
 16777216
370
    -2
100
AcDbLine
 10
180.14039
 20
174.257791
 30
0.0
 11
192.578065
 21
174.257791
 31
0.0
  0
LINE
  5
3CD
330
212
100
AcDbEntity
  8
Dimensions
440
 16777216
370
    -2
100
AcDbLine
 10
190.478065
 20
177.757791
 30
0.0
 11
190.478065
 21
181.257791
 31
0.0
  0
LINE
  5
3CE
330
212
100
AcDbEntity
  8
Dimensions
440
 16777216
370
    -2
100
AcDbLine
 10
190.478065
 20
168.157802
 30
0.0
 11
190.478065
 21
155.521513
 31
0.0
  0
LINE
  5
3CF
330
212
100
AcDbEntity
  8
Dimensions
440
 16777216
370
    -2
100
AcDbLine
 10
190.478065
 20
174.257791
 30
0.0
 11
190.478065
 21
171.657802
 31
0.0
  0
SOLID
  5
3D0
330
212
100
AcDbEntity
  8
Dimensions
440
 16777216
100
AcDbTrace
 10
189.894732
 20
177.757791
 30
0.0
 11
191.061398
 21
177.757791
 31
0.0
 12
190.478065
 22
174.257791
 32
0.0
 13
190.478065
 23
174.257791
 33
0.0
  0
SOLID
  5
3D1
330
212
100
AcDbEntity
  8
Dimensions
440
 16777216
100
AcDbTrace
 10
189.894732
 20
168.157802
 30
0.0
 11
191.061398
 21
168.157802
 31
0.0
 12
190.478065
 22
171.657802
 32
0.0
 13
190.478065
 23
171.657802
 33
0.0
  0
MTEXT
  5
3D2
330
212
100
AcDbEntity
  8
Dimensions
440
 16777216
100
AcDbMText
 10
187.29106
 20
160.089657
 30
0.0
 40
3.5
 41
0.0
 46
0.0
 71
     5
 72
     1
  1
5.2
 11
0.0
 21
1.0
 31
0.0
 73
     1
 44
1.0
  0
POINT
  5
3D3
330
212
100
AcDbEntity
  8
Defpoints
 62
     0
440
 16777216
100
AcDbPoint
 10
178.04039
 20
174.257791
 30
0.0
  0
POINT
  5
3D4
330
212
100
AcDbEntity
  8
Defpoints
 62
     0
440
 16777216
100
AcDbPoint
 10
190.478065
 20
171.657802
 30
0.0
  0
POINT
  5
3D5
330
212
100
AcDbEntity
  8
Defpoints
 62
     0
440
 16777216
100
AcDbPoint
 10
190.478065
 20
171.657802
 30
0.0
  0
ENDBLK
  5
214
330
212
100
AcDbEntity
  8
0
100
AcDbBlockEnd
  0
ENDSEC
  0
SECTION
  2
ENTITIES
  0
INSERT
  5
180
330
70
100
AcDbEntity
  8
Border
100
AcDbBlockReference
  2
ISO_A4(L)_SHEET
 10
0.0
 20
0.0
 30
0.0
  0
DIMENSION
  5
197
330
70
100
AcDbEntity
  8
Dimensions
100
AcDbDimension
280
     0
  2
*D10
 10
81.77039
 20
161.524959
 30
0.0
 11
67.91789
 21
164.711965
 31
0.0
 70
    32
 71
     5
 42
55.41
 73
     0
 74
     0
 75
     0
  3
ISO-25
100
AcDbAlignedDimension
 13
54.06539
 23
172.024959
 33
0.0
 14
81.77039
 24
174.257791
 34
0.0
100
AcDbRotatedDimension
1001
ACAD_DIMASSOC_CALC_DIMLFAC
1040
-2.0
1001
ACAD_DIMASSOC_DIMLFAC
1040
-2.0
1001
ACAD_DIMASSOC_OVERRIDDEN_DIMLFAC
1040
0.0
1001
ACAD_TC
1000
DSTYLE_TC
1002
{
1070
   177
1004
18000000020000008C8C8CC2000000000000000000000000
1070
   176
1004
18000000020000008C8C8CC2000000000000000000000000
1002
}
1001
ACAD_DSTYLE_DIMJAG_POSITION
1070
   387
1070
     0
1070
   389
1010
0.0
1020
0.0
1030
0.0
1001
ACAD
1000
DSTYLE
1002
{
1070
   177
1070
   256
1070
   176
1070
   256
1070
   144
1040
2.0
1002
}
  0
DIMENSION
  5
1A5
330
70
100
AcDbEntity
  8
Dimensions
100
AcDbDimension
280
     0
  2
*D11
 10
166.04039
 20
151.024959
 30
0.0
 11
110.05289
 21
154.213158
 31
0.0
 70
    32
 71
     5
 42
223.95
 73
     0
 74
     0
 75
     0
  3
ISO-25
100
AcDbAlignedDimension
 13
54.06539
 23
172.024959
 33
0.0
 14
166.04039
 24
174.257791
 34
0.0
100
AcDbRotatedDimension
1001
ACAD_DIMASSOC_CALC_DIMLFAC
1040
-2.0
1001
ACAD_DIMASSOC_DIMLFAC
1040
-2.0
1001
ACAD_DIMASSOC_OVERRIDDEN_DIMLFAC
1040
0.0
1001
ACAD_DSTYLE_DIMJAG_POSITION
1070
   387
1070
     0
1070
   389
1010
0.0
1020
0.0
1030
0.0
1001
ACAD
1000
DSTYLE
1002
{
1070
   144
1040
2.0
1002
}
  0
DIMENSION
  5
1B2
330
70
100
AcDbEntity
  8
Dimensions
100
AcDbDimension
280
     0
  2
*D12
 10
172.04039
 20
163.376755
 30
0.0
 11
155.316209
 21
163.376755
 31
0.0
 70
   161
 71
     5
 42
12.0
 73
     0
 74
     0
 75
     0
  3
ISO-25
100
AcDbAlignedDimension
 13
166.04039
 23
174.257791
 33
0.0
 14
172.04039
 24
174.257791
 34
0.0
1001
ACAD_DIMASSOC_CALC_DIMLFAC
1040
-2.0
1001
ACAD_DIMASSOC_DIMLFAC
1040
-2.0
1001
ACAD_DIMASSOC_OVERRIDDEN_DIMLFAC
1040
0.0
1001
ACAD_DSTYLE_DIMJAG_POSITION
1070
   387
1070
     0
1070
   389
1010
0.0
1020
0.0
1030
0.0
1001
ACAD
1000
DSTYLE
1002
{
1070
   144
1040
2.0
1002
}
  0
DIMENSION
  5
1C1
330
70
100
AcDbEntity
  8
Dimensions
100
AcDbDimension
280
     0
  2
*D13
 10
178.04039
 20
153.257791
 30
0.0
 11
172.04039
 21
156.414953
 31
0.0
 70
    33
 71
     5
 42
24.0
 73
     0
 74
     0
 75
     0
  3
ISO-25
100
AcDbAlignedDimension
 13
166.04039
 23
174.257791
 33
0.0
 14
178.04039
 24
174.257791
 34
0.0
1001
ACAD_DIMASSOC_CALC_DIMLFAC
1040
-2.0
1001
ACAD_DIMASSOC_DIMLFAC
1040
-2.0
1001
ACAD_DIMASSOC_OVERRIDDEN_DIMLFAC
1040
0.0
1001
ACAD_TC
1000
DSTYLE_TC
1002
{
1070
   176
1004
18000000020000008C8C8CC2000000000000000000000000
1070
   177
1004
18000000020000008C8C8CC2000000000000000000000000
1002
}
1001
ACAD_DSTYLE_DIMJAG_POSITION
1070
   387
1070
     0
1070
   389
1010
0.0
1020
0.0
1030
0.0
1001
ACAD
1000
DSTYLE
1002
{
1070
   144
1040
2.0
1070
   176
1070
   256
1070
   177
1070
   256
1002
}
  0
DIMENSION
  5
1CE
330
70
100
AcDbEntity
  8
Dimensions
100
AcDbDimension
280
     0
  2
*D14
 10
190.478065
 20
171.657802
 30
0.0
 11
187.29106
 21
160.089657
 31
0.0
 70
    32
 71
     5
 42
5.199978
 73
     0
 74
     0
 75
     0
  3
ISO-25
100
AcDbAlignedDimension
 13
178.04039
 23
174.257791
 33
0.0
 14
190.478065
 24
171.657802
 34
0.0
 50
270.0
100
AcDbRotatedDimension
1001
ACAD_DIMASSOC_CALC_DIMLFAC
1040
-2.0
1001
ACAD_DIMASSOC_DIMLFAC
1040
-2.0
1001
ACAD_DIMASSOC_OVERRIDDEN_DIMLFAC
1040
0.0
1001
ACAD_TC
1000
DSTYLE_TC
1002
{
1070
   176
1004
18000000020000008C8C8CC2000000000000000000000000
1070
   177
1004
18000000020000008C8C8CC2000000000000000000000000
1002
}
1001
ACAD_DSTYLE_DIMJAG_POSITION
1070
   387
1070
     0
1070
   389
1010
0.0
1020
0.0
1030
0.0
1001
ACAD
1000
DSTYLE
1002
{
1070
   144
1040
2.0
1070
   176
1070
   256
1070
   177
1070
   256
1002
}
  0
MTEXT
  5
1DC
330
70
100
AcDbEntity
  8
Annotations
100
AcDbMText
 10
226.719254
 20
33.480507
 30
0.0
 40
3.5
 41
69.557837
 46
0.0
 71
     1
 72
     5
  1
ELMA 66-535-38\PMechanical modification\Pand printing
 73
     1
 44
1.0
1001
ACAD
1000
ACAD_MTEXT_COLUMN_INFO_BEGIN
1070
    75
1070
     2
1070
    79
1070
     0
1070
    76
1070
     1
1070
    78
1070
     0
1070
    48
1040
69.557837
1070
    49
1040
17.5
1070
    50
1070
     1
1040
0.0
1000
ACAD_MTEXT_COLUMN_INFO_END
  0
MULTILEADER
  5
1DE
330
70
100
AcDbEntity
  8
Annotations
160
               704
310
C0020000190000000C00000016000000000000C00C00000033000000000000000C00000013000000993A0000C000000026000000B159625805265840DD306CDB517F6440000000000000000000000000000000000000000000000000000000000000F03F000000000000F03F00000000000000000000000000000000340078
310
002000640033006D006D00000007000000010000000000000000000C40000000000000F03F0000000000000000000000000000F03F00000000000000000000000000000000000000000000000000000000010000002200000041007200690061006C00000000000100000000000C00000033000000000000000C0000001000
310
0000090000000C00000016000000000000C00C00000012000000FF7F00000C00000013000000010000000C0000001400000001000000540000000700000003000000023F5636431355402FFFD31A42596540000000000000000040FC67D579895440EC1590A783B36540000000000000000049E93FED5B465540D52D8F0F7B
310
74654000000000000000000C00000014000000010000000C00000013000000891300003C00000006000000020000002614CB91CF2C554082963195DE666540000000000000000060D6395CFE49574076CA0575EB68644000000000000000000C00000013000000112700003C000000060000000200000060D6395CFE495740
310
76CA0575EB686440000000000000000060D6395CFE29584076CA0575EB68644000000000000000000C00000016000000000000C00C00000012000000FF7F00000C00000017000000000000000C000000130000009A3A00003C000000060000000200000060D6395CFE29584076CA0575EB6864400000000000000000920628
310
ABB4185D4076CA0575EB68644000000000000000000C00000016000000000000C00C00000012000000FF7F00000C00000017000000FFFFFFFF0C0000003300000000000000
100
AcDbMLeader
270
     2
300
CONTEXT_DATA{
 40
1.0
 10
96.65615
 20
163.278742
 30
0.0
 41
3.5
140
3.5
145
0.0
174
     5
175
     5
176
     0
177
     0
290
     1
304
4x d3mm
 11
0.0
 21
0.0
 31
1.0
340
55
 12
96.65615
 22
167.493067
 32
0.0
 13
1.0
 23
0.0
 33
0.0
 42
0.0
 43
0.0
 44
0.0
 45
1.0
170
     1
 90
-1073741824
171
     1
172
     5
 91
-1073741824
141
0.0
 92
        0
291
     0
292
     0
173
     0
293
     0
142
0.0
143
0.0
294
     0
295
     0
296
     0
110
82.148061
120
173.609821
130
0.0
111
1.0
121
0.0
131
0.0
112
0.0
122
1.0
132
0.0
297
     0
302
LEADER{
290
     1
291
     1
 10
93.15615
 20
163.278742
 30
0.0
 11
1.0
 21
0.0
 31
0.0
 90
        0
 40
3.5
304
LEADER_LINE{
 10
82.148061
 20
173.609821
 30
0.0
 91
        0
305
}
271
     0
303
}
272
     9
273
     9
301
}
340
67
 90
   279552
170
     1
 91
-1056964608
341
5B
171
    -2
290
     1
291
     1
 41
3.5
 42
3.5
172
     2
343
55
173
     5
 95
        5
174
     1
175
     0
 92
-1056964608
292
     0
 93
-1056964608
 10
1.0
 20
1.0
 30
1.0
 43
0.0
176
     0
293
     0
294
     0
178
     0
179
     1
 45
1.0
271
     0
272
     9
273
     9
295
     0
  0
ARC
  5
2B0
330
70
100
AcDbEntity
  8
Sichtbar
100
AcDbCircle
 10
-248.459227
 20
185.887791
 30
0.0
 40
0.2500000000000003
210
0.0000000000000001
220
0.0
230
-1.0
100
AcDbArc
 50
70.0
 51
90.0
  0
LINE
  5
2B1
330
70
100
AcDbEntity
  8
Sichtbar
100
AcDbLine
 10
252.348128
 20
185.512802
 30
0.0
 11
247.548695
 21
185.512802
 31
0.0
210
0.0
220
1.0
230
0.0
  0
ARC
  5
2B2
330
70
100
AcDbEntity
  8
Sichtbar
100
AcDbCircle
 10
253.373128
 20
185.487214
 30
0.0
 40
0.1500000000000002
100
AcDbArc
 50
109.471221
 51
180.0
  0
ARC
  5
2B3
330
70
100
AcDbEntity
  8
Sichtbar
100
AcDbCircle
 10
-253.273128
 20
185.987791
 30
0.0
 40
0.1500000000000001
210
0.0000000000000001
220
0.0
230
-1.0
100
AcDbArc
 50
90.0
 51
180.0
  0
LINE
  5
2B4
330
70
100
AcDbEntity
  8
Sichtbar
100
AcDbLine
 10
252.032936
 20
171.657802
 30
0.0
 11
253.273128
 21
171.657802
 31
0.0
210
0.0
220
1.0
230
0.0
  0
LINE
  5
2B5
330
70
100
AcDbEntity
  8
Sichtbar
100
AcDbLine
 10
248.373722
 20
186.122714
 30
0.0
 11
247.497392
 21
185.803755
 31
0.0
210
0.0
220
1.0
230
0.0
  0
LINE
  5
2B6
330
70
100
AcDbEntity
  8
Sichtbar
100
AcDbLine
 10
253.223128
 20
184.387791
 30
0.0
 11
253.223128
 21
183.637791
 31
0.0
210
0.0
220
1.0
230
0.0
  0
LINE
  5
2B7
330
70
100
AcDbEntity
  8
Sichtbar
100
AcDbLine
 10
252.598128
 20
184.387791
 30
0.0
 11
252.598128
 21
183.637791
 31
0.0
210
0.0
220
1.0
230
0.0
  0
LINE
  5
2B8
330
70
100
AcDbEntity
  8
Sichtbar
100
AcDbLine
 10
253.223128
 20
183.637791
 30
0.0
 11
252.598128
 21
183.637791
 31
0.0
210
0.0
220
1.0
230
0.0
  0
LINE
  5
2B9
330
70
100
AcDbEntity
  8
Sichtbar
100
AcDbLine
 10
251.773128
 20
171.807802
 30
0.0
 11
248.173128
 21
171.807802
 31
0.0
210
0.0
220
1.0
230
0.0
  0
ARC
  5
2BA
330
70
100
AcDbEntity
  8
Sichtbar
100
AcDbCircle
 10
-251.773128
 20
171.657802
 30
0.0
 40
0.1500000000000001
210
0.0000000000000001
220
0.0
230
-1.0
100
AcDbArc
 50
90.0
 51
150.0
  0
ARC
  5
2BB
330
70
100
AcDbEntity
  8
Sichtbar
100
AcDbCircle
 10
253.373128
 20
172.307802
 30
0.0
 40
0.1500000000000001
100
AcDbArc
 50
180.0
 51
250.528779
  0
LINE
  5
2BC
330
70
100
AcDbEntity
  8
Sichtbar
100
AcDbLine
 10
252.598128
 20
178.387791
 30
0.0
 11
252.598128
 21
172.532802
 31
0.0
210
0.0
220
1.0
230
0.0
  0
LINE
  5
2BD
330
70
100
AcDbEntity
  8
Sichtbar
100
AcDbLine
 10
252.598128
 20
178.387791
 30
0.0
 11
252.598128
 21
179.137791
 31
0.0
210
0.0
220
1.0
230
0.0
  0
LINE
  5
2BE
330
70
100
AcDbEntity
  8
Sichtbar
100
AcDbLine
 10
252.598128
 20
183.637791
 30
0.0
 11
252.598128
 21
179.137791
 31
0.0
210
0.0
220
1.0
230
0.0
  0
LINE
  5
2BF
330
70
100
AcDbEntity
  8
Sichtbar
100
AcDbLine
 10
252.598128
 20
184.387791
 30
0.0
 11
252.598128
 21
185.262802
 31
0.0
210
0.0
220
1.0
230
0.0
  0
LINE
  5
2C0
330
70
100
AcDbEntity
  8
Sichtbar
100
AcDbLine
 10
253.223128
 20
186.137791
 30
0.0
 11
248.459227
 21
186.137791
 31
0.0
210
0.0
220
1.0
230
0.0
  0
LINE
  5
2C1
330
70
100
AcDbEntity
  8
Sichtbar
100
AcDbLine
 10
253.273128
 20
186.137791
 30
0.0
 11
253.223128
 21
186.137791
 31
0.0
210
0.0
220
1.0
230
0.0
  0
ARC
  5
2C2
330
70
100
AcDbEntity
  8
Sichtbar
100
AcDbCircle
 10
-247.913321
 20
171.807802
 30
0.0
 40
0.1500000000000001
210
0.0000000000000001
220
0.0
230
-1.0
100
AcDbArc
 50
210.0
 51
270.0
  0
ARC
  5
2C3
330
70
100
AcDbEntity
  8
Sichtbar
100
AcDbCircle
 10
-252.348128
 20
172.532802
 30
0.0
 40
0.2500000000000003
210
0.0000000000000001
220
0.0
230
-1.0
100
AcDbArc
 50
180.0
 51
270.0
  0
LINE
  5
2C4
330
70
100
AcDbEntity
  8
Sichtbar
100
AcDbLine
 10
245.338197
 20
171.672878
 30
0.0
 11
244.461836
 21
171.991848
 31
0.0
210
0.0
220
1.0
230
0.0
  0
LINE
  5
2C5
330
70
100
AcDbEntity
  8
Sichtbar
100
AcDbLine
 10
253.223128
 20
184.387791
 30
0.0
 11
253.223128
 21
186.137791
 31
0.0
210
0.0
220
1.0
230
0.0
  0
LINE
  5
2C6
330
70
100
AcDbEntity
  8
Sichtbar
100
AcDbLine
 10
253.223128
 20
183.637791
 30
0.0
 11
253.223128
 21
179.137791
 31
0.0
210
0.0
220
1.0
230
0.0
  0
LINE
  5
2C7
330
70
100
AcDbEntity
  8
Sichtbar
100
AcDbLine
 10
253.223128
 20
178.387791
 30
0.0
 11
253.223128
 21
179.137791
 31
0.0
210
0.0
220
1.0
230
0.0
  0
LINE
  5
2C8
330
70
100
AcDbEntity
  8
Sichtbar
100
AcDbLine
 10
253.223128
 20
172.307802
 30
0.0
 11
253.223128
 21
178.387791
 31
0.0
210
0.0
220
1.0
230
0.0
  0
ARC
  5
2C9
330
70
100
AcDbEntity
  8
Sichtbar
100
AcDbCircle
 10
-244.513139
 20
172.132802
 30
0.0
 40
0.1500000000000001
210
0.0000000000000001
220
0.0
230
-1.0
100
AcDbArc
 50
290.0
 51
90.0
  0
ARC
  5
2CA
330
70
100
AcDbEntity
  8
Sichtbar
100
AcDbCircle
 10
245.423702
 20
171.907802
 30
0.0
 40
0.2500000000000003
100
AcDbArc
 50
250.0
 51
270.0
  0
LINE
  5
2CB
330
70
100
AcDbEntity
  8
Sichtbar
100
AcDbLine
 10
253.423128
 20
185.770056
 30
0.0
 11
253.423128
 21
185.987791
 31
0.0
210
0.0
220
1.0
230
0.0
  0
ARC
  5
2CC
330
70
100
AcDbEntity
  8
Sichtbar
100
AcDbCircle
 10
-252.348128
 20
185.262802
 30
0.0
 40
0.2500000000000003
210
0.0000000000000001
220
0.0
230
-1.0
100
AcDbArc
 50
90.0
 51
180.0
  0
ARC
  5
2CD
330
70
100
AcDbEntity
  8
Sichtbar
100
AcDbCircle
 10
-247.548695
 20
185.662802
 30
0.0
 40
0.1500000000000001
210
0.0000000000000001
220
0.0
230
-1.0
100
AcDbArc
 50
270.0
 51
70.0
  0
ARC
  5
2CE
330
70
100
AcDbEntity
  8
Sichtbar
100
AcDbCircle
 10
252.032936
 20
171.807802
 30
0.0
 40
0.1500000000000001
100
AcDbArc
 50
210.0
 51
270.0
  0
LINE
  5
2CF
330
70
100
AcDbEntity
  8
Sichtbar
100
AcDbLine
 10
253.423128
 20
171.807802
 30
0.0
 11
253.423128
 21
172.024959
 31
0.0
210
0.0
220
1.0
230
0.0
  0
ARC
  5
2D0
330
70
100
AcDbEntity
  8
Sichtbar
100
AcDbCircle
 10
253.273128
 20
185.770056
 30
0.0
 40
0.1500000000003214
100
AcDbArc
 50
289.471221
 51
360.0
  0
LINE
  5
2D1
330
70
100
AcDbEntity
  8
Sichtbar
100
AcDbLine
 10
245.423702
 20
171.657802
 30
0.0
 11
247.913321
 21
171.657802
 31
0.0
210
0.0
220
1.0
230
0.0
  0
LINE
  5
2D2
330
70
100
AcDbEntity
  8
Sichtbar
100
AcDbLine
 10
252.348128
 20
172.282802
 30
0.0
 11
244.513139
 21
172.282802
 31
0.0
210
0.0
220
1.0
230
0.0
  0
ARC
  5
2D3
330
70
100
AcDbEntity
  8
Sichtbar
100
AcDbCircle
 10
253.273128
 20
172.024959
 30
0.0
 40
0.149999999999999
100
AcDbArc
 50
0.0
 51
70.528779
  0
ARC
  5
2D4
330
70
100
AcDbEntity
  8
Sichtbar
100
AcDbCircle
 10
248.173128
 20
171.657802
 30
0.0
 40
0.1500000000000001
100
AcDbArc
 50
90.0
 51
150.0
  0
ARC
  5
2D5
330
70
100
AcDbEntity
  8
Sichtbar
100
AcDbCircle
 10
253.273128
 20
171.807802
 30
0.0
 40
0.1500000000000001
100
AcDbArc
 50
270.0
 51
0.0
  0
LINE
  5
2D6
330
70
100
AcDbEntity
  8
Sichtbar
100
AcDbLine
 10
252.598128
 20
178.387791
 30
0.0
 11
253.223128
 21
178.387791
 31
0.0
210
0.0
220
1.0
230
0.0
  0
CIRCLE
  5
2D7
330
70
100
AcDbEntity
  8
Sichtbar
100
AcDbCircle
 10
-166.04039
 20
174.257791
 30
0.0
 40
0.7500000000000026
210
-0.0000000000000002
220
0.0
230
-1.0
  0
CIRCLE
  5
2D8
330
70
100
AcDbEntity
  8
Sichtbar
100
AcDbCircle
 10
-172.04039
 20
174.257791
 30
0.0
 40
0.7500000000000026
210
-0.0000000000000002
220
0.0
230
-1.0
  0
CIRCLE
  5
2D9
330
70
100
AcDbEntity
  8
Sichtbar
100
AcDbCircle
 10
-81.77039
 20
174.257791
 30
0.0
 40
0.7500000000000026
210
-0.0000000000000002
220
0.0
230
-1.0
  0
CIRCLE
  5
2DA
330
70
100
AcDbEntity
  8
Sichtbar
100
AcDbCircle
 10
-178.04039
 20
174.257791
 30
0.0
 40
0.7500000000000026
210
-0.0000000000000002
220
0.0
230
-1.0
  0
LINE
  5
2DB
330
70
100
AcDbEntity
  8
Sichtbar
100
AcDbLine
 10
54.06539
 20
185.628635
 30
0.0
 11
54.06539
 21
185.487214
 31
0.0
210
0.0
220
1.0
230
0.0
  0
LINE
  5
2DC
330
70
100
AcDbEntity
  8
Sichtbar
100
AcDbLine
 10
205.77039
 20
185.628635
 30
0.0
 11
205.77039
 21
185.487214
 31
0.0
210
0.0
220
1.0
230
0.0
  0
LINE
  5
2DD
330
70
100
AcDbEntity
  8
Sichtbar
100
AcDbLine
 10
205.77039
 20
185.987791
 30
0.0
 11
205.77039
 21
186.137791
 31
0.0
210
0.0
220
1.0
230
0.0
  0
LINE
  5
2DE
330
70
100
AcDbEntity
  8
Sichtbar
100
AcDbLine
 10
54.06539
 20
186.137791
 30
0.0
 11
205.77039
 21
186.137791
 31
0.0
210
0.0
220
1.0
230
0.0
  0
LINE
  5
2DF
330
70
100
AcDbEntity
  8
Sichtbar
100
AcDbLine
 10
54.06539
 20
185.987791
 30
0.0
 11
54.06539
 21
186.137791
 31
0.0
210
0.0
220
1.0
230
0.0
  0
LINE
  5
2E0
330
70
100
AcDbEntity
  8
Sichtbar
100
AcDbLine
 10
205.77039
 20
171.657802
 30
0.0
 11
54.06539
 21
171.657802
 31
0.0
210
0.0
220
1.0
230
0.0
  0
ARC
  5
2E1
330
70
100
AcDbEntity
  8
Sichtbar
100
AcDbCircle
 10
-50.642837
 20
184.387791
 30
0.0
 40
0.7500000000000009
210
-0.0000000000000002
220
0.0
230
-1.0
100
AcDbArc
 50
270.0
 51
0.0
  0
LINE
  5
2E2
330
70
100
AcDbEntity
  8
Sichtbar
100
AcDbLine
 10
205.77039
 20
185.262791
 30
0.0
 11
206.57039
 21
185.262791
 31
0.0
210
0.0
220
1.0
230
0.0
  0
LINE
  5
2E3
330
70
100
AcDbEntity
  8
Sichtbar
100
AcDbLine
 10
205.77039
 20
172.307802
 30
0.0
 11
205.77039
 21
172.166381
 31
0.0
210
0.0
220
1.0
230
0.0
  0
LINE
  5
2E4
330
70
100
AcDbEntity
  8
Sichtbar
100
AcDbLine
 10
54.06539
 20
172.307802
 30
0.0
 11
54.06539
 21
172.166381
 31
0.0
210
0.0
220
1.0
230
0.0
  0
LINE
  5
2E5
330
70
100
AcDbEntity
  8
Sichtbar
100
AcDbLine
 10
209.942944
 20
184.252512
 30
0.0
 11
209.942944
 21
186.137791
 31
0.0
210
0.0
220
1.0
230
0.0
  0
LINE
  5
2E6
330
70
100
AcDbEntity
  8
Sichtbar
100
AcDbLine
 10
205.77039
 20
186.137791
 30
0.0
 11
209.942944
 21
186.137791
 31
0.0
210
0.0
220
1.0
230
0.0
  0
LINE
  5
2E7
330
70
100
AcDbEntity
  8
Sichtbar
100
AcDbLine
 10
49.892837
 20
186.137791
 30
0.0
 11
54.06539
 21
186.137791
 31
0.0
210
0.0
220
1.0
230
0.0
  0
LINE
  5
2E8
330
70
100
AcDbEntity
  8
Sichtbar
100
AcDbLine
 10
208.141449
 20
179.137802
 30
0.0
 11
208.141449
 21
183.637791
 31
0.0
210
0.0
220
1.0
230
0.0
  0
LINE
  5
2E9
330
70
100
AcDbEntity
  8
Sichtbar
100
AcDbLine
 10
208.141449
 20
183.637791
 30
0.0
 11
209.205245
 21
183.637791
 31
0.0
210
0.0
220
1.0
230
0.0
  0
ARC
  5
2EA
330
70
100
AcDbEntity
  8
Sichtbar
100
AcDbCircle
 10
-209.205245
 20
184.387791
 30
0.0
 40
0.75
210
-0.0000000000000002
220
0.0
230
-1.0
100
AcDbArc
 50
190.391378
 51
270.0
  0
LINE
  5
2EB
330
70
100
AcDbEntity
  8
Sichtbar
100
AcDbLine
 10
49.892837
 20
184.387791
 30
0.0
 11
49.892837
 21
186.137791
 31
0.0
210
0.0
220
1.0
230
0.0
  0
LINE
  5
2EC
330
70
100
AcDbEntity
  8
Sichtbar
100
AcDbLine
 10
50.642837
 20
183.637791
 30
0.0
 11
51.694332
 21
183.637791
 31
0.0
210
0.0
220
1.0
230
0.0
  0
LINE
  5
2ED
330
70
100
AcDbEntity
  8
Sichtbar
100
AcDbLine
 10
51.694332
 20
183.637791
 30
0.0
 11
51.694332
 21
179.137791
 31
0.0
210
0.0
220
1.0
230
0.0
  0
ARC
  5
2EE
330
70
100
AcDbEntity
  8
Sichtbar
100
AcDbCircle
 10
52.444332
 20
179.137791
 30
0.0
 40
0.75
100
AcDbArc
 50
180.0
 51
270.0
  0
LINE
  5
2EF
330
70
100
AcDbEntity
  8
Sichtbar
100
AcDbLine
 10
54.06539
 20
178.387791
 30
0.0
 11
52.444332
 21
178.387791
 31
0.0
210
0.0
220
1.0
230
0.0
  0
LINE
  5
2F0
330
70
100
AcDbEntity
  8
Sichtbar
100
AcDbLine
 10
54.06539
 20
172.307802
 30
0.0
 11
54.06539
 21
178.387791
 31
0.0
210
0.0
220
1.0
230
0.0
  0
LINE
  5
2F1
330
70
100
AcDbEntity
  8
Sichtbar
100
AcDbLine
 10
205.77039
 20
178.387802
 30
0.0
 11
205.77039
 21
172.307802
 31
0.0
210
0.0
220
1.0
230
0.0
  0
LINE
  5
2F2
330
70
100
AcDbEntity
  8
Sichtbar
100
AcDbLine
 10
207.391449
 20
178.387802
 30
0.0
 11
205.77039
 21
178.387802
 31
0.0
210
0.0
220
1.0
230
0.0
  0
ARC
  5
2F3
330
70
100
AcDbEntity
  8
Sichtbar
100
AcDbCircle
 10
-207.391449
 20
179.137802
 30
0.0
 40
0.75
210
-0.0000000000000002
220
0.0
230
-1.0
100
AcDbArc
 50
180.0
 51
270.0
  0
LINE
  5
2F4
330
70
100
AcDbEntity
  8
Sichtbar
100
AcDbLine
 10
54.06539
 20
183.012791
 30
0.0
 11
54.06539
 21
185.262791
 31
0.0
210
0.0
220
1.0
230
0.0
  0
LINE
  5
2F5
330
70
100
AcDbEntity
  8
Sichtbar
100
AcDbLine
 10
54.06539
 20
183.012791
 30
0.0
 11
53.26539
 21
183.012791
 31
0.0
210
0.0
220
1.0
230
0.0
  0
LINE
  5
2F6
330
70
100
AcDbEntity
  8
Sichtbar
100
AcDbLine
 10
53.26539
 20
183.012791
 30
0.0
 11
53.26539
 21
185.262791
 31
0.0
210
0.0
220
1.0
230
0.0
  0
LINE
  5
2F7
330
70
100
AcDbEntity
  8
Sichtbar
100
AcDbLine
 10
53.26539
 20
185.262791
 30
0.0
 11
54.06539
 21
185.262791
 31
0.0
210
0.0
220
1.0
230
0.0
  0
CIRCLE
  5
2F8
330
70
100
AcDbEntity
  8
Sichtbar
100
AcDbCircle
 10
52.967553
 20
181.286129
 30
0.0
 40
0.6875000000000007
  0
CIRCLE
  5
2F9
330
70
100
AcDbEntity
  8
Sichtbar
100
AcDbCircle
 10
-206.868228
 20
181.28614
 30
0.0
 40
0.6875000000000007
210
-0.0000000000000002
220
0.0
230
-1.0
  0
LINE
  5
2FA
330
70
100
AcDbEntity
  8
Sichtbar
100
AcDbLine
 10
206.57039
 20
183.012791
 30
0.0
 11
205.77039
 21
183.012791
 31
0.0
210
0.0
220
1.0
230
0.0
  0
LINE
  5
2FB
330
70
100
AcDbEntity
  8
Sichtbar
100
AcDbLine
 10
205.77039
 20
185.262791
 30
0.0
 11
205.77039
 21
183.012791
 31
0.0
210
0.0
220
1.0
230
0.0
  0
LINE
  5
2FC
330
70
100
AcDbEntity
  8
Sichtbar
100
AcDbLine
 10
206.57039
 20
185.262791
 30
0.0
 11
206.57039
 21
183.012791
 31
0.0
210
0.0
220
1.0
230
0.0
  0
LINE
  5
2FD
330
70
100
AcDbEntity
  8
Sichtbar
100
AcDbLine
 10
205.77039
 20
185.987791
 30
0.0
 11
205.77039
 21
185.770057
 31
0.0
210
0.0
220
1.0
230
0.0
  0
LINE
  5
2FE
330
70
100
AcDbEntity
  8
Sichtbar
100
AcDbLine
 10
54.06539
 20
185.770057
 30
0.0
 11
54.06539
 21
185.987791
 31
0.0
210
0.0
220
1.0
230
0.0
  0
LINE
  5
2FF
330
70
100
AcDbEntity
  8
Sichtbar
100
AcDbLine
 10
205.77039
 20
185.628635
 30
0.0
 11
205.77039
 21
185.770057
 31
0.0
210
0.0
220
1.0
230
0.0
  0
LINE
  5
300
330
70
100
AcDbEntity
  8
Sichtbar
100
AcDbLine
 10
54.06539
 20
171.807802
 30
0.0
 11
54.06539
 21
172.024959
 31
0.0
210
0.0
220
1.0
230
0.0
  0
LINE
  5
301
330
70
100
AcDbEntity
  8
Sichtbar
100
AcDbLine
 10
205.77039
 20
172.024959
 30
0.0
 11
205.77039
 21
171.807802
 31
0.0
210
0.0
220
1.0
230
0.0
  0
LINE
  5
302
330
70
100
AcDbEntity
  8
Sichtbar
100
AcDbLine
 10
54.06539
 20
185.770057
 30
0.0
 11
54.06539
 21
185.628635
 31
0.0
210
0.0
220
1.0
230
0.0
  0
LINE
  5
303
330
70
100
AcDbEntity
  8
Sichtbar
100
AcDbLine
 10
205.77039
 20
171.807802
 30
0.0
 11
205.77039
 21
171.657802
 31
0.0
210
0.0
220
1.0
230
0.0
  0
LINE
  5
304
330
70
100
AcDbEntity
  8
Sichtbar
100
AcDbLine
 10
205.77039
 20
172.024959
 30
0.0
 11
205.77039
 21
172.166381
 31
0.0
210
0.0
220
1.0
230
0.0
  0
LINE
  5
305
330
70
100
AcDbEntity
  8
Sichtbar
100
AcDbLine
 10
54.06539
 20
172.166381
 30
0.0
 11
54.06539
 21
172.024959
 31
0.0
210
0.0
220
1.0
230
0.0
  0
LINE
  5
306
330
70
100
AcDbEntity
  8
Sichtbar
100
AcDbLine
 10
54.06539
 20
171.807802
 30
0.0
 11
54.06539
 21
171.657802
 31
0.0
210
0.0
220
1.0
230
0.0
  0
ELLIPSE
  5
307
330
70
100
AcDbEntity
  8
Sichtbar
100
AcDbEllipse
 10
136.401494
 20
107.403871
 30
0.0
 11
0.3742741586871614
 21
0.6499375771085961
 31
0.0000000000000001
210
-0.0000000000000001
220
-0.0000000000000001
230
1.0
 40
0.5780931159163587
 41
3.7703243987685
 42
5.654453562000351
  0
ELLIPSE
  5
308
330
70
100
AcDbEntity
  8
Sichtbar
100
AcDbEllipse
 10
136.843436
 20
107.149374
 30
0.0
 11
0.3742741586875534
 21
0.6499375771094438
 31
0.0
210
0.0000000000000001
220
-0.0000000000000001
230
-1.0
 40
0.5780931159148935
 41
1.570796326796298
 42
7.853981633975884
  0
ELLIPSE
  5
309
330
70
100
AcDbEntity
  8
Sichtbar
100
AcDbEllipse
 10
140.644135
 20
109.847045
 30
0.0
 11
0.3742741586875581
 21
0.6499375771078268
 31
0.0000000000000001
210
-0.0000000000000001
220
-0.0000000000000001
230
1.0
 40
0.5780931159167105
 41
3.770324398767618
 42
5.654453562002665
  0
ELLIPSE
  5
30A
330
70
100
AcDbEntity
  8
Sichtbar
100
AcDbEllipse
 10
141.086076
 20
109.592548
 30
0.0
 11
0.3742741586891543
 21
0.6499375771087492
 31
0.0
210
0.0000000000000001
220
-0.0000000000000001
230
-1.0
 40
0.5780931159154898
 41
1.570796326793831
 42
7.853981633973417
  0
ELLIPSE
  5
30B
330
70
100
AcDbEntity
  8
Sichtbar
100
AcDbEllipse
 10
76.813606
 20
73.089488
 30
0.0
 11
0.3742741586869899
 21
0.6499375771088324
 31
0.0000000000000001
210
-0.0000000000000001
220
-0.0000000000000001
230
1.0
 40
0.5780931159164179
 41
3.770324398768038
 42
5.654453561999926
  0
ELLIPSE
  5
30C
330
70
100
AcDbEntity
  8
Sichtbar
100
AcDbEllipse
 10
77.255547
 20
72.834991
 30
0.0
 11
0.3742741586894536
 21
0.6499375771085908
 31
0.0
210
0.0000000000000001
220
-0.0000000000000001
230
-0.9999999999999998
 40
0.5780931159156318
 41
1.570796326793833
 42
7.853981633973419
  0
ELLIPSE
  5
30D
330
70
100
AcDbEntity
  8
Sichtbar
100
AcDbEllipse
 10
144.886775
 20
112.29022
 30
0.0
 11
0.3742741586880207
 21
0.649937577109001
 31
0.0000000000000001
210
-0.0000000000000001
220
-0.0000000000000001
230
0.9999999999999998
 40
0.5780931159139586
 41
3.770324398767844
 42
5.654453561999339
  0
ELLIPSE
  5
30E
330
70
100
AcDbEntity
  8
Sichtbar
100
AcDbEllipse
 10
145.328717
 20
112.035722
 30
0.0
 11
0.3742741586892795
 21
0.6499375771084637
 31
0.0
210
0.0000000000000001
220
-0.0000000000000001
230
-1.0
 40
0.5780931159157836
 41
1.5707963267939
 42
7.853981633973487
  0
LINE
  5
30F
330
70
100
AcDbEntity
  8
Sichtbar schmal
100
AcDbLine
 10
51.285665
 20
71.529379
 30
0.0
 11
164.458181
 21
136.701097
 31
0.0
210
-0.0000000000000001
220
0.8175471248425395
230
0.5758617009853119
  0
ELLIPSE
  5
310
330
70
100
AcDbEntity
  8
Sichtbar
100
AcDbEllipse
 10
51.346126
 20
71.302501
 30
0.0
 11
-0.1247580529089506
 21
0.2166458590343805
 31
0.0
210
0.0000000000000001
220
0.0
230
-0.9999999999999998
 40
0.5780931159286831
 41
0.4343986046473716
 42
0.783464455024487
  0
LINE
  5
311
330
70
100
AcDbEntity
  8
Sichtbar schmal
100
AcDbLine
 10
51.346126
 20
71.506888
 30
0.0
 11
164.518642
 21
136.678605
 31
0.0
210
-0.0000000000000001
220
0.8175471248425395
230
0.5758617009853119
  0
ELLIPSE
  5
312
330
70
100
AcDbEntity
  8
Sichtbar
100
AcDbEllipse
 10
164.518642
 20
136.474219
 30
0.0
 11
-0.1247580528953905
 21
0.2166458590370988
 31
0.0
210
0.0000000000000002
220
-0.0000000000000001
230
-1.0
 40
0.5780931159067995
 41
0.434398604570403
 42
0.7834644549725059
  0
LINE
  5
313
330
70
100
AcDbEntity
  8
Sichtbar
100
AcDbLine
 10
54.095995
 20
69.412386
 30
0.0
 11
50.702283
 21
71.366695
 31
0.0
210
-0.0000000000000001
220
0.8175471248425395
230
0.5758617009853119
  0
ELLIPSE
  5
314
330
70
100
AcDbEntity
  8
Sichtbar
100
AcDbEllipse
 10
57.77122
 20
70.673137
 30
0.0
 11
-0.0748548317381975
 21
0.1299875154221682
 31
0.0
210
-0.0000000000000002
220
-0.0000000000000001
230
1.0
 40
0.5780931159089893
 41
-0.4436275455253876
 42
0.7873318718236844
  0
LINE
  5
315
330
70
100
AcDbEntity
  8
Sichtbar schmal
100
AcDbLine
 10
164.936788
 20
132.507842
 30
0.0
 11
57.665154
 21
70.734216
 31
0.0
210
-0.0000000000000001
220
0.8175471248425395
230
0.5758617009853119
  0
ELLIPSE
  5
316
330
70
100
AcDbEntity
  8
Sichtbar
100
AcDbEllipse
 10
165.042854
 20
132.446763
 30
0.0
 11
-0.0748548317596755
 21
0.1299875153871451
 31
0.0
210
-0.0000000000000001
220
0.0
230
1.0
 40
0.5780931159100305
 41
0.6327552569782938
 42
0.7873318715462392
  0
ELLIPSE
  5
317
330
70
100
AcDbEntity
  8
Sichtbar
100
AcDbEllipse
 10
164.972144
 20
132.896727
 30
0.0
 11
-0.0748548317370424
 21
0.1299875154204414
 31
0.0
210
0.0000000000000002
220
0.0
230
-0.9999999999999998
 40
0.5780931159255216
 41
0.7834644549671684
 42
2.354260781780959
  0
LINE
  5
318
330
70
100
AcDbEntity
  8
Sichtbar schmal
100
AcDbLine
 10
57.700509
 20
71.245734
 30
0.0
 11
164.972144
 21
133.01936
 31
0.0
210
-0.0000000000000001
220
0.8175471248425395
230
0.5758617009853119
  0
ELLIPSE
  5
319
330
70
100
AcDbEntity
  8
Sichtbar
100
AcDbEllipse
 10
57.700509
 20
71.123102
 30
0.0
 11
-0.0748548317375335
 21
0.1299875154213112
 31
0.0
210
0.0000000000000002
220
0.0
230
-0.9999999999999998
 40
0.5780931159178895
 41
0.7834644549737036
 42
2.354260781774293
  0
LINE
  5
31A
330
70
100
AcDbEntity
  8
Sichtbar schmal
100
AcDbLine
 10
57.806575
 20
71.062022
 30
0.0
 11
165.07821
 21
132.835648
 31
0.0
210
-0.0000000000000001
220
0.8175471248425395
230
0.5758617009853119
  0
LINE
  5
31B
330
70
100
AcDbEntity
  8
Sichtbar
100
AcDbLine
 10
56.823561
 20
59.912661
 30
0.0
 11
57.700509
 21
59.40766
 31
0.0
210
-0.0000000000000001
220
0.8175471248425395
230
0.5758617009853119
  0
LINE
  5
31C
330
70
100
AcDbEntity
  8
Sichtbar
100
AcDbLine
 10
164.458181
 20
136.701097
 30
0.0
 11
163.838522
 21
136.797171
 31
0.0
210
-0.0000000000000001
220
0.8175471248425395
230
0.5758617009853119
  0
LINE
  5
31D
330
70
100
AcDbEntity
  8
Sichtbar schmal
100
AcDbLine
 10
50.666006
 20
71.625454
 30
0.0
 11
163.838522
 21
136.797171
 31
0.0
210
-0.0000000000000001
220
0.8175471248425395
230
0.5758617009853119
  0
LINE
  5
31E
330
70
100
AcDbEntity
  8
Sichtbar
100
AcDbLine
 10
51.285665
 20
71.529379
 30
0.0
 11
50.666006
 21
71.625454
 31
0.0
210
-0.0000000000000001
220
0.8175471248425395
230
0.5758617009853119
  0
ELLIPSE
  5
31F
330
70
100
AcDbEntity
  8
Sichtbar
100
AcDbEllipse
 10
55.245043
 20
68.441737
 30
0.0
 11
0.3742741586867806
 21
0.6499375771100899
 31
0.0
210
0.0000000000000002
220
0.0
230
-0.9999999999999998
 40
0.5780931159141302
 41
2.358128198615025
 42
3.928924525413455
  0
LINE
  5
320
330
70
100
AcDbEntity
  8
Sichtbar schmal
100
AcDbLine
 10
54.714713
 20
68.13634
 30
0.0
 11
54.272771
 21
68.390838
 31
0.0
210
-0.0000000000000001
220
0.8175471248425395
230
0.5758617009853119
  0
ELLIPSE
  5
321
330
70
100
AcDbEntity
  8
Sichtbar
100
AcDbEllipse
 10
54.803101
 20
68.696234
 30
0.0
 11
0.3742741586871898
 21
0.6499375771099374
 31
0.0
210
0.0000000000000003
220
-0.0000000000000001
230
-1.0
 40
0.5780931159136388
 41
3.141592653593073
 42
3.92892452541287
  0
LINE
  5
322
330
70
100
AcDbEntity
  8
Sichtbar
100
AcDbLine
 10
56.639849
 20
60.141086
 30
0.0
 11
54.094265
 21
61.606991
 31
0.0
210
-0.0000000000000001
220
0.8175471248425395
230
0.5758617009853119
  0
ELLIPSE
  5
323
330
70
100
AcDbEntity
  8
Sichtbar
100
AcDbEllipse
 10
56.639849
 20
60.018454
 30
0.0
 11
-0.0748548317399571
 21
0.1299875154221357
 31
0.0
210
0.0000000000000002
220
0.0
230
-0.9999999999999998
 40
0.5780931159104607
 41
0.7834644549931467
 42
1.830662006176286
  0
LINE
  5
324
330
70
100
AcDbEntity
  8
Sichtbar
100
AcDbLine
 10
164.936788
 20
132.324366
 30
0.0
 11
165.502474
 21
132.650122
 31
0.0
210
-0.0000000000000001
220
0.8175471248425395
230
0.5758617009853119
  0
LINE
  5
325
330
70
100
AcDbEntity
  8
Sichtbar schmal
100
AcDbLine
 10
165.007499
 20
121.576713
 30
0.0
 11
57.735865
 21
59.803088
 31
0.0
210
-0.0000000000000001
220
0.8175471248425395
230
0.5758617009853119
  0
ELLIPSE
  5
326
330
70
100
AcDbEntity
  8
Sichtbar
100
AcDbEllipse
 10
165.042854
 20
121.671972
 30
0.0
 11
-0.0748548317374064
 21
0.1299875154217778
 31
0.0
210
-0.0000000000000004
220
-0.0000000000000002
230
0.9999999999999998
 40
0.5780931159167883
 41
0.7873318718189686
 42
2.018291289160625
  0
LINE
  5
327
330
70
100
AcDbEntity
  8
Sichtbar schmal
100
AcDbLine
 10
164.936788
 20
121.733052
 30
0.0
 11
57.665154
 21
59.959426
 31
0.0
210
-0.0000000000000001
220
0.8175471248425395
230
0.5758617009853119
  0
ELLIPSE
  5
328
330
70
100
AcDbEntity
  8
Sichtbar
100
AcDbEllipse
 10
57.77122
 20
59.898346
 30
0.0
 11
-0.0748548317361779
 21
0.1299875154231883
 31
0.0
210
-0.0000000000000004
220
-0.0000000000000002
230
0.9999999999999998
 40
0.5780931159100535
 41
0.7873318718341018
 42
2.018291289165401
  0
LINE
  5
329
330
70
100
AcDbEntity
  8
Sichtbar
100
AcDbLine
 10
167.887229
 20
133.197461
 30
0.0
 11
167.887229
 21
134.738765
 31
0.0
210
-0.0000000000000001
220
0.8175471248425395
230
0.5758617009853119
  0
ELLIPSE
  5
32A
330
70
100
AcDbEntity
  8
Sichtbar
100
AcDbEllipse
 10
163.874799
 20
136.661044
 30
0.0
 11
-0.0748548317363069
 21
0.129987515421964
 31
0.0
210
0.0000000000000002
220
0.0
230
-1.0
 40
0.5780931159124411
 41
-0.0000000000086489
 42
0.4343986045668871
  0
LINE
  5
32B
330
70
100
AcDbEntity
  8
Sichtbar
100
AcDbLine
 10
167.887229
 20
134.738765
 30
0.0
 11
164.518642
 21
136.678605
 31
0.0
210
-0.0000000000000001
220
0.8175471248425395
230
0.5758617009853119
  0
LINE
  5
32C
330
70
100
AcDbEntity
  8
Sichtbar
100
AcDbLine
 10
57.223212
 20
64.675606
 30
0.0
 11
57.223212
 21
60.397871
 31
0.0
210
-0.0000000000000001
220
0.8175471248425395
230
0.5758617009853119
  0
ELLIPSE
  5
32D
330
70
100
AcDbEntity
  8
Sichtbar
100
AcDbEllipse
 10
56.076951
 20
65.137673
 30
0.0
 11
0.3742741586901475
 21
0.6499375771081912
 31
0.0
210
0.0000000000000001
220
-0.0000000000000001
230
1.0
 40
0.5780931159106584
 41
2.354260781769597
 42
3.141592653594384
  0
LINE
  5
32E
330
70
100
AcDbEntity
  8
Sichtbar
100
AcDbLine
 10
55.546621
 20
68.002244
 30
0.0
 11
55.546621
 21
64.832276
 31
0.0
210
-0.0000000000000001
220
0.8175471248425395
230
0.5758617009853119
  0
LINE
  5
32F
330
70
100
AcDbEntity
  8
Sichtbar
100
AcDbLine
 10
54.272771
 20
68.390838
 30
0.0
 11
54.272771
 21
69.1062
 31
0.0
210
-0.0000000000000001
220
0.8175471248425395
230
0.5758617009853119
  0
LINE
  5
330
330
70
100
AcDbEntity
  8
Sichtbar
100
AcDbLine
 10
165.060532
 20
131.065138
 30
0.0
 11
164.936788
 21
130.993879
 31
0.0
210
-0.0000000000000001
220
0.8175471248425395
230
0.5758617009853119
  0
LINE
  5
331
330
70
100
AcDbEntity
  8
Sichtbar
100
AcDbLine
 10
165.060532
 20
132.395625
 30
0.0
 11
165.060532
 21
131.065138
 31
0.0
210
-0.0000000000000001
220
0.8175471248425395
230
0.5758617009853119
  0
ELLIPSE
  5
332
330
70
100
AcDbEntity
  8
Sichtbar
100
AcDbEllipse
 10
56.446924
 20
67.107094
 30
0.0
 11
0.343084645464788
 21
0.5957761123499012
 31
0.0000000000000002
210
-0.0000000000000001
220
-0.0000000000000002
230
1.0
 40
0.57809311591386
 41
3.838155371892139
 42
5.5866225888781
  0
ELLIPSE
  5
333
330
70
100
AcDbEntity
  8
Sichtbar
100
AcDbEllipse
 10
165.271135
 20
129.774798
 30
0.0
 11
0.3430846454630922
 21
0.5957761123504996
 31
0.0000000000000001
210
0.0000000000000003
220
0.0
230
-1.0
 40
0.578093115914053
 41
0.6965627183036563
 42
2.445029935288863
  0
LINE
  5
334
330
70
100
AcDbEntity
  8
Sichtbar
100
AcDbLine
 10
57.223212
 20
68.965756
 30
0.0
 11
57.099469
 21
68.894497
 31
0.0
210
-0.0000000000000001
220
0.8175471248425395
230
0.5758617009853119
  0
LINE
  5
335
330
70
100
AcDbEntity
  8
Sichtbar
100
AcDbLine
 10
57.223212
 20
70.296242
 30
0.0
 11
57.223212
 21
68.965756
 31
0.0
210
-0.0000000000000001
220
0.8175471248425395
230
0.5758617009853119
  0
LINE
  5
336
330
70
100
AcDbEntity
  8
Sichtbar
100
AcDbLine
 10
164.936788
 20
133.039719
 30
0.0
 11
164.972144
 21
133.01936
 31
0.0
210
-0.0000000000000001
220
0.8175471248425395
230
0.5758617009853119
  0
LINE
  5
337
330
70
100
AcDbEntity
  8
Sichtbar
100
AcDbLine
 10
164.936788
 20
133.039719
 30
0.0
 11
167.887229
 21
134.738765
 31
0.0
210
-0.0000000000000001
220
0.8175471248425395
230
0.5758617009853119
  0
LINE
  5
338
330
70
100
AcDbEntity
  8
Sichtbar
100
AcDbLine
 10
54.714713
 20
69.567048
 30
0.0
 11
51.346126
 21
71.506888
 31
0.0
210
-0.0000000000000001
220
0.8175471248425395
230
0.5758617009853119
  0
LINE
  5
339
330
70
100
AcDbEntity
  8
Sichtbar
100
AcDbLine
 10
54.714713
 20
69.567048
 30
0.0
 11
57.665154
 21
71.266094
 31
0.0
210
-0.0000000000000001
220
0.8175471248425395
230
0.5758617009853119
  0
LINE
  5
33A
330
70
100
AcDbEntity
  8
Sichtbar
100
AcDbLine
 10
57.700509
 20
71.245734
 30
0.0
 11
57.665154
 21
71.266094
 31
0.0
210
-0.0000000000000001
220
0.8175471248425395
230
0.5758617009853119
  0
LINE
  5
33B
330
70
100
AcDbEntity
  8
Sichtbar schmal
100
AcDbLine
 10
54.002409
 20
61.598571
 30
0.0
 11
54.041587
 21
61.621132
 31
0.0
210
-0.0000000000000001
220
0.8175471248425395
230
0.5758617009853119
  0
ELLIPSE
  5
33C
330
70
100
AcDbEntity
  8
Sichtbar
100
AcDbEllipse
 10
53.910553
 20
61.712783
 30
0.0
 11
-0.0748548317367361
 21
0.129987515422227
 31
0.0
210
0.0000000000000001
220
-0.0000000000000002
230
-0.9999999999999998
 40
0.5780931159097121
 41
2.877859557358094
 42
3.92505710856172
  0
LINE
  5
33D
330
70
100
AcDbEntity
  8
Sichtbar schmal
100
AcDbLine
 10
57.046436
 20
60.295283
 30
0.0
 11
57.223211
 21
60.397082
 31
0.0
210
-0.0000000000000001
220
0.8175471248425395
230
0.5758617009853119
  0
ELLIPSE
  5
33E
330
70
100
AcDbEntity
  8
Sichtbar
100
AcDbEllipse
 10
57.046436
 20
60.49967
 30
0.0
 11
-0.1247580528955895
 21
0.2166458590363511
 31
0.0
210
0.0000000000000001
220
0.0
230
-1.0
 40
0.5780931159150709
 41
2.354260781768059
 42
3.925057108562812
  0
LINE
  5
33F
330
70
100
AcDbEntity
  8
Sichtbar
100
AcDbLine
 10
52.089665
 20
62.651057
 30
0.0
 11
51.469985
 21
63.268679
 31
0.0
210
-0.0000000000000001
220
0.8175471248425395
230
0.5758617009853119
  0
LINE
  5
340
330
70
100
AcDbEntity
  8
Sichtbar
100
AcDbLine
 10
166.61338
 20
128.282383
 30
0.0
 11
166.61338
 21
131.961336
 31
0.0
210
-0.0000000000000001
220
0.8175471248425395
230
0.5758617009853119
  0
LINE
  5
341
330
70
100
AcDbEntity
  8
Sichtbar
100
AcDbLine
 10
166.61338
 20
131.961336
 30
0.0
 11
167.365597
 21
132.394509
 31
0.0
210
-0.0000000000000001
220
0.8175471248425395
230
0.5758617009853119
  0
ELLIPSE
  5
342
330
70
100
AcDbEntity
  8
Sichtbar
100
AcDbEllipse
 10
167.365597
 20
133.00767
 30
0.0
 11
0.3742741586856174
 21
0.6499375771074493
 31
0.0
210
0.0000000000000001
220
0.0
230
-0.9999999999999998
 40
0.5780931159188189
 41
0.9686956359180918
 42
2.358128198618604
  0
LINE
  5
343
330
70
100
AcDbEntity
  8
Sichtbar
100
AcDbLine
 10
57.665154
 20
71.266094
 30
0.0
 11
57.665154
 21
70.734216
 31
0.0
210
-0.0000000000000001
220
0.8175471248425395
230
0.5758617009853119
  0
LINE
  5
344
330
70
100
AcDbEntity
  8
Sichtbar
100
AcDbLine
 10
54.714713
 20
68.13634
 30
0.0
 11
54.714713
 21
69.567048
 31
0.0
210
-0.0000000000000001
220
0.8175471248425395
230
0.5758617009853119
  0
LINE
  5
345
330
70
100
AcDbEntity
  8
Sichtbar
100
AcDbLine
 10
55.245043
 20
67.828577
 30
0.0
 11
55.988562
 21
68.256741
 31
0.0
210
-0.0000000000000001
220
0.8175471248425395
230
0.5758617009853119
  0
LINE
  5
346
330
70
100
AcDbEntity
  8
Sichtbar
100
AcDbLine
 10
55.988562
 20
68.256741
 30
0.0
 11
55.988562
 21
64.577779
 31
0.0
210
-0.0000000000000001
220
0.8175471248425395
230
0.5758617009853119
  0
ELLIPSE
  5
347
330
70
100
AcDbEntity
  8
Sichtbar
100
AcDbEllipse
 10
56.518893
 20
64.883176
 30
0.0
 11
0.3742741586867098
 21
0.6499375771102731
 31
0.0
210
0.0000000000000001
220
-0.0000000000000001
230
0.9999999999999998
 40
0.578093115914076
 41
2.354260781766382
 42
3.925057108562656
  0
LINE
  5
348
330
70
100
AcDbEntity
  8
Sichtbar
100
AcDbLine
 10
57.665154
 20
64.930103
 30
0.0
 11
56.518893
 21
64.270015
 31
0.0
210
-0.0000000000000001
220
0.8175471248425395
230
0.5758617009853119
  0
LINE
  5
349
330
70
100
AcDbEntity
  8
Sichtbar
100
AcDbLine
 10
57.665154
 20
59.959426
 30
0.0
 11
57.665154
 21
64.930103
 31
0.0
210
-0.0000000000000001
220
0.8175471248425395
230
0.5758617009853119
  0
LINE
  5
34A
330
70
100
AcDbEntity
  8
Sichtbar
100
AcDbLine
 10
164.936788
 20
126.703738
 30
0.0
 11
164.936788
 21
121.733052
 31
0.0
210
-0.0000000000000001
220
0.8175471248425395
230
0.5758617009853119
  0
LINE
  5
34B
330
70
100
AcDbEntity
  8
Sichtbar
100
AcDbLine
 10
166.08305
 20
127.363826
 30
0.0
 11
164.936788
 21
126.703738
 31
0.0
210
-0.0000000000000001
220
0.8175471248425395
230
0.5758617009853119
  0
ELLIPSE
  5
34C
330
70
100
AcDbEntity
  8
Sichtbar
100
AcDbEllipse
 10
166.08305
 20
127.976987
 30
0.0
 11
0.3742741586875828
 21
0.6499375771097081
 31
0.0
210
0.0000000000000001
220
0.0
230
-1.0
 40
0.5780931159152156
 41
0.7873318718214524
 42
2.358128198614599
  0
LINE
  5
34D
330
70
100
AcDbEntity
  8
Sichtbar
100
AcDbLine
 10
57.665154
 20
68.711259
 30
0.0
 11
57.665154
 21
70.55074
 31
0.0
210
-0.0000000000000001
220
0.8175471248425395
230
0.5758617009853119
  0
LINE
  5
34E
330
70
100
AcDbEntity
  8
Sichtbar
100
AcDbLine
 10
57.665154
 20
68.711259
 30
0.0
 11
57.099469
 21
68.385502
 31
0.0
210
-0.0000000000000001
220
0.8175471248425395
230
0.5758617009853119
  0
LINE
  5
34F
330
70
100
AcDbEntity
  8
Sichtbar
100
AcDbLine
 10
57.099469
 20
68.385502
 30
0.0
 11
57.099469
 21
70.224983
 31
0.0
210
-0.0000000000000001
220
0.8175471248425395
230
0.5758617009853119
  0
LINE
  5
350
330
70
100
AcDbEntity
  8
Sichtbar
100
AcDbLine
 10
57.099469
 20
70.224983
 30
0.0
 11
57.665154
 21
70.55074
 31
0.0
210
-0.0000000000000001
220
0.8175471248425395
230
0.5758617009853119
  0
ELLIPSE
  5
351
330
70
100
AcDbEntity
  8
Sichtbar
100
AcDbEllipse
 10
56.888866
 20
66.852596
 30
0.0
 11
0.3430846454641205
 21
0.5957761123500977
 31
0.0000000000000002
210
-0.0000000000000001
220
-0.0000000000000002
230
0.9999999999999998
 40
0.5780931159139968
 41
-0.0000000000020937
 42
6.283185307177492
  0
ELLIPSE
  5
352
330
70
100
AcDbEntity
  8
Sichtbar
100
AcDbEllipse
 10
165.713077
 20
129.520301
 30
0.0
 11
0.3430846454617693
 21
0.5957761123508993
 31
0.0
210
0.0000000000000002
220
0.0
230
-0.9999999999999998
 40
0.5780931159145643
 41
1.570796326797801
 42
7.853981633977388
  0
LINE
  5
353
330
70
100
AcDbEntity
  8
Sichtbar
100
AcDbLine
 10
165.502474
 20
130.810641
 30
0.0
 11
164.936788
 21
130.484885
 31
0.0
210
-0.0000000000000001
220
0.8175471248425395
230
0.5758617009853119
  0
LINE
  5
354
330
70
100
AcDbEntity
  8
Sichtbar
100
AcDbLine
 10
164.936788
 20
132.324366
 30
0.0
 11
164.936788
 21
130.484885
 31
0.0
210
-0.0000000000000001
220
0.8175471248425395
230
0.5758617009853119
  0
LINE
  5
355
330
70
100
AcDbEntity
  8
Sichtbar
100
AcDbLine
 10
165.502474
 20
132.650122
 30
0.0
 11
165.502474
 21
130.810641
 31
0.0
210
-0.0000000000000001
220
0.8175471248425395
230
0.5758617009853119
  0
ELLIPSE
  5
356
330
70
100
AcDbEntity
  8
Sichtbar
100
AcDbEllipse
 10
51.506262
 20
63.363025
 30
0.0
 11
-0.0748548317370022
 21
0.1299875154227968
 31
0.0
210
0.0000000000000001
220
0.0
230
-1.0
 40
0.5780931159045572
 41
4.274122958957102
 42
7.066649762155558
  0
LINE
  5
357
330
70
100
AcDbEntity
  8
Sichtbar schmal
100
AcDbLine
 10
51.506262
 20
63.485657
 30
0.0
 11
55.546621
 21
65.812346
 31
0.0
210
-0.0000000000000001
220
0.8175471248425395
230
0.5758617009853119
  0
ELLIPSE
  5
358
330
70
100
AcDbEntity
  8
Sichtbar
100
AcDbEllipse
 10
52.150127
 20
62.8083
 30
0.0
 11
-0.1247580529473245
 21
0.2166458590419313
 31
-0.0000000000000001
210
-0.0000000000000001
220
0.0000000000000002
230
0.9999999999999998
 40
0.5780931158880684
 41
2.009062348059853
 42
2.358128198393811
  0
LINE
  5
359
330
70
100
AcDbEntity
  8
Sichtbar schmal
100
AcDbLine
 10
165.07821
 20
132.65764
 30
0.0
 11
57.806575
 21
70.884014
 31
0.0
210
-0.0000000000000001
220
0.8175471248425395
230
0.5758617009853119
  0
LINE
  5
35A
330
70
100
AcDbEntity
  8
Sichtbar
100
AcDbLine
 10
165.07821
 20
132.835648
 30
0.0
 11
165.07821
 21
132.65764
 31
0.0
210
-0.0000000000000001
220
0.8175471248425395
230
0.5758617009853119
  0
LINE
  5
35B
330
70
100
AcDbEntity
  8
Sichtbar
100
AcDbLine
 10
57.806575
 20
70.884014
 30
0.0
 11
57.806575
 21
71.062022
 31
0.0
210
-0.0000000000000001
220
0.8175471248425395
230
0.5758617009853119
  0
ELLIPSE
  5
35C
330
70
100
AcDbEntity
  8
Sichtbar
100
AcDbEllipse
 10
164.972144
 20
132.71872
 30
0.0
 11
-0.0748548317376925
 21
0.1299875154215193
 31
0.0
210
0.0000000000000002
220
0.0000000000000001
230
-1.0
 40
0.5780931159157456
 41
2.354260781772236
 42
3.141592653587478
  0
ELLIPSE
  5
35D
330
70
100
AcDbEntity
  8
Sichtbar
100
AcDbEllipse
 10
54.095995
 20
69.207999
 30
0.0
 11
-0.1247580528952885
 21
0.2166458590358665
 31
0.0
210
0.0000000000000001
220
0.0
230
-1.0
 40
0.5780931159177482
 41
0.7834644549706167
 42
2.354260781771364
  0
ELLIPSE
  5
35E
330
70
100
AcDbEntity
  8
Sichtbar
100
AcDbEllipse
 10
50.702283
 20
71.489327
 30
0.0
 11
-0.0748548317391898
 21
0.1299875154213281
 31
0.0
210
0.0000000000000002
220
0.0
230
-1.0
 40
0.5780931159176045
 41
3.925057108574741
 42
6.717583911762304
  0
ELLIPSE
  5
35F
330
70
100
AcDbEntity
  8
Sichtbar
100
AcDbEllipse
 10
56.823561
 20
60.035294
 30
0.0
 11
-0.0748548317417309
 21
0.1299875154239811
 31
0.0
210
-0.0000000000000003
220
-0.0000000000000001
230
1.0
 40
0.5780931158988723
 41
1.310930647414091
 42
2.358128198573298
  0
LINE
  5
360
330
70
100
AcDbEntity
  8
Sichtbar schmal
100
AcDbLine
 10
165.07821
 20
121.420375
 30
0.0
 11
57.806575
 21
59.646749
 31
0.0
210
-0.0000000000000001
220
0.8175471248425395
230
0.5758617009853119
  0
LINE
  5
361
330
70
100
AcDbEntity
  8
Sichtbar
100
AcDbLine
 10
57.806575
 20
59.469213
 30
0.0
 11
57.806575
 21
59.646749
 31
0.0
210
-0.0000000000000001
220
0.8175471248425395
230
0.5758617009853119
  0
LINE
  5
362
330
70
100
AcDbEntity
  8
Sichtbar schmal
100
AcDbLine
 10
165.07821
 20
121.242839
 30
0.0
 11
57.806575
 21
59.469213
 31
0.0
210
-0.0000000000000001
220
0.8175471248425395
230
0.5758617009853119
  0
LINE
  5
363
330
70
100
AcDbEntity
  8
Sichtbar
100
AcDbLine
 10
165.07821
 20
121.420375
 30
0.0
 11
165.07821
 21
121.242839
 31
0.0
210
-0.0000000000000001
220
0.8175471248425395
230
0.5758617009853119
  0
ELLIPSE
  5
364
330
70
100
AcDbEntity
  8
Sichtbar
100
AcDbEllipse
 10
57.700509
 20
70.945094
 30
0.0
 11
-0.0748548317388534
 21
0.1299875154219191
 31
0.0
210
-0.0000000000000001
220
-0.0000000000000001
230
0.9999999999999998
 40
0.5780931159149471
 41
2.697965108070282
 42
3.928924525408203
  0
LINE
  5
365
330
70
100
AcDbEntity
  8
Sichtbar
100
AcDbLine
 10
52.150127
 20
62.603913
 30
0.0
 11
53.910553
 21
61.590151
 31
0.0
210
-0.0000000000000001
220
0.8175471248425395
230
0.5758617009853119
  0
LINE
  5
366
330
70
100
AcDbEntity
  8
Sichtbar
100
AcDbLine
 10
57.046436
 20
60.295283
 30
0.0
 11
51.506262
 21
63.485657
 31
0.0
210
-0.0000000000000001
220
0.8175471248425395
230
0.5758617009853119
  0
ELLIPSE
  5
367
330
70
100
AcDbEntity
  8
Sichtbar
100
AcDbEllipse
 10
164.972144
 20
121.303918
 30
0.0
 11
-0.0748548317351264
 21
0.1299875154226579
 31
0.0
210
-0.0000000000000001
220
0.0
230
1.0
 40
0.5780931159303462
 41
3.14159265361415
 42
3.928924525415462
  0
ELLIPSE
  5
368
330
70
100
AcDbEntity
  8
Sichtbar
100
AcDbEllipse
 10
164.972144
 20
121.481455
 30
0.0
 11
-0.0748548317375803
 21
0.1299875154252059
 31
0.0
210
0.0
220
0.0
230
-0.9999999999999998
 40
0.57809311590021
 41
1.12330136443148
 42
2.354260781744506
  0
LINE
  5
369
330
70
100
AcDbEntity
  8
Sichtbar
100
AcDbLine
 10
57.665154
 20
68.711259
 30
0.0
 11
57.223212
 21
68.965756
 31
0.0
210
-0.0000000000000001
220
0.8175471248425395
230
0.5758617009853119
  0
LINE
  5
36A
330
70
100
AcDbEntity
  8
Sichtbar
100
AcDbLine
 10
165.060532
 20
131.065138
 30
0.0
 11
165.502474
 21
130.810641
 31
0.0
210
-0.0000000000000001
220
0.8175471248425395
230
0.5758617009853119
  0
ELLIPSE
  5
36B
330
70
100
AcDbEntity
  8
Sichtbar
100
AcDbEllipse
 10
57.700509
 20
59.707829
 30
0.0
 11
-0.0748548317387002
 21
0.1299875154206895
 31
0.0
210
-0.0000000000000001
220
0.0000000000000001
230
1.0
 40
0.5780931159215889
 41
3.928924525395753
 42
5.159883942744775
  0
ELLIPSE
  5
36C
330
70
100
AcDbEntity
  8
Sichtbar
100
AcDbEllipse
 10
54.094265
 20
61.484359
 30
0.0
 11
-0.074854831738064
 21
0.1299875154220425
 31
0.0
210
-0.0000000000000002
220
0.0
230
1.0
 40
0.5780931159062681
 41
-0.7834644549759111
 42
0.2637330962273996
  0
ELLIPSE
  5
36D
330
70
100
AcDbEntity
  8
Sichtbar
100
AcDbEllipse
 10
57.700509
 20
59.530293
 30
0.0
 11
-0.0748548317389689
 21
0.129987515421532
 31
0.0
210
-0.0000000000000002
220
0.0
230
0.9999999999999996
 40
0.5780931159157833
 41
2.358128198605528
 42
3.928924525402564
  0
LINE
  5
36E
330
70
100
AcDbEntity
  8
Sichtbar schmal
100
AcDbLine
 10
55.546621
 20
64.832276
 30
0.0
 11
55.988562
 21
64.577779
 31
0.0
210
-0.0000000000000001
220
0.8175471248425395
230
0.5758617009853119
  0
LINE
  5
36F
330
70
100
AcDbEntity
  8
Sichtbar
100
AcDbLine
 10
54.870769
 20
67.791799
 30
0.0
 11
54.428827
 21
68.046297
 31
0.0
210
-0.0000000000000001
220
0.8175471248425395
230
0.5758617009853119
  0
LINE
  5
370
330
70
100
AcDbEntity
  8
Sichtbar
100
AcDbLine
 10
53.985408
 20
61.582796
 30
0.0
 11
54.052045
 21
61.621169
 31
0.0
210
-0.0000000000000001
220
0.8175471248425395
230
0.5758617009853119
  0
LINE
  5
371
330
70
100
AcDbEntity
  8
Sichtbar
100
AcDbLine
 10
51.431407
 20
63.493013
 30
0.0
 11
55.546621
 21
65.862807
 31
0.0
210
-0.0000000000000001
220
0.8175471248425395
230
0.5758617009853119
  0
LINE
  5
372
330
70
100
AcDbEntity
  8
Sichtbar
100
AcDbLine
 10
50.627428
 20
71.619314
 30
0.0
 11
163.799944
 21
136.791032
 31
0.0
210
-0.0000000000000001
220
0.8175471248425395
230
0.5758617009853119
  0
LINE
  5
373
330
70
100
AcDbEntity
  8
Sichtbar
100
AcDbLine
 10
55.702677
 20
64.487735
 30
0.0
 11
56.144618
 21
64.233238
 31
0.0
210
-0.0000000000000001
220
0.8175471248425395
230
0.5758617009853119
  0
LINE
  5
374
330
70
100
AcDbEntity
  8
Sichtbar
100
AcDbLine
 10
165.046998
 20
121.173931
 30
0.0
 11
57.775364
 21
59.400305
 31
0.0
210
-0.0000000000000001
220
0.8175471248425395
230
0.5758617009853119
  0
LINE
  5
375
330
70
100
AcDbEntity
  8
Sichtbar
100
AcDbLine
 10
57.775364
 20
70.815106
 30
0.0
 11
165.046998
 21
132.588732
 31
0.0
210
-0.0000000000000001
220
0.8175471248425395
230
0.5758617009853119
  0
ENDSEC
  0
SECTION
  2
OBJECTS
  0
DICTIONARY
  5
C
330
0
100
AcDbDictionary
281
     1
  3
ACAD_COLOR
350
63
  3
ACAD_DETAILVIEWSTYLE
350
6A
  3
ACAD_GROUP
350
D
  3
ACAD_LAYOUT
350
62
  3
ACAD_MATERIAL
350
10
  3
ACAD_MLEADERSTYLE
350
66
  3
ACAD_MLINESTYLE
350
5F
  3
ACAD_PLOTSETTINGS
350
61
  3
ACAD_PLOTSTYLENAME
350
E
  3
ACAD_SCALELIST
350
42
  3
ACAD_SECTIONVIEWSTYLE
350
68
  3
ACAD_TABLESTYLE
350
64
  3
ACAD_VISUALSTYLE
350
29
  3
ACDB_RECOMPOSE_DATA
350
3DF
  3
AcDbVariableDictionary
350
3D6
  0
DICTIONARY
  5
A7
330
70
100
AcDbDictionary
280
     1
281
     1
  3
ACAD_SORTENTS
360
A8
  0
DICTIONARY
  5
183
330
182
100
AcDbDictionary
280
     1
281
     1
  3
ACAD_SORTENTS
360
2AF
  0
DICTIONARY
  5
63
102
{ACAD_REACTORS
330
C
102
}
330
C
100
AcDbDictionary
281
     1
  0
DICTIONARY
  5
6A
102
{ACAD_REACTORS
330
C
102
}
330
C
100
AcDbDictionary
281
     1
  3
Imperial24
350
6B
  0
DICTIONARY
  5
D
102
{ACAD_REACTORS
330
C
102
}
330
C
100
AcDbDictionary
281
     1
  0
DICTIONARY
  5
62
102
{ACAD_REACTORS
330
C
102
}
330
C
100
AcDbDictionary
281
     1
  3
Model
350
73
  3
Plan1
350
6F
  3
Plan2
350
77
  0
DICTIONARY
  5
10
102
{ACAD_REACTORS
330
C
102
}
330
C
100
AcDbDictionary
281
     1
  3
ByBlock
350
19
  3
ByLayer
350
11
  3
Global
350
21
  0
DICTIONARY
  5
66
102
{ACAD_REACTORS
330
C
102
}
330
C
100
AcDbDictionary
281
     1
  3
Standard
350
67
  0
DICTIONARY
  5
5F
102
{ACAD_REACTORS
330
C
102
}
330
C
100
AcDbDictionary
281
     1
  3
Standard
350
60
  0
DICTIONARY
  5
61
102
{ACAD_REACTORS
330
C
102
}
330
C
100
AcDbDictionary
281
     1
  0
ACDBDICTIONARYWDFLT
  5
E
102
{ACAD_REACTORS
330
C
102
}
330
C
100
AcDbDictionary
281
     1
  3
Normal
350
F
100
AcDbDictionaryWithDefault
340
F
  0
DICTIONARY
  5
42
102
{ACAD_REACTORS
330
C
102
}
330
C
100
AcDbDictionary
281
     1
  3
*A1
350
A6
  3
A0
350
43
  3
A1
350
44
  3
A2
350
45
  3
A3
350
46
  3
A4
350
47
  3
A5
350
48
  3
A6
350
49
  3
A7
350
4A
  3
A8
350
4B
  3
A9
350
4C
  3
B0
350
4D
  3
B1
350
4E
  3
B2
350
4F
  3
B3
350
50
  3
B4
350
51
  3
B5
350
52
  3
B6
350
53
  0
DICTIONARY
  5
68
102
{ACAD_REACTORS
330
C
102
}
330
C
100
AcDbDictionary
281
     1
  3
Imperial24
350
69
  0
DICTIONARY
  5
64
102
{ACAD_REACTORS
330
C
102
}
330
C
100
AcDbDictionary
281
     1
  3
Standard
350
65
  0
DICTIONARY
  5
29
102
{ACAD_REACTORS
330
C
102
}
330
C
100
AcDbDictionary
281
     1
  3
2dWireframe
350
2F
  3
Basic
350
2E
  3
Brighten
350
35
  3
ColorChange
350
39
  3
Conceptual
350
32
  3
Dim
350
34
  3
EdgeColorOff
350
41
  3
Facepattern
350
38
  3
Flat
350
2A
  3
FlatWithEdges
350
2B
  3
Gouraud
350
2C
  3
GouraudWithEdges
350
2D
  3
Hidden
350
31
  3
JitterOff
350
3F
  3
Linepattern
350
37
  3
OverhangOff
350
40
  3
Realistic
350
33
  3
Shaded
350
3E
  3
Shaded with edges
350
3D
  3
Shades of Gray
350
3A
  3
Sketchy
350
3B
  3
Thicken
350
36
  3
Wireframe
350
30
  3
X-Ray
350
3C
  0
XRECORD
  5
3DF
102
{ACAD_REACTORS
330
C
102
}
330
C
100
AcDbXrecord
280
     1
 90
        1
330
65
330
1DC
  0
DICTIONARY
  5
3D6
102
{ACAD_REACTORS
330
C
102
}
330
C
100
AcDbDictionary
281
     1
  3
ANNOALLVISIBLE
350
3DB
  3
CANNOSCALE
350
3DC
  3
CMLEADERSTYLE
350
3D8
  3
CTABLESTYLE
350
3D7
  3
CVIEWDETAILSTYLE
350
3D9
  3
CVIEWSECTIONSTYLE
350
3DA
  0
SORTENTSTABLE
  5
A8
102
{ACAD_REACTORS
330
A7
102
}
330
A7
100
AcDbSortentsTable
330
70
  0
SORTENTSTABLE
  5
2AF
102
{ACAD_REACTORS
330
183
102
}
330
183
100
AcDbSortentsTable
330
182
331
186
  5
18F
331
187
  5
190
331
188
  5
187
331
189
  5
188
331
18A
  5
189
331
18B
  5
18A
331
18C
  5
18B
331
18D
  5
18C
331
18E
  5
18D
331
18F
  5
191
331
190
  5
192
331
191
  5
193
331
192
  5
194
331
193
  5
195
331
194
  5
18E
331
195
  5
186
  0
ACDBDETAILVIEWSTYLE
  5
6B
102
{ACAD_XDICTIONARY
360
3E2
102
}
102
{ACAD_REACTORS
330
6A
102
}
330
6A
100
AcDbModelDocViewStyle
 70
     0
  3
Imperial24
290
     0
100
AcDbDetailViewStyle
 70
     0
 71
     0
 90
        3
 71
     1
340
55
 62
   256
 40
0.24
340
0
 62
   256
 40
0.24
300

 40
0.36
280
     3
 71
     2
340
5D
 90
       25
 62
   256
 71
     3
340
55
 62
   256
 40
0.24
 90
        1
 40
0.75
 90
        1
300
%<\AcVar ViewType \f "%tc1">% %<\AcVar ViewDetailId>%\PVARIA %<\AcVar ViewScale \f "%sn">%
 71
     4
340
5D
 90
       25
 62
   256
340
5D
 90
       25
 62
   256
280
     0
  0
LAYOUT
  5
73
102
{ACAD_REACTORS
330
62
102
}
330
62
100
AcDbPlotSettings
  1

  2
AutoCAD PDF (High Quality Print).pc3
  4
ISO_full_bleed_A4_(297.00_x_210.00_MM)
  6

 40
0.0
 41
0.0
 42
0.0
 43
0.0
 44
297.0
 45
210.0
 46
0.0
 47
0.0
 48
0.0
 49
0.0
140
0.0
141
0.0
142
1.0
143
1.363932
 70
 11952
 72
     1
 73
     0
 74
     0
  7

 75
     0
147
0.733174
 76
     0
 77
     2
 78
   300
148
54.043892
149
8.205901
100
AcDbLayout
  1
Model
 70
     1
 71
     0
 10
0.0
 20
0.0
 11
12.0
 21
9.0
 12
0.0
 22
0.0
 32
0.0
 14
0.0
 24
0.0
 34
0.0
 15
0.0
 25
0.0
 35
0.0
146
0.0
 13
0.0
 23
0.0
 33
0.0
 16
1.0
 26
0.0
 36
0.0
 17
0.0
 27
1.0
 37
0.0
 76
     0
330
70
1001
ACAD_PSEXT
1000
AutoCAD PDF (High Quality Print).pc3
1000
DWG To PDF
1000
Datei
1000

1070
     0
  0
LAYOUT
  5
6F
102
{ACAD_REACTORS
330
62
102
}
330
62
100
AcDbPlotSettings
  1

  2

  4

  6

 40
0.0
 41
0.0
 42
0.0
 43
0.0
 44
0.0
 45
0.0
 46
0.0
 47
0.0
 48
0.0
 49
0.0
140
0.0
141
0.0
142
1.0
143
1.0
 70
   688
 72
     0
 73
     0
 74
     5
  7

 75
    16
147
1.0
 76
     0
 77
     2
 78
   300
148
0.0
149
0.0
100
AcDbLayout
  1
Plan1
 70
     1
 71
     1
 10
0.0
 20
0.0
 11
12.0
 21
9.0
 12
0.0
 22
0.0
 32
0.0
 14
0.0
 24
0.0
 34
0.0
 15
0.0
 25
0.0
 35
0.0
146
0.0
 13
0.0
 23
0.0
 33
0.0
 16
1.0
 26
0.0
 36
0.0
 17
0.0
 27
1.0
 37
0.0
 76
     0
330
6C
  0
LAYOUT
  5
77
102
{ACAD_REACTORS
330
62
102
}
330
62
100
AcDbPlotSettings
  1

  2

  4

  6

 40
0.0
 41
0.0
 42
0.0
 43
0.0
 44
0.0
 45
0.0
 46
0.0
 47
0.0
 48
0.0
 49
0.0
140
0.0
141
0.0
142
1.0
143
1.0
 70
   688
 72
     0
 73
     0
 74
     5
  7

 75
    16
147
1.0
 76
     0
 77
     2
 78
   300
148
0.0
149
0.0
100
AcDbLayout
  1
Plan2
 70
     1
 71
     2
 10
0.0
 20
0.0
 11
12.0
 21
9.0
 12
0.0
 22
0.0
 32
0.0
 14
0.0
 24
0.0
 34
0.0
 15
0.0
 25
0.0
 35
0.0
146
0.0
 13
0.0
 23
0.0
 33
0.0
 16
1.0
 26
0.0
 36
0.0
 17
0.0
 27
1.0
 37
0.0
 76
     0
330
74
  0
MATERIAL
  5
19
102
{ACAD_XDICTIONARY
360
1A
102
}
102
{ACAD_REACTORS
330
10
102
}
330
10
100
AcDbMaterial
  1
ByBlock
 72
     0
 43
0.020833
 43
0.0
 43
0.0
 43
0.0
 43
0.0
 43
0.020833
 43
0.0
 43
0.0
 43
0.0
 43
0.0
 43
1.0
 43
0.0
 43
0.0
 43
0.0
 43
0.0
 43
1.0
 77
     0
 47
0.020833
 47
0.0
 47
0.0
 47
0.0
 47
0.0
 47
0.020833
 47
0.0
 47
0.0
 47
0.0
 47
0.0
 47
1.0
 47
0.0
 47
0.0
 47
0.0
 47
0.0
 47
1.0
171
     0
 49
0.020833
 49
0.0
 49
0.0
 49
0.0
 49
0.0
 49
0.020833
 49
0.0
 49
0.0
 49
0.0
 49
0.0
 49
1.0
 49
0.0
 49
0.0
 49
0.0
 49
0.0
 49
1.0
175
     0
142
0.020833
142
0.0
142
0.0
142
0.0
142
0.0
142
0.020833
142
0.0
142
0.0
142
0.0
142
0.0
142
1.0
142
0.0
142
0.0
142
0.0
142
0.0
142
1.0
179
     0
144
0.020833
144
0.0
144
0.0
144
0.0
144
0.0
144
0.020833
144
0.0
144
0.0
144
0.0
144
0.0
144
1.0
144
0.0
144
0.0
144
0.0
144
0.0
144
1.0
147
0.020833
147
0.0
147
0.0
147
0.0
147
0.0
147
0.020833
147
0.0
147
0.0
147
0.0
147
0.0
147
1.0
147
0.0
147
0.0
147
0.0
147
0.0
147
1.0
  0
MATERIAL
  5
11
102
{ACAD_XDICTIONARY
360
12
102
}
102
{ACAD_REACTORS
330
10
102
}
330
10
100
AcDbMaterial
  1
ByLayer
 72
     0
 43
0.020833
 43
0.0
 43
0.0
 43
0.0
 43
0.0
 43
0.020833
 43
0.0
 43
0.0
 43
0.0
 43
0.0
 43
1.0
 43
0.0
 43
0.0
 43
0.0
 43
0.0
 43
1.0
 77
     0
 47
0.020833
 47
0.0
 47
0.0
 47
0.0
 47
0.0
 47
0.020833
 47
0.0
 47
0.0
 47
0.0
 47
0.0
 47
1.0
 47
0.0
 47
0.0
 47
0.0
 47
0.0
 47
1.0
171
     0
 49
0.020833
 49
0.0
 49
0.0
 49
0.0
 49
0.0
 49
0.020833
 49
0.0
 49
0.0
 49
0.0
 49
0.0
 49
1.0
 49
0.0
 49
0.0
 49
0.0
 49
0.0
 49
1.0
175
     0
142
0.020833
142
0.0
142
0.0
142
0.0
142
0.0
142
0.020833
142
0.0
142
0.0
142
0.0
142
0.0
142
1.0
142
0.0
142
0.0
142
0.0
142
0.0
142
1.0
179
     0
144
0.020833
144
0.0
144
0.0
144
0.0
144
0.0
144
0.020833
144
0.0
144
0.0
144
0.0
144
0.0
144
1.0
144
0.0
144
0.0
144
0.0
144
0.0
144
1.0
147
0.020833
147
0.0
147
0.0
147
0.0
147
0.0
147
0.020833
147
0.0
147
0.0
147
0.0
147
0.0
147
1.0
147
0.0
147
0.0
147
0.0
147
0.0
147
1.0
  0
MATERIAL
  5
21
102
{ACAD_XDICTIONARY
360
22
102
}
102
{ACAD_REACTORS
330
10
102
}
330
10
100
AcDbMaterial
  1
Global
 72
     0
 43
0.020833
 43
0.0
 43
0.0
 43
0.0
 43
0.0
 43
0.020833
 43
0.0
 43
0.0
 43
0.0
 43
0.0
 43
1.0
 43
0.0
 43
0.0
 43
0.0
 43
0.0
 43
1.0
 77
     0
 47
0.020833
 47
0.0
 47
0.0
 47
0.0
 47
0.0
 47
0.020833
 47
0.0
 47
0.0
 47
0.0
 47
0.0
 47
1.0
 47
0.0
 47
0.0
 47
0.0
 47
0.0
 47
1.0
171
     0
 49
0.020833
 49
0.0
 49
0.0
 49
0.0
 49
0.0
 49
0.020833
 49
0.0
 49
0.0
 49
0.0
 49
0.0
 49
1.0
 49
0.0
 49
0.0
 49
0.0
 49
0.0
 49
1.0
175
     0
142
0.020833
142
0.0
142
0.0
142
0.0
142
0.0
142
0.020833
142
0.0
142
0.0
142
0.0
142
0.0
142
1.0
142
0.0
142
0.0
142
0.0
142
0.0
142
1.0
179
     0
144
0.020833
144
0.0
144
0.0
144
0.0
144
0.0
144
0.020833
144
0.0
144
0.0
144
0.0
144
0.0
144
1.0
144
0.0
144
0.0
144
0.0
144
0.0
144
1.0
147
0.020833
147
0.0
147
0.0
147
0.0
147
0.0
147
0.020833
147
0.0
147
0.0
147
0.0
147
0.0
147
1.0
147
0.0
147
0.0
147
0.0
147
0.0
147
1.0
  0
MLEADERSTYLE
  5
67
102
{ACAD_REACTORS
330
66
330
1DE
102
}
330
66
100
AcDbMLeaderStyle
179
     2
170
     2
171
     1
172
     0
 90
        2
 40
0.0
 41
0.0
173
     1
 91
-1056964608
340
5B
 92
       -2
290
     1
 42
0.0
291
     1
 43
3.5
  3
Standard
 44
3.5
300

342
55
174
     5
178
     5
175
     1
176
     0
 93
-1056964608
 45
3.5
292
     0
297
     0
 46
0.18
 94
-1056964608
 47
1.0
 49
1.0
140
1.0
293
     1
141
0.0
294
     1
177
     0
142
1.0
295
     0
296
     0
143
3.5
271
     0
272
     9
273
     9
298
     1
  0
MLINESTYLE
  5
60
102
{ACAD_REACTORS
330
5F
102
}
330
5F
100
AcDbMlineStyle
  2
STANDARD
 70
     0
  3

 62
   256
 51
90.0
 52
90.0
 71
     0
  0
ACDBPLACEHOLDER
  5
F
102
{ACAD_REACTORS
330
E
102
}
330
E
  0
SCALE
  5
A6
102
{ACAD_REACTORS
330
42
102
}
330
42
100
AcDbScale
 70
     0
300
1:3
140
0.333333
141
1.0
290
     0
  0
SCALE
  5
43
102
{ACAD_REACTORS
330
42
102
}
330
42
100
AcDbScale
 70
     0
300
1:1
140
1.0
141
1.0
290
     1
  0
SCALE
  5
44
102
{ACAD_REACTORS
330
42
102
}
330
42
100
AcDbScale
 70
     0
300
1:2
140
1.0
141
2.0
290
     0
  0
SCALE
  5
45
102
{ACAD_REACTORS
330
42
102
}
330
42
100
AcDbScale
 70
     0
300
1:4
140
1.0
141
4.0
290
     0
  0
SCALE
  5
46
102
{ACAD_REACTORS
330
42
102
}
330
42
100
AcDbScale
 70
     0
300
1:5
140
1.0
141
5.0
290
     0
  0
SCALE
  5
47
102
{ACAD_REACTORS
330
42
102
}
330
42
100
AcDbScale
 70
     0
300
1:8
140
1.0
141
8.0
290
     0
  0
SCALE
  5
48
102
{ACAD_REACTORS
330
42
102
}
330
42
100
AcDbScale
 70
     0
300
1:10
140
1.0
141
10.0
290
     0
  0
SCALE
  5
49
102
{ACAD_REACTORS
330
42
102
}
330
42
100
AcDbScale
 70
     0
300
1:16
140
1.0
141
16.0
290
     0
  0
SCALE
  5
4A
102
{ACAD_REACTORS
330
42
102
}
330
42
100
AcDbScale
 70
     0
300
1:20
140
1.0
141
20.0
290
     0
  0
SCALE
  5
4B
102
{ACAD_REACTORS
330
42
102
}
330
42
100
AcDbScale
 70
     0
300
1:30
140
1.0
141
30.0
290
     0
  0
SCALE
  5
4C
102
{ACAD_REACTORS
330
42
102
}
330
42
100
AcDbScale
 70
     0
300
1:40
140
1.0
141
40.0
290
     0
  0
SCALE
  5
4D
102
{ACAD_REACTORS
330
42
102
}
330
42
100
AcDbScale
 70
     0
300
1:50
140
1.0
141
50.0
290
     0
  0
SCALE
  5
4E
102
{ACAD_REACTORS
330
42
102
}
330
42
100
AcDbScale
 70
     0
300
1:100
140
1.0
141
100.0
290
     0
  0
SCALE
  5
4F
102
{ACAD_REACTORS
330
42
102
}
330
42
100
AcDbScale
 70
     0
300
2:1
140
2.0
141
1.0
290
     0
  0
SCALE
  5
50
102
{ACAD_REACTORS
330
42
102
}
330
42
100
AcDbScale
 70
     0
300
4:1
140
4.0
141
1.0
290
     0
  0
SCALE
  5
51
102
{ACAD_REACTORS
330
42
102
}
330
42
100
AcDbScale
 70
     0
300
8:1
140
8.0
141
1.0
290
     0
  0
SCALE
  5
52
102
{ACAD_REACTORS
330
42
102
}
330
42
100
AcDbScale
 70
     0
300
10:1
140
10.0
141
1.0
290
     0
  0
SCALE
  5
53
102
{ACAD_REACTORS
330
42
102
}
330
42
100
AcDbScale
 70
     0
300
100:1
140
100.0
141
1.0
290
     0
  0
ACDBSECTIONVIEWSTYLE
  5
69
102
{ACAD_XDICTIONARY
360
3E0
102
}
102
{ACAD_REACTORS
330
68
102
}
330
68
100
AcDbModelDocViewStyle
 70
     0
  3
Imperial24
290
     0
100
AcDbSectionViewStyle
 70
     0
 71
     0
 90
       78
 71
     1
340
55
 62
   256
 40
0.24
340
0
340
0
 62
   256
 40
0.24
300
I, O, Q, S, X, Z
 40
0.48
 90
        3
 40
0.18
 90
        1
 71
     2
340
5D
 90
       25
 62
   256
340
5D
 90
       50
 62
   256
 40
0.24
 40
0.0
 40
0.24
 71
     3
340
55
 62
   256
 40
0.24
 90
        1
 40
0.75
 90
        1
300
%<\AcVar ViewType \f "%tc1">% %<\AcVar ViewSectionStartId>%-%<\AcVar ViewSectionEndId>%\PVARIA %<\AcVar ViewScale \f "%sn">%
 71
     4
 62
   256
 62
   257
300
ANSI31
 40
1.0
 90
        0
290
     0
290
     0
 90
        6
 40
0.0
 40
1.570796
 40
0.261799
 40
1.308997
 40
-0.261799
 40
1.832596
  0
TABLESTYLE
  5
65
102
{ACAD_XDICTIONARY
360
3DD
102
}
102
{ACAD_REACTORS
330
64
102
}
330
64
100
AcDbTableStyle
280
     0
  3
Standard
 70
     0
 71
     0
 40
1.5
 41
1.5
280
     0
281
     0
  7
Standard
140
0.18
170
     2
 62
     0
 63
     7
283
     0
 90
      512
 91
        0
  1

274
    -2
284
     1
 64
     0
275
    -2
285
     1
 65
     0
276
    -2
286
     1
 66
     0
277
    -2
287
     1
 67
     0
278
    -2
288
     1
 68
     0
279
    -2
289
     1
 69
     0
  7
Standard
140
0.25
170
     5
 62
     0
 63
     7
283
     0
 90
      512
 91
        0
  1

274
    -2
284
     1
 64
     0
275
    -2
285
     1
 65
     0
276
    -2
286
     1
 66
     0
277
    -2
287
     1
 67
     0
278
    -2
288
     1
 68
     0
279
    -2
289
     1
 69
     0
  7
Standard
140
0.18
170
     5
 62
     0
 63
     7
283
     0
 90
      512
 91
        0
  1

274
    -2
284
     1
 64
     0
275
    -2
285
     1
 65
     0
276
    -2
286
     1
 66
     0
277
    -2
287
     1
 67
     0
278
    -2
288
     1
 68
     0
279
    -2
289
     1
 69
     0
  0
VISUALSTYLE
  5
2F
102
{ACAD_REACTORS
330
29
102
}
330
29
100
AcDbVisualStyle
  2
2dWireframe
 70
     4
177
     3
291
     0
 70
    58
 90
        0
176
     1
 90
        2
176
     1
 90
        0
176
     1
 90
        0
176
     1
 40
0.6
176
     1
 40
30.0
176
     1
 62
     7
420
 16777215
176
     1
 90
        1
176
     1
 90
        4
176
     1
 62
     7
176
     1
 62
   257
176
     1
 90
        1
176
     1
 90
        1
176
     1
 40
1.0
176
     1
 90
        0
176
     1
 62
   257
176
     1
 40
1.0
176
     1
 90
        1
176
     1
 90
        6
176
     1
 90
        2
176
     1
 62
     7
176
     1
 90
        5
176
     1
 90
        0
176
     1
 90
        0
176
     1
290
     0
176
     1
 90
        1
176
     1
 40
0.0
176
     1
 90
        0
176
     1
290
     1
176
     1
290
     1
176
     1
290
     0
176
     1
290
     0
176
     1
290
     0
176
     1
290
     0
176
     1
290
     0
176
     1
290
     0
176
     1
290
     0
176
     1
 90
       50
176
     1
 40
0.0
176
     1
 40
1.0
176
     1
 90
        0
176
     1
 62
    18
420
        0
176
     1
 90
       50
176
     1
 90
        3
176
     1
 62
     5
420
      255
176
     1
290
     0
176
     1
 90
       50
176
     1
 90
       50
176
     1
 90
       50
176
     1
290
     0
176
     1
 90
       50
176
     1
 62
   256
176
     0
 40
1.0
176
     0
 90
        2
176
     1
  1
strokes_ogs.tif
176
     1
290
     0
176
     1
 40
1.0
176
     1
 40
1.0
176
     1
1001
ACAD
1000
AcDbSavedByObjectVersion
1070
     0
  0
VISUALSTYLE
  5
2E
102
{ACAD_REACTORS
330
29
102
}
330
29
100
AcDbVisualStyle
  2
Basic
 70
     7
177
     3
291
     1
 70
    58
 90
        1
176
     1
 90
        0
176
     1
 90
        1
176
     1
 90
        0
176
     1
 40
0.6
176
     1
 40
30.0
176
     1
 62
     7
420
 16777215
176
     1
 90
        0
176
     1
 90
        4
176
     1
 62
     7
176
     1
 62
   257
176
     1
 90
        1
176
     1
 90
        1
176
     1
 40
1.0
176
     1
 90
        8
176
     1
 62
     7
176
     1
 40
1.0
176
     1
 90
        1
176
     1
 90
        6
176
     1
 90
        2
176
     1
 62
     7
176
     1
 90
        5
176
     1
 90
        0
176
     1
 90
        0
176
     1
290
     0
176
     1
 90
        1
176
     1
 40
0.0
176
     1
 90
        0
176
     1
290
     0
176
     1
290
     1
176
     1
290
     1
176
     1
290
     0
176
     1
290
     0
176
     1
290
     0
176
     1
290
     0
176
     1
290
     0
176
     1
290
     0
176
     1
 90
       50
176
     1
 40
0.0
176
     1
 40
1.0
176
     1
 90
        0
176
     1
 62
    18
420
        0
176
     1
 90
       50
176
     1
 90
        3
176
     1
 62
     5
420
      255
176
     1
290
     0
176
     1
 90
       50
176
     1
 90
       50
176
     1
 90
       50
176
     1
290
     0
176
     1
 90
       50
176
     1
 62
   256
176
     0
 40
1.0
176
     0
 90
        2
176
     1
  1
strokes_ogs.tif
176
     1
290
     0
176
     1
 40
1.0
176
     1
 40
1.0
176
     1
1001
ACAD
1000
AcDbSavedByObjectVersion
1070
     0
  0
VISUALSTYLE
  5
35
102
{ACAD_REACTORS
330
29
102
}
330
29
100
AcDbVisualStyle
  2
Brighten
 70
    12
177
     3
291
     1
 70
    58
 90
        2
176
     1
 90
        2
176
     1
 90
        0
176
     1
 90
        0
176
     1
 40
0.6
176
     1
 40
30.0
176
     1
 62
     7
420
 16777215
176
     1
 90
        1
176
     1
 90
        4
176
     1
 62
     7
176
     1
 62
   257
176
     1
 90
        1
176
     1
 90
        1
176
     1
 40
1.0
176
     1
 90
        8
176
     1
 62
     7
176
     1
 40
1.0
176
     1
 90
        1
176
     1
 90
        6
176
     1
 90
        2
176
     1
 62
     7
176
     1
 90
        5
176
     1
 90
        0
176
     1
 90
        0
176
     1
290
     0
176
     1
 90
        1
176
     1
 40
50.0
176
     1
 90
        0
176
     1
290
     0
176
     1
290
     1
176
     1
290
     1
176
     1
290
     0
176
     1
290
     0
176
     1
290
     0
176
     1
290
     0
176
     1
290
     0
176
     1
290
     0
176
     1
 90
       50
176
     1
 40
0.0
176
     1
 40
1.0
176
     1
 90
        0
176
     1
 62
    18
420
        0
176
     1
 90
       50
176
     1
 90
        3
176
     1
 62
     5
420
      255
176
     1
290
     0
176
     1
 90
       50
176
     1
 90
       50
176
     1
 90
       50
176
     1
290
     0
176
     1
 90
       50
176
     1
 62
   256
176
     0
 40
1.0
176
     0
 90
        2
176
     1
  1
strokes_ogs.tif
176
     1
290
     0
176
     1
 40
1.0
176
     1
 40
1.0
176
     1
1001
ACAD
1000
AcDbSavedByObjectVersion
1070
     0
  0
VISUALSTYLE
  5
39
102
{ACAD_REACTORS
330
29
102
}
330
29
100
AcDbVisualStyle
  2
ColorChange
 70
    16
177
     3
291
     1
 70
    58
 90
        2
176
     1
 90
        2
176
     1
 90
        3
176
     1
 90
        0
176
     1
 40
0.6
176
     1
 40
30.0
176
     1
 62
     8
420
  8421504
176
     1
 90
        1
176
     1
 90
        4
176
     1
 62
     7
176
     1
 62
   257
176
     1
 90
        1
176
     1
 90
        1
176
     1
 40
1.0
176
     1
 90
        8
176
     1
 62
     8
420
  8421504
176
     1
 40
1.0
176
     1
 90
        1
176
     1
 90
        6
176
     1
 90
        2
176
     1
 62
     7
176
     1
 90
        5
176
     1
 90
        0
176
     1
 90
        0
176
     1
290
     0
176
     1
 90
        1
176
     1
 40
0.0
176
     1
 90
        0
176
     1
290
     0
176
     1
290
     1
176
     1
290
     1
176
     1
290
     0
176
     1
290
     0
176
     1
290
     0
176
     1
290
     0
176
     1
290
     0
176
     1
290
     0
176
     1
 90
       50
176
     1
 40
0.0
176
     1
 40
1.0
176
     1
 90
        0
176
     1
 62
    18
420
        0
176
     1
 90
       50
176
     1
 90
        3
176
     1
 62
     5
420
      255
176
     1
290
     0
176
     1
 90
       50
176
     1
 90
       50
176
     1
 90
       50
176
     1
290
     0
176
     1
 90
       50
176
     1
 62
   256
176
     0
 40
1.0
176
     0
 90
        2
176
     1
  1
strokes_ogs.tif
176
     1
290
     0
176
     1
 40
1.0
176
     1
 40
1.0
176
     1
1001
ACAD
1000
AcDbSavedByObjectVersion
1070
     0
  0
VISUALSTYLE
  5
32
102
{ACAD_REACTORS
330
29
102
}
330
29
100
AcDbVisualStyle
  2
Conceptual
 70
     9
177
     3
291
     0
 70
    58
 90
        3
176
     1
 90
        2
176
     1
 90
        0
176
     1
 90
        0
176
     1
 40
0.6
176
     1
 40
30.0
176
     1
 62
     7
420
 16777215
176
     1
 90
        2
176
     1
 90
        2
176
     1
 62
     7
176
     1
 62
   257
176
     1
 90
        1
176
     1
 90
        1
176
     1
 40
179.0
176
     1
 90
        8
176
     1
 62
     7
176
     1
 40
1.0
176
     1
 90
        1
176
     1
 90
        6
176
     1
 90
        2
176
     1
 62
     7
176
     1
 90
        3
176
     1
 90
        0
176
     1
 90
        0
176
     1
290
     0
176
     1
 90
        1
176
     1
 40
0.0
176
     1
 90
        0
176
     1
290
     0
176
     1
290
     1
176
     1
290
     1
176
     1
290
     0
176
     1
290
     0
176
     1
290
     0
176
     1
290
     0
176
     1
290
     0
176
     1
290
     0
176
     1
 90
       50
176
     1
 40
0.0
176
     1
 40
1.0
176
     1
 90
        0
176
     1
 62
    18
420
        0
176
     1
 90
       50
176
     1
 90
        3
176
     1
 62
     5
420
      255
176
     1
290
     0
176
     1
 90
       50
176
     1
 90
       50
176
     1
 90
       50
176
     1
290
     0
176
     1
 90
       50
176
     1
 62
   256
176
     0
 40
1.0
176
     0
 90
        2
176
     1
  1
strokes_ogs.tif
176
     1
290
     0
176
     1
 40
1.0
176
     1
 40
1.0
176
     1
1001
ACAD
1000
AcDbSavedByObjectVersion
1070
     0
  0
VISUALSTYLE
  5
34
102
{ACAD_REACTORS
330
29
102
}
330
29
100
AcDbVisualStyle
  2
Dim
 70
    11
177
     3
291
     1
 70
    58
 90
        2
176
     1
 90
        2
176
     1
 90
        0
176
     1
 90
        0
176
     1
 40
0.6
176
     1
 40
30.0
176
     1
 62
     7
420
 16777215
176
     1
 90
        1
176
     1
 90
        4
176
     1
 62
     7
176
     1
 62
   257
176
     1
 90
        1
176
     1
 90
        1
176
     1
 40
1.0
176
     1
 90
        8
176
     1
 62
     7
176
     1
 40
1.0
176
     1
 90
        1
176
     1
 90
        6
176
     1
 90
        2
176
     1
 62
     7
176
     1
 90
        5
176
     1
 90
        0
176
     1
 90
        0
176
     1
290
     0
176
     1
 90
        1
176
     1
 40
-50.0
176
     1
 90
        0
176
     1
290
     0
176
     1
290
     1
176
     1
290
     1
176
     1
290
     0
176
     1
290
     0
176
     1
290
     0
176
     1
290
     0
176
     1
290
     0
176
     1
290
     0
176
     1
 90
       50
176
     1
 40
0.0
176
     1
 40
1.0
176
     1
 90
        0
176
     1
 62
    18
420
        0
176
     1
 90
       50
176
     1
 90
        3
176
     1
 62
     5
420
      255
176
     1
290
     0
176
     1
 90
       50
176
     1
 90
       50
176
     1
 90
       50
176
     1
290
     0
176
     1
 90
       50
176
     1
 62
   256
176
     0
 40
1.0
176
     0
 90
        2
176
     1
  1
strokes_ogs.tif
176
     1
290
     0
176
     1
 40
1.0
176
     1
 40
1.0
176
     1
1001
ACAD
1000
AcDbSavedByObjectVersion
1070
     0
  0
VISUALSTYLE
  5
41
102
{ACAD_REACTORS
330
29
102
}
330
29
100
AcDbVisualStyle
  2
EdgeColorOff
 70
    22
177
     3
291
     1
 70
    58
 90
        2
176
     0
 90
        2
176
     0
 90
        0
176
     0
 90
        0
176
     0
 40
0.6
176
     0
 40
30.0
176
     0
 62
     7
420
 16777215
176
     0
 90
        1
176
     0
 90
        4
176
     0
 62
     7
176
     0
 62
   257
176
     0
 90
        1
176
     0
 90
        1
176
     0
 40
1.0
176
     0
 90
        8
176
     2
 62
     7
176
     0
 40
1.0
176
     0
 90
        1
176
     0
 90
        6
176
     0
 90
        2
176
     0
 62
     7
176
     0
 90
        5
176
     0
 90
        0
176
     0
 90
        0
176
     0
290
     0
176
     0
 90
        1
176
     0
 40
0.0
176
     0
 90
        0
176
     0
290
     0
176
     0
290
     1
176
     0
290
     1
176
     0
290
     0
176
     0
290
     0
176
     0
290
     0
176
     0
290
     0
176
     0
290
     0
176
     0
290
     0
176
     0
 90
       50
176
     0
 40
0.0
176
     0
 40
1.0
176
     0
 90
        0
176
     0
 62
    18
420
        0
176
     0
 90
       50
176
     0
 90
        3
176
     0
 62
     5
420
      255
176
     0
290
     0
176
     0
 90
       50
176
     0
 90
       50
176
     0
 90
       50
176
     0
290
     0
176
     0
 90
       50
176
     0
 62
   256
176
     0
 40
1.0
176
     0
 90
        2
176
     0
  1
strokes_ogs.tif
176
     0
290
     0
176
     0
 40
1.0
176
     0
 40
1.0
176
     0
1001
ACAD
1000
AcDbSavedByObjectVersion
1070
     0
  0
VISUALSTYLE
  5
38
102
{ACAD_REACTORS
330
29
102
}
330
29
100
AcDbVisualStyle
  2
Facepattern
 70
    15
177
     3
291
     1
 70
    58
 90
        2
176
     1
 90
        2
176
     1
 90
        0
176
     1
 90
        0
176
     1
 40
0.6
176
     1
 40
30.0
176
     1
 62
     7
420
 16777215
176
     1
 90
        1
176
     1
 90
        4
176
     1
 62
     7
176
     1
 62
   257
176
     1
 90
        1
176
     1
 90
        1
176
     1
 40
1.0
176
     1
 90
        8
176
     1
 62
     7
176
     1
 40
1.0
176
     1
 90
        1
176
     1
 90
        6
176
     1
 90
        2
176
     1
 62
     7
176
     1
 90
        5
176
     1
 90
        0
176
     1
 90
        0
176
     1
290
     0
176
     1
 90
        1
176
     1
 40
0.0
176
     1
 90
        0
176
     1
290
     0
176
     1
290
     1
176
     1
290
     1
176
     1
290
     0
176
     1
290
     0
176
     1
290
     0
176
     1
290
     0
176
     1
290
     0
176
     1
290
     0
176
     1
 90
       50
176
     1
 40
0.0
176
     1
 40
1.0
176
     1
 90
        0
176
     1
 62
    18
420
        0
176
     1
 90
       50
176
     1
 90
        3
176
     1
 62
     5
420
      255
176
     1
290
     0
176
     1
 90
       50
176
     1
 90
       50
176
     1
 90
       50
176
     1
290
     0
176
     1
 90
       50
176
     1
 62
   256
176
     0
 40
1.0
176
     0
 90
        2
176
     1
  1
strokes_ogs.tif
176
     1
290
     0
176
     1
 40
1.0
176
     1
 40
1.0
176
     1
1001
ACAD
1000
AcDbSavedByObjectVersion
1070
     0
  0
VISUALSTYLE
  5
2A
102
{ACAD_REACTORS
330
29
102
}
330
29
100
AcDbVisualStyle
  2
Flat
 70
     0
177
     3
291
     1
 70
    58
 90
        2
176
     1
 90
        1
176
     1
 90
        1
176
     1
 90
        2
176
     1
 40
0.6
176
     1
 40
30.0
176
     1
 62
     7
420
 16777215
176
     1
 90
        0
176
     1
 90
        0
176
     1
 62
     7
176
     1
 62
   257
176
     1
 90
        1
176
     1
 90
        1
176
     1
 40
1.0
176
     1
 90
        8
176
     1
 62
     7
176
     1
 40
1.0
176
     1
 90
        1
176
     1
 90
        6
176
     1
 90
        2
176
     1
 62
     7
176
     1
 90
        5
176
     1
 90
        0
176
     1
 90
        0
176
     1
290
     0
176
     1
 90
       13
176
     1
 40
0.0
176
     1
 90
        0
176
     1
290
     0
176
     1
290
     1
176
     1
290
     1
176
     1
290
     0
176
     1
290
     0
176
     1
290
     0
176
     1
290
     0
176
     1
290
     0
176
     1
290
     0
176
     1
 90
       50
176
     1
 40
0.0
176
     1
 40
1.0
176
     1
 90
        0
176
     1
 62
    18
420
        0
176
     1
 90
       50
176
     1
 90
        3
176
     1
 62
     5
420
      255
176
     1
290
     0
176
     1
 90
       50
176
     1
 90
       50
176
     1
 90
       50
176
     1
290
     0
176
     1
 90
       50
176
     1
 62
   256
176
     0
 40
1.0
176
     0
 90
        2
176
     1
  1
strokes_ogs.tif
176
     1
290
     0
176
     1
 40
1.0
176
     1
 40
1.0
176
     1
1001
ACAD
1000
AcDbSavedByObjectVersion
1070
     0
  0
VISUALSTYLE
  5
2B
102
{ACAD_REACTORS
330
29
102
}
330
29
100
AcDbVisualStyle
  2
FlatWithEdges
 70
     1
177
     3
291
     1
 70
    58
 90
        2
176
     1
 90
        1
176
     1
 90
        1
176
     1
 90
        2
176
     1
 40
0.6
176
     1
 40
30.0
176
     1
 62
     7
420
 16777215
176
     1
 90
        1
176
     1
 90
        0
176
     1
 62
     7
176
     1
 62
   257
176
     1
 90
        1
176
     1
 90
        1
176
     1
 40
1.0
176
     1
 90
        0
176
     1
 62
   257
176
     1
 40
1.0
176
     1
 90
        1
176
     1
 90
        6
176
     1
 90
        2
176
     1
 62
     7
176
     1
 90
        5
176
     1
 90
        0
176
     1
 90
        0
176
     1
290
     0
176
     1
 90
       13
176
     1
 40
0.0
176
     1
 90
        0
176
     1
290
     0
176
     1
290
     1
176
     1
290
     1
176
     1
290
     0
176
     1
290
     0
176
     1
290
     0
176
     1
290
     0
176
     1
290
     0
176
     1
290
     0
176
     1
 90
       50
176
     1
 40
0.0
176
     1
 40
1.0
176
     1
 90
        0
176
     1
 62
    18
420
        0
176
     1
 90
       50
176
     1
 90
        3
176
     1
 62
     5
420
      255
176
     1
290
     0
176
     1
 90
       50
176
     1
 90
       50
176
     1
 90
       50
176
     1
290
     0
176
     1
 90
       50
176
     1
 62
   256
176
     0
 40
1.0
176
     0
 90
        2
176
     1
  1
strokes_ogs.tif
176
     1
290
     0
176
     1
 40
1.0
176
     1
 40
1.0
176
     1
1001
ACAD
1000
AcDbSavedByObjectVersion
1070
     0
  0
VISUALSTYLE
  5
2C
102
{ACAD_REACTORS
330
29
102
}
330
29
100
AcDbVisualStyle
  2
Gouraud
 70
     2
177
     3
291
     1
 70
    58
 90
        2
176
     1
 90
        2
176
     1
 90
        1
176
     1
 90
        2
176
     1
 40
0.6
176
     1
 40
30.0
176
     1
 62
     7
420
 16777215
176
     1
 90
        0
176
     1
 90
        0
176
     1
 62
     7
176
     1
 62
   257
176
     1
 90
        1
176
     1
 90
        1
176
     1
 40
1.0
176
     1
 90
        0
176
     1
 62
     7
176
     1
 40
1.0
176
     1
 90
        1
176
     1
 90
        6
176
     1
 90
        2
176
     1
 62
     7
176
     1
 90
        5
176
     1
 90
        0
176
     1
 90
        0
176
     1
290
     0
176
     1
 90
       13
176
     1
 40
0.0
176
     1
 90
        0
176
     1
290
     0
176
     1
290
     1
176
     1
290
     1
176
     1
290
     0
176
     1
290
     0
176
     1
290
     0
176
     1
290
     0
176
     1
290
     0
176
     1
290
     0
176
     1
 90
       50
176
     1
 40
0.0
176
     1
 40
1.0
176
     1
 90
        0
176
     1
 62
    18
420
        0
176
     1
 90
       50
176
     1
 90
        3
176
     1
 62
     5
420
      255
176
     1
290
     0
176
     1
 90
       50
176
     1
 90
       50
176
     1
 90
       50
176
     1
290
     0
176
     1
 90
       50
176
     1
 62
   256
176
     0
 40
1.0
176
     0
 90
        2
176
     1
  1
strokes_ogs.tif
176
     1
290
     0
176
     1
 40
1.0
176
     1
 40
1.0
176
     1
1001
ACAD
1000
AcDbSavedByObjectVersion
1070
     0
  0
VISUALSTYLE
  5
2D
102
{ACAD_REACTORS
330
29
102
}
330
29
100
AcDbVisualStyle
  2
GouraudWithEdges
 70
     3
177
     3
291
     1
 70
    58
 90
        2
176
     1
 90
        2
176
     1
 90
        1
176
     1
 90
        2
176
     1
 40
0.6
176
     1
 40
30.0
176
     1
 62
     7
420
 16777215
176
     1
 90
        1
176
     1
 90
        0
176
     1
 62
     7
176
     1
 62
   257
176
     1
 90
        1
176
     1
 90
        1
176
     1
 40
1.0
176
     1
 90
        0
176
     1
 62
   257
176
     1
 40
1.0
176
     1
 90
        1
176
     1
 90
        6
176
     1
 90
        2
176
     1
 62
     7
176
     1
 90
        5
176
     1
 90
        0
176
     1
 90
        0
176
     1
290
     0
176
     1
 90
       13
176
     1
 40
0.0
176
     1
 90
        0
176
     1
290
     0
176
     1
290
     1
176
     1
290
     1
176
     1
290
     0
176
     1
290
     0
176
     1
290
     0
176
     1
290
     0
176
     1
290
     0
176
     1
290
     0
176
     1
 90
       50
176
     1
 40
0.0
176
     1
 40
1.0
176
     1
 90
        0
176
     1
 62
    18
420
        0
176
     1
 90
       50
176
     1
 90
        3
176
     1
 62
     5
420
      255
176
     1
290
     0
176
     1
 90
       50
176
     1
 90
       50
176
     1
 90
       50
176
     1
290
     0
176
     1
 90
       50
176
     1
 62
   256
176
     0
 40
1.0
176
     0
 90
        2
176
     1
  1
strokes_ogs.tif
176
     1
290
     0
176
     1
 40
1.0
176
     1
 40
1.0
176
     1
1001
ACAD
1000
AcDbSavedByObjectVersion
1070
     0
  0
VISUALSTYLE
  5
31
102
{ACAD_REACTORS
330
29
102
}
330
29
100
AcDbVisualStyle
  2
Hidden
 70
     6
177
     3
291
     0
 70
    58
 90
        1
176
     1
 90
        2
176
     1
 90
        2
176
     1
 90
        0
176
     1
 40
0.6
176
     1
 40
30.0
176
     1
 62
     7
420
 16777215
176
     1
 90
        2
176
     1
 90
        2
176
     1
 62
     7
176
     1
 62
   257
176
     1
 90
        2
176
     1
 90
        1
176
     1
 40
40.0
176
     1
 90
        0
176
     1
 62
   257
176
     1
 40
1.0
176
     1
 90
        1
176
     1
 90
        6
176
     1
 90
        2
176
     1
 62
     7
176
     1
 90
        3
176
     1
 90
        0
176
     1
 90
        0
176
     1
290
     0
176
     1
 90
        1
176
     1
 40
0.0
176
     1
 90
        0
176
     1
290
     0
176
     1
290
     1
176
     1
290
     1
176
     1
290
     0
176
     1
290
     0
176
     1
290
     0
176
     1
290
     0
176
     1
290
     0
176
     1
290
     0
176
     1
 90
       50
176
     1
 40
0.0
176
     1
 40
1.0
176
     1
 90
        0
176
     1
 62
    18
420
        0
176
     1
 90
       50
176
     1
 90
        3
176
     1
 62
     5
420
      255
176
     1
290
     0
176
     1
 90
       50
176
     1
 90
       50
176
     1
 90
       50
176
     1
290
     0
176
     1
 90
       50
176
     1
 62
   256
176
     0
 40
1.0
176
     0
 90
        2
176
     1
  1
strokes_ogs.tif
176
     1
290
     0
176
     1
 40
1.0
176
     1
 40
1.0
176
     1
1001
ACAD
1000
AcDbSavedByObjectVersion
1070
     0
  0
VISUALSTYLE
  5
3F
102
{ACAD_REACTORS
330
29
102
}
330
29
100
AcDbVisualStyle
  2
JitterOff
 70
    20
177
     3
291
     1
 70
    58
 90
        2
176
     0
 90
        2
176
     0
 90
        0
176
     0
 90
        0
176
     0
 40
0.6
176
     0
 40
30.0
176
     0
 62
     7
420
 16777215
176
     0
 90
        1
176
     0
 90
        4
176
     0
 62
     7
176
     0
 62
   257
176
     0
 90
        1
176
     0
 90
        1
176
     0
 40
1.0
176
     0
 90
       10
176
     2
 62
     7
176
     0
 40
1.0
176
     0
 90
        1
176
     0
 90
        6
176
     0
 90
        2
176
     0
 62
     7
176
     0
 90
        5
176
     0
 90
        0
176
     0
 90
        0
176
     0
290
     0
176
     0
 90
        1
176
     0
 40
0.0
176
     0
 90
        0
176
     0
290
     0
176
     0
290
     1
176
     0
290
     1
176
     0
290
     0
176
     0
290
     0
176
     0
290
     0
176
     0
290
     0
176
     0
290
     0
176
     0
290
     0
176
     0
 90
       50
176
     0
 40
0.0
176
     0
 40
1.0
176
     0
 90
        0
176
     0
 62
    18
420
        0
176
     0
 90
       50
176
     0
 90
        3
176
     0
 62
     5
420
      255
176
     0
290
     0
176
     0
 90
       50
176
     0
 90
       50
176
     0
 90
       50
176
     0
290
     0
176
     0
 90
       50
176
     0
 62
   256
176
     0
 40
1.0
176
     0
 90
        2
176
     0
  1
strokes_ogs.tif
176
     0
290
     0
176
     0
 40
1.0
176
     0
 40
1.0
176
     0
1001
ACAD
1000
AcDbSavedByObjectVersion
1070
     0
  0
VISUALSTYLE
  5
37
102
{ACAD_REACTORS
330
29
102
}
330
29
100
AcDbVisualStyle
  2
Linepattern
 70
    14
177
     3
291
     1
 70
    58
 90
        2
176
     1
 90
        2
176
     1
 90
        0
176
     1
 90
        0
176
     1
 40
0.6
176
     1
 40
30.0
176
     1
 62
     7
420
 16777215
176
     1
 90
        1
176
     1
 90
        4
176
     1
 62
     7
176
     1
 62
   257
176
     1
 90
        7
176
     1
 90
        7
176
     1
 40
1.0
176
     1
 90
        8
176
     1
 62
     7
176
     1
 40
1.0
176
     1
 90
        1
176
     1
 90
        6
176
     1
 90
        2
176
     1
 62
     7
176
     1
 90
        5
176
     1
 90
        0
176
     1
 90
        0
176
     1
290
     0
176
     1
 90
        1
176
     1
 40
0.0
176
     1
 90
        0
176
     1
290
     0
176
     1
290
     1
176
     1
290
     1
176
     1
290
     0
176
     1
290
     0
176
     1
290
     0
176
     1
290
     0
176
     1
290
     0
176
     1
290
     0
176
     1
 90
       50
176
     1
 40
0.0
176
     1
 40
1.0
176
     1
 90
        0
176
     1
 62
    18
420
        0
176
     1
 90
       50
176
     1
 90
        3
176
     1
 62
     5
420
      255
176
     1
290
     0
176
     1
 90
       50
176
     1
 90
       50
176
     1
 90
       50
176
     1
290
     0
176
     1
 90
       50
176
     1
 62
   256
176
     0
 40
1.0
176
     0
 90
        2
176
     1
  1
strokes_ogs.tif
176
     1
290
     0
176
     1
 40
1.0
176
     1
 40
1.0
176
     1
1001
ACAD
1000
AcDbSavedByObjectVersion
1070
     0
  0
VISUALSTYLE
  5
40
102
{ACAD_REACTORS
330
29
102
}
330
29
100
AcDbVisualStyle
  2
OverhangOff
 70
    21
177
     3
291
     1
 70
    58
 90
        2
176
     0
 90
        2
176
     0
 90
        0
176
     0
 90
        0
176
     0
 40
0.6
176
     0
 40
30.0
176
     0
 62
     7
420
 16777215
176
     0
 90
        1
176
     0
 90
        4
176
     0
 62
     7
176
     0
 62
   257
176
     0
 90
        1
176
     0
 90
        1
176
     0
 40
1.0
176
     0
 90
        9
176
     2
 62
     7
176
     0
 40
1.0
176
     0
 90
        1
176
     0
 90
        6
176
     0
 90
        2
176
     0
 62
     7
176
     0
 90
        5
176
     0
 90
        0
176
     0
 90
        0
176
     0
290
     0
176
     0
 90
        1
176
     0
 40
0.0
176
     0
 90
        0
176
     0
290
     0
176
     0
290
     1
176
     0
290
     1
176
     0
290
     0
176
     0
290
     0
176
     0
290
     0
176
     0
290
     0
176
     0
290
     0
176
     0
290
     0
176
     0
 90
       50
176
     0
 40
0.0
176
     0
 40
1.0
176
     0
 90
        0
176
     0
 62
    18
420
        0
176
     0
 90
       50
176
     0
 90
        3
176
     0
 62
     5
420
      255
176
     0
290
     0
176
     0
 90
       50
176
     0
 90
       50
176
     0
 90
       50
176
     0
290
     0
176
     0
 90
       50
176
     0
 62
   256
176
     0
 40
1.0
176
     0
 90
        2
176
     0
  1
strokes_ogs.tif
176
     0
290
     0
176
     0
 40
1.0
176
     0
 40
1.0
176
     0
1001
ACAD
1000
AcDbSavedByObjectVersion
1070
     0
  0
VISUALSTYLE
  5
33
102
{ACAD_REACTORS
330
29
102
}
330
29
100
AcDbVisualStyle
  2
Realistic
 70
     8
177
     3
291
     0
 70
    58
 90
        2
176
     1
 90
        3
176
     1
 90
        0
176
     1
 90
        2
176
     1
 40
0.6
176
     1
 40
30.0
176
     1
 62
     7
420
 16777215
176
     1
 90
        0
176
     1
 90
        0
176
     1
 62
     7
176
     1
 62
   257
176
     1
 90
        1
176
     1
 90
        1
176
     1
 40
1.0
176
     1
 90
        8
176
     1
 62
   257
176
     1
 40
1.0
176
     1
 90
        1
176
     1
 90
        6
176
     1
 90
        2
176
     1
 62
     7
176
     1
 90
        3
176
     1
 90
        0
176
     1
 90
        0
176
     1
290
     0
176
     1
 90
       13
176
     1
 40
0.0
176
     1
 90
        0
176
     1
290
     0
176
     1
290
     1
176
     1
290
     1
176
     1
290
     0
176
     1
290
     0
176
     1
290
     0
176
     1
290
     0
176
     1
290
     0
176
     1
290
     0
176
     1
 90
       50
176
     1
 40
0.0
176
     1
 40
1.0
176
     1
 90
        0
176
     1
 62
    18
420
        0
176
     1
 90
       50
176
     1
 90
        3
176
     1
 62
     5
420
      255
176
     1
290
     0
176
     1
 90
       50
176
     1
 90
       50
176
     1
 90
       50
176
     1
290
     0
176
     1
 90
       50
176
     1
 62
   256
176
     0
 40
1.0
176
     0
 90
        2
176
     1
  1
strokes_ogs.tif
176
     1
290
     0
176
     1
 40
1.0
176
     1
 40
1.0
176
     1
1001
ACAD
1000
AcDbSavedByObjectVersion
1070
     0
  0
VISUALSTYLE
  5
3E
102
{ACAD_REACTORS
330
29
102
}
330
29
100
AcDbVisualStyle
  2
Shaded
 70
    27
177
     3
291
     0
 70
    58
 90
        2
176
     1
 90
        2
176
     1
 90
        1
176
     1
 90
        2
176
     1
 40
0.6
176
     1
 40
30.0
176
     1
 62
     7
420
 16777215
176
     1
 90
        0
176
     1
 90
        4
176
     1
 62
     7
176
     1
 62
   257
176
     1
 90
        1
176
     1
 90
        1
176
     1
 40
1.0
176
     1
 90
        8
176
     1
 62
   257
176
     1
 40
1.0
176
     1
 90
        1
176
     1
 90
        6
176
     1
 90
        2
176
     1
 62
     8
420
  7895160
176
     1
 90
        3
176
     1
 90
        0
176
     1
 90
        0
176
     1
290
     0
176
     1
 90
        5
176
     1
 40
0.0
176
     1
 90
        0
176
     1
290
     0
176
     1
290
     1
176
     1
290
     1
176
     1
290
     0
176
     1
290
     0
176
     1
290
     0
176
     1
290
     0
176
     1
290
     0
176
     1
290
     0
176
     1
 90
       50
176
     1
 40
0.0
176
     1
 40
1.0
176
     1
 90
        0
176
     1
 62
    18
420
        0
176
     1
 90
       50
176
     1
 90
        3
176
     1
 62
     5
420
      255
176
     1
290
     0
176
     1
 90
       50
176
     1
 90
       50
176
     1
 90
       50
176
     1
290
     0
176
     1
 90
       50
176
     1
 62
   256
176
     0
 40
1.0
176
     0
 90
        2
176
     1
  1
strokes_ogs.tif
176
     1
290
     0
176
     1
 40
1.0
176
     1
 40
1.0
176
     1
1001
ACAD
1000
AcDbSavedByObjectVersion
1070
     0
  0
VISUALSTYLE
  5
3D
102
{ACAD_REACTORS
330
29
102
}
330
29
100
AcDbVisualStyle
  2
Shaded with edges
 70
    26
177
     3
291
     0
 70
    58
 90
        2
176
     1
 90
        2
176
     1
 90
        1
176
     1
 90
        2
176
     1
 40
0.6
176
     1
 40
30.0
176
     1
 62
     7
420
 16777215
176
     1
 90
        1
176
     1
 90
        2
176
     1
 62
     7
176
     1
 62
   257
176
     1
 90
        2
176
     1
 90
        1
176
     1
 40
1.0
176
     1
 90
        8
176
     1
 62
   257
176
     1
 40
1.0
176
     1
 90
        1
176
     1
 90
        6
176
     1
 90
        2
176
     1
 62
     7
176
     1
 90
        3
176
     1
 90
        0
176
     1
 90
        0
176
     1
290
     0
176
     1
 90
        5
176
     1
 40
0.0
176
     1
 90
        0
176
     1
290
     0
176
     1
290
     1
176
     1
290
     1
176
     1
290
     0
176
     1
290
     0
176
     1
290
     0
176
     1
290
     0
176
     1
290
     0
176
     1
290
     0
176
     1
 90
       50
176
     1
 40
0.0
176
     1
 40
1.0
176
     1
 90
        0
176
     1
 62
    18
420
        0
176
     1
 90
       50
176
     1
 90
        3
176
     1
 62
     5
420
      255
176
     1
290
     0
176
     1
 90
       50
176
     1
 90
       50
176
     1
 90
       50
176
     1
290
     0
176
     1
 90
       50
176
     1
 62
   256
176
     0
 40
1.0
176
     0
 90
        2
176
     1
  1
strokes_ogs.tif
176
     1
290
     0
176
     1
 40
1.0
176
     1
 40
1.0
176
     1
1001
ACAD
1000
AcDbSavedByObjectVersion
1070
     0
  0
VISUALSTYLE
  5
3A
102
{ACAD_REACTORS
330
29
102
}
330
29
100
AcDbVisualStyle
  2
Shades of Gray
 70
    23
177
     3
291
     0
 70
    58
 90
        2
176
     1
 90
        2
176
     1
 90
        3
176
     1
 90
        0
176
     1
 40
0.6
176
     1
 40
30.0
176
     1
 62
     7
420
 16777215
176
     1
 90
        2
176
     1
 90
        2
176
     1
 62
     7
176
     1
 62
     7
176
     1
 90
        1
176
     1
 90
        1
176
     1
 40
40.0
176
     1
 90
        8
176
     1
 62
     7
176
     1
 40
1.0
176
     1
 90
        1
176
     1
 90
        6
176
     1
 90
        2
176
     1
 62
     7
176
     1
 90
        3
176
     1
 90
        0
176
     1
 90
        0
176
     1
290
     0
176
     1
 90
        1
176
     1
 40
0.0
176
     1
 90
        0
176
     1
290
     0
176
     1
290
     1
176
     1
290
     1
176
     1
290
     0
176
     1
290
     0
176
     1
290
     0
176
     1
290
     0
176
     1
290
     0
176
     1
290
     0
176
     1
 90
       50
176
     1
 40
0.0
176
     1
 40
1.0
176
     1
 90
        0
176
     1
 62
    18
420
        0
176
     1
 90
       50
176
     1
 90
        3
176
     1
 62
     5
420
      255
176
     1
290
     0
176
     1
 90
       50
176
     1
 90
       50
176
     1
 90
       50
176
     1
290
     0
176
     1
 90
       50
176
     1
 62
   256
176
     0
 40
1.0
176
     0
 90
        2
176
     1
  1
strokes_ogs.tif
176
     1
290
     0
176
     1
 40
1.0
176
     1
 40
1.0
176
     1
1001
ACAD
1000
AcDbSavedByObjectVersion
1070
     0
  0
VISUALSTYLE
  5
3B
102
{ACAD_REACTORS
330
29
102
}
330
29
100
AcDbVisualStyle
  2
Sketchy
 70
    24
177
     3
291
     0
 70
    58
 90
        1
176
     1
 90
        2
176
     1
 90
        2
176
     1
 90
        0
176
     1
 40
0.6
176
     1
 40
30.0
176
     1
 62
     7
420
 16777215
176
     1
 90
        2
176
     1
 90
        2
176
     1
 62
     7
176
     1
 62
     7
176
     1
 90
        1
176
     1
 90
        1
176
     1
 40
40.0
176
     1
 90
       11
176
     1
 62
     7
176
     1
 40
1.0
176
     1
 90
        1
176
     1
 90
        6
176
     1
 90
        2
176
     1
 62
     7
176
     1
 90
        6
176
     1
 90
        0
176
     1
 90
        0
176
     1
290
     0
176
     1
 90
        1
176
     1
 40
0.0
176
     1
 90
        0
176
     1
290
     0
176
     1
290
     1
176
     1
290
     1
176
     1
290
     0
176
     1
290
     0
176
     1
290
     0
176
     1
290
     0
176
     1
290
     0
176
     1
290
     0
176
     1
 90
       50
176
     1
 40
0.0
176
     1
 40
1.0
176
     1
 90
        0
176
     1
 62
    18
420
        0
176
     1
 90
       50
176
     1
 90
        3
176
     1
 62
     5
420
      255
176
     1
290
     0
176
     1
 90
       50
176
     1
 90
       50
176
     1
 90
       50
176
     1
290
     0
176
     1
 90
       50
176
     1
 62
   256
176
     0
 40
1.0
176
     0
 90
        2
176
     1
  1
strokes_ogs.tif
176
     1
290
     0
176
     1
 40
1.0
176
     1
 40
1.0
176
     1
1001
ACAD
1000
AcDbSavedByObjectVersion
1070
     0
  0
VISUALSTYLE
  5
36
102
{ACAD_REACTORS
330
29
102
}
330
29
100
AcDbVisualStyle
  2
Thicken
 70
    13
177
     3
291
     1
 70
    58
 90
        2
176
     1
 90
        2
176
     1
 90
        0
176
     1
 90
        0
176
     1
 40
0.6
176
     1
 40
30.0
176
     1
 62
     7
420
 16777215
176
     1
 90
        1
176
     1
 90
        4
176
     1
 62
     7
176
     1
 62
   257
176
     1
 90
        1
176
     1
 90
        1
176
     1
 40
1.0
176
     1
 90
       12
176
     1
 62
     7
176
     1
 40
1.0
176
     1
 90
        1
176
     1
 90
        6
176
     1
 90
        2
176
     1
 62
     7
176
     1
 90
        5
176
     1
 90
        0
176
     1
 90
        0
176
     1
290
     0
176
     1
 90
        1
176
     1
 40
0.0
176
     1
 90
        0
176
     1
290
     0
176
     1
290
     1
176
     1
290
     1
176
     1
290
     0
176
     1
290
     0
176
     1
290
     0
176
     1
290
     0
176
     1
290
     0
176
     1
290
     0
176
     1
 90
       50
176
     1
 40
0.0
176
     1
 40
1.0
176
     1
 90
        0
176
     1
 62
    18
420
        0
176
     1
 90
       50
176
     1
 90
        3
176
     1
 62
     5
420
      255
176
     1
290
     0
176
     1
 90
       50
176
     1
 90
       50
176
     1
 90
       50
176
     1
290
     0
176
     1
 90
       50
176
     1
 62
   256
176
     0
 40
1.0
176
     0
 90
        2
176
     1
  1
strokes_ogs.tif
176
     1
290
     0
176
     1
 40
1.0
176
     1
 40
1.0
176
     1
1001
ACAD
1000
AcDbSavedByObjectVersion
1070
     0
  0
VISUALSTYLE
  5
30
102
{ACAD_REACTORS
330
29
102
}
330
29
100
AcDbVisualStyle
  2
Wireframe
 70
     5
177
     3
291
     0
 70
    58
 90
        0
176
     1
 90
        2
176
     1
 90
        0
176
     1
 90
        0
176
     1
 40
0.6
176
     1
 40
30.0
176
     1
 62
     7
420
 16777215
176
     1
 90
        1
176
     1
 90
        4
176
     1
 62
     7
176
     1
 62
   257
176
     1
 90
        1
176
     1
 90
        1
176
     1
 40
1.0
176
     1
 90
        0
176
     1
 62
   257
176
     1
 40
1.0
176
     1
 90
        1
176
     1
 90
        6
176
     1
 90
        2
176
     1
 62
     7
176
     1
 90
        3
176
     1
 90
        0
176
     1
 90
        0
176
     1
290
     0
176
     1
 90
        1
176
     1
 40
0.0
176
     1
 90
        0
176
     1
290
     0
176
     1
290
     1
176
     1
290
     1
176
     1
290
     0
176
     1
290
     0
176
     1
290
     0
176
     1
290
     0
176
     1
290
     0
176
     1
290
     0
176
     1
 90
       50
176
     1
 40
0.0
176
     1
 40
1.0
176
     1
 90
        0
176
     1
 62
    18
420
        0
176
     1
 90
       50
176
     1
 90
        3
176
     1
 62
     5
420
      255
176
     1
290
     0
176
     1
 90
       50
176
     1
 90
       50
176
     1
 90
       50
176
     1
290
     0
176
     1
 90
       50
176
     1
 62
   256
176
     0
 40
1.0
176
     0
 90
        2
176
     1
  1
strokes_ogs.tif
176
     1
290
     0
176
     1
 40
1.0
176
     1
 40
1.0
176
     1
1001
ACAD
1000
AcDbSavedByObjectVersion
1070
     0
  0
VISUALSTYLE
  5
3C
102
{ACAD_REACTORS
330
29
102
}
330
29
100
AcDbVisualStyle
  2
X-Ray
 70
    25
177
     3
291
     0
 70
    58
 90
        2
176
     1
 90
        2
176
     1
 90
        1
176
     1
 90
        1
176
     1
 40
0.5
176
     1
 40
30.0
176
     1
 62
     7
420
 16777215
176
     1
 90
        1
176
     1
 90
        0
176
     1
 62
     7
176
     1
 62
   257
176
     1
 90
        1
176
     1
 90
        1
176
     1
 40
1.0
176
     1
 90
        8
176
     1
 62
     7
176
     1
 40
1.0
176
     1
 90
        1
176
     1
 90
        6
176
     1
 90
        2
176
     1
 62
     7
176
     1
 90
        3
176
     1
 90
        0
176
     1
 90
        0
176
     1
290
     0
176
     1
 90
       13
176
     1
 40
0.0
176
     1
 90
        0
176
     1
290
     0
176
     1
290
     1
176
     1
290
     1
176
     1
290
     0
176
     1
290
     0
176
     1
290
     0
176
     1
290
     0
176
     1
290
     0
176
     1
290
     0
176
     1
 90
       50
176
     1
 40
0.0
176
     1
 40
1.0
176
     1
 90
        0
176
     1
 62
    18
420
        0
176
     1
 90
       50
176
     1
 90
        3
176
     1
 62
     5
420
      255
176
     1
290
     0
176
     1
 90
       50
176
     1
 90
       50
176
     1
 90
       50
176
     1
290
     0
176
     1
 90
       50
176
     1
 62
   256
176
     0
 40
1.0
176
     0
 90
        2
176
     1
  1
strokes_ogs.tif
176
     1
290
     0
176
     1
 40
1.0
176
     1
 40
1.0
176
     1
1001
ACAD
1000
AcDbSavedByObjectVersion
1070
     0
  0
DICTIONARYVAR
  5
3DB
102
{ACAD_REACTORS
330
3D6
102
}
330
3D6
100
DictionaryVariables
280
     0
  1
0
  0
DICTIONARYVAR
  5
3DC
102
{ACAD_REACTORS
330
3D6
102
}
330
3D6
100
DictionaryVariables
280
     0
  1
1:1
  0
DICTIONARYVAR
  5
3D8
102
{ACAD_REACTORS
330
3D6
102
}
330
3D6
100
DictionaryVariables
280
     0
  1
STANDARD
  0
DICTIONARYVAR
  5
3D7
102
{ACAD_REACTORS
330
3D6
102
}
330
3D6
100
DictionaryVariables
280
     0
  1
STANDARD
  0
DICTIONARYVAR
  5
3D9
102
{ACAD_REACTORS
330
3D6
102
}
330
3D6
100
DictionaryVariables
280
     0
  1
Imperial24
  0
DICTIONARYVAR
  5
3DA
102
{ACAD_REACTORS
330
3D6
102
}
330
3D6
100
DictionaryVariables
280
     0
  1
Imperial24
  0
DICTIONARY
  5
3E2
330
6B
100
AcDbDictionary
280
     1
281
     1
  3
ACAD_XREC_ROUNDTRIP
360
3E3
  0
DICTIONARY
  5
1A
330
19
100
AcDbDictionary
280
     1
281
     1
  3
BUMPTILE
360
1C
  3
DIFFUSETILE
360
1B
  3
OPACITYTILE
360
1F
  3
REFLECTIONTILE
360
1E
  3
REFRACTIONTILE
360
20
  3
SPECULARTILE
360
1D
  0
DICTIONARY
  5
12
330
11
100
AcDbDictionary
280
     1
281
     1
  3
BUMPTILE
360
14
  3
DIFFUSETILE
360
13
  3
OPACITYTILE
360
17
  3
REFLECTIONTILE
360
16
  3
REFRACTIONTILE
360
18
  3
SPECULARTILE
360
15
  0
DICTIONARY
  5
22
330
21
100
AcDbDictionary
280
     1
281
     1
  3
BUMPTILE
360
24
  3
DIFFUSETILE
360
23
  3
OPACITYTILE
360
27
  3
REFLECTIONTILE
360
26
  3
REFRACTIONTILE
360
28
  3
SPECULARTILE
360
25
  0
DICTIONARY
  5
3E0
330
69
100
AcDbDictionary
280
     1
281
     1
  3
ACAD_XREC_ROUNDTRIP
360
3E1
  0
DICTIONARY
  5
3DD
330
65
100
AcDbDictionary
280
     1
281
     1
  3
ACAD_ROUNDTRIP_2008_TABLESTYLE_CELLSTYLEMAP
360
3DE
  0
XRECORD
  5
3E3
102
{ACAD_REACTORS
330
3E2
102
}
330
3E2
100
AcDbXrecord
280
     1
102
DISPLAYNAME
  1
Imperial24
102
FLAGS
 90
        0
  0
XRECORD
  5
1C
102
{ACAD_REACTORS
330
1A
102
}
330
1A
100
AcDbXrecord
280
     1
270
     1
271
     1
  0
XRECORD
  5
1B
102
{ACAD_REACTORS
330
1A
102
}
330
1A
100
AcDbXrecord
280
     1
270
     1
271
     1
  0
XRECORD
  5
1F
102
{ACAD_REACTORS
330
1A
102
}
330
1A
100
AcDbXrecord
280
     1
270
     1
271
     1
  0
XRECORD
  5
1E
102
{ACAD_REACTORS
330
1A
102
}
330
1A
100
AcDbXrecord
280
     1
270
     1
271
     1
  0
XRECORD
  5
20
102
{ACAD_REACTORS
330
1A
102
}
330
1A
100
AcDbXrecord
280
     1
270
     1
271
     1
  0
XRECORD
  5
1D
102
{ACAD_REACTORS
330
1A
102
}
330
1A
100
AcDbXrecord
280
     1
270
     1
271
     1
  0
XRECORD
  5
14
102
{ACAD_REACTORS
330
12
102
}
330
12
100
AcDbXrecord
280
     1
270
     1
271
     1
  0
XRECORD
  5
13
102
{ACAD_REACTORS
330
12
102
}
330
12
100
AcDbXrecord
280
     1
270
     1
271
     1
  0
XRECORD
  5
17
102
{ACAD_REACTORS
330
12
102
}
330
12
100
AcDbXrecord
280
     1
270
     1
271
     1
  0
XRECORD
  5
16
102
{ACAD_REACTORS
330
12
102
}
330
12
100
AcDbXrecord
280
     1
270
     1
271
     1
  0
XRECORD
  5
18
102
{ACAD_REACTORS
330
12
102
}
330
12
100
AcDbXrecord
280
     1
270
     1
271
     1
  0
XRECORD
  5
15
102
{ACAD_REACTORS
330
12
102
}
330
12
100
AcDbXrecord
280
     1
270
     1
271
     1
  0
XRECORD
  5
24
102
{ACAD_REACTORS
330
22
102
}
330
22
100
AcDbXrecord
280
     1
270
     1
271
     1
  0
XRECORD
  5
23
102
{ACAD_REACTORS
330
22
102
}
330
22
100
AcDbXrecord
280
     1
270
     1
271
     1
  0
XRECORD
  5
27
102
{ACAD_REACTORS
330
22
102
}
330
22
100
AcDbXrecord
280
     1
270
     1
271
     1
  0
XRECORD
  5
26
102
{ACAD_REACTORS
330
22
102
}
330
22
100
AcDbXrecord
280
     1
270
     1
271
     1
  0
XRECORD
  5
28
102
{ACAD_REACTORS
330
22
102
}
330
22
100
AcDbXrecord
280
     1
270
     1
271
     1
  0
XRECORD
  5
25
102
{ACAD_REACTORS
330
22
102
}
330
22
100
AcDbXrecord
280
     1
270
     1
271
     1
  0
XRECORD
  5
3E1
102
{ACAD_REACTORS
330
3E0
102
}
330
3E0
100
AcDbXrecord
280
     1
102
DISPLAYNAME
  1
Imperial24
102
FLAGS
 90
        0
  0
CELLSTYLEMAP
  5
3DE
102
{ACAD_REACTORS
330
3DD
102
}
330
3DD
100
AcDbCellStyleMap
 90
        3
300
CELLSTYLE
  1
TABLEFORMAT_BEGIN
 90
        5
170
     1
 91
        0
 92
    32768
 62
   257
 93
        1
300
CONTENTFORMAT
  1
CONTENTFORMAT_BEGIN
 90
        0
 91
        0
 92
      512
 93
        0
300

 40
0.0
140
1.0
 94
        5
 62
     0
340
55
144
0.25
309
CONTENTFORMAT_END
171
     1
301
MARGIN
  1
CELLMARGIN_BEGIN
 40
1.5
 40
1.5
 40
1.5
 40
1.5
 40
0.18
 40
0.18
309
CELLMARGIN_END
 94
        0
309
TABLEFORMAT_END
  1
CELLSTYLE_BEGIN
 90
        1
 91
        1
300
_TITLE
309
CELLSTYLE_END
300
CELLSTYLE
  1
TABLEFORMAT_BEGIN
 90
        5
170
     1
 91
        0
 92
        0
 62
   257
 93
        1
300
CONTENTFORMAT
  1
CONTENTFORMAT_BEGIN
 90
        0
 91
        0
 92
      512
 93
        0
300

 40
0.0
140
1.0
 94
        5
 62
     0
340
55
144
0.18
309
CONTENTFORMAT_END
171
     1
301
MARGIN
  1
CELLMARGIN_BEGIN
 40
1.5
 40
1.5
 40
1.5
 40
1.5
 40
0.18
 40
0.18
309
CELLMARGIN_END
 94
        0
309
TABLEFORMAT_END
  1
CELLSTYLE_BEGIN
 90
        2
 91
        1
300
_HEADER
309
CELLSTYLE_END
300
CELLSTYLE
  1
TABLEFORMAT_BEGIN
 90
        5
170
     1
 91
        0
 92
        0
 62
   257
 93
        1
300
CONTENTFORMAT
  1
CONTENTFORMAT_BEGIN
 90
        0
 91
        0
 92
      512
 93
        0
300

 40
0.0
140
1.0
 94
        2
 62
     0
340
55
144
0.18
309
CONTENTFORMAT_END
171
     1
301
MARGIN
  1
CELLMARGIN_BEGIN
 40
1.5
 40
1.5
 40
1.5
 40
1.5
 40
0.18
 40
0.18
309
CELLMARGIN_END
 94
        0
309
TABLEFORMAT_END
  1
CELLSTYLE_BEGIN
 90
        3
 91
        2
300
_DATA
309
CELLSTYLE_END
  0
ENDSEC
  0
EOF
