999
"DXF R12 Output" (www.mydxf.blogspot.com)
 0 
SECTION
 2 
HEADER
 9 
$ACADVER
 1 
AC1009
 9 
$EXTMIN
 10 
 0 
 20 
 0 
 9 
$EXTMAX
 10 
 8.5 
 20 
 11 
 0 
ENDSEC
 0 
SECTION
 2 
ENTITIES
0
LINE
8
Layer 1
10
0.793749
20
210.926000
11
-0.793749
21
209.338000
0
LINE
8
Layer 1
10
0.000000
20
211.455000
11
0.000000
21
208.809000
0
LINE
8
Layer 1
10
2.116660
20
209.074000
11
1.058330
21
208.015670
0
LINE
8
Layer 1
10
1.587500
20
209.603000
11
0.529170
21
208.544670
0
LINE
8
Layer 1
10
1.058330
20
210.132000
11
0.000000
21
209.073670
0
LINE
8
Layer 1
10
0.000000
20
123.132000
11
0.000000
21
108.132000
0
LINE
8
Layer 1
10
0.000000
20
-71.868500
11
0.000000
21
-86.867700
0
LINE
8
Layer 1
10
0.000000
20
-86.867700
11
15.000000
21
-86.867700
0
LINE
8
Layer 1
10
282.000000
20
-86.867700
11
297.000000
21
-86.867700
0
LINE
8
Layer 1
10
297.000000
20
-86.867700
11
297.000000
21
-71.868500
0
LINE
8
Layer 1
10
297.000000
20
108.132000
11
297.000000
21
123.132000
0
LINE
8
Layer 1
10
286.998000
20
-76.866500
11
286.998000
21
113.132000
0
LINE
8
Layer 1
10
297.000000
20
123.132000
11
282.000000
21
123.132000
0
LINE
8
Layer 1
10
15.000000
20
123.132000
11
0.000000
21
123.132000
0
LINE
8
Layer 1
10
286.998000
20
-76.866500
11
20.000000
21
-76.866500
0
LINE
8
Layer 1
10
15.000000
20
13.132200
11
25.000000
21
13.132200
0
LINE
8
Layer 1
10
291.999000
20
13.132200
11
282.000000
21
13.132200
0
LINE
8
Layer 1
10
148.500000
20
118.132000
11
148.500000
21
108.132000
0
LINE
8
Layer 1
10
148.500000
20
-81.867100
11
148.500000
21
-71.868500
0
LINE
8
Layer 1
10
286.998000
20
113.132000
11
20.000000
21
113.132000
0
LINE
8
Layer 1
10
20.000000
20
113.132000
11
20.000000
21
-76.866500
0
LINE
8
Layer 1
10
187.659000
20
81.657900
11
199.159000
21
81.657900
0
LINE
8
Layer 1
10
188.659000
20
56.787900
11
199.159000
21
56.787900
0
LINE
8
Layer 1
10
197.059000
20
78.158000
11
197.059000
21
60.287800
0
LINE
8
Layer 1
10
196.476000
20
78.158000
11
197.642000
21
78.158000
0
LINE
8
Layer 1
10
197.642000
20
78.158000
11
197.058594
21
81.657900
0
LINE
8
Layer 1
10
197.058594
20
81.657900
11
196.476000
21
78.158000
0
LINE
8
Layer 1
10
196.476000
20
60.287800
11
197.642000
21
60.287800
0
LINE
8
Layer 1
10
197.642000
20
60.287800
11
197.058594
21
56.787900
0
LINE
8
Layer 1
10
197.058594
20
56.787900
11
196.476000
21
60.287800
0
LINE
8
Layer 1
10
185.625000
20
81.657900
11
185.591927
21
81.715184
0
LINE
8
Layer 1
10
185.591927
20
81.715184
11
185.525781
21
81.715184
0
LINE
8
Layer 1
10
185.525781
20
81.715184
11
185.492708
21
81.657900
0
LINE
8
Layer 1
10
185.492708
20
81.657900
11
185.525781
21
81.600616
0
LINE
8
Layer 1
10
185.525781
20
81.600616
11
185.591927
21
81.600616
0
LINE
8
Layer 1
10
185.591927
20
81.600616
11
185.625000
21
81.657900
0
LINE
8
Layer 1
10
185.625000
20
81.657900
11
185.625000
21
81.657900
0
LINE
8
Layer 1
10
186.625000
20
56.787900
11
186.591927
21
56.845184
0
LINE
8
Layer 1
10
186.591927
20
56.845184
11
186.525781
21
56.845184
0
LINE
8
Layer 1
10
186.525781
20
56.845184
11
186.492708
21
56.787900
0
LINE
8
Layer 1
10
186.492708
20
56.787900
11
186.525781
21
56.730616
0
LINE
8
Layer 1
10
186.525781
20
56.730616
11
186.591927
21
56.730616
0
LINE
8
Layer 1
10
186.591927
20
56.730616
11
186.625000
21
56.787900
0
LINE
8
Layer 1
10
186.625000
20
56.787900
11
186.625000
21
56.787900
0
LINE
8
Layer 1
10
197.125000
20
56.787900
11
197.091927
21
56.845184
0
LINE
8
Layer 1
10
197.091927
20
56.845184
11
197.025781
21
56.845184
0
LINE
8
Layer 1
10
197.025781
20
56.845184
11
196.992708
21
56.787900
0
LINE
8
Layer 1
10
196.992708
20
56.787900
11
197.025781
21
56.730616
0
LINE
8
Layer 1
10
197.025781
20
56.730616
11
197.091927
21
56.730616
0
LINE
8
Layer 1
10
197.091927
20
56.730616
11
197.125000
21
56.787900
0
LINE
8
Layer 1
10
197.125000
20
56.787900
11
197.125000
21
56.787900
0
LINE
8
Layer 1
10
162.059000
20
54.687900
11
162.059000
21
44.187900
0
LINE
8
Layer 1
10
186.559000
20
54.687900
11
186.559000
21
44.187900
0
LINE
8
Layer 1
10
165.559000
20
46.287900
11
183.059000
21
46.287900
0
LINE
8
Layer 1
10
165.559000
20
46.871300
11
165.559000
21
45.704500
0
LINE
8
Layer 1
10
165.559000
20
45.704500
11
162.058830
21
46.287906
0
LINE
8
Layer 1
10
162.058830
20
46.287906
11
165.559000
21
46.871300
0
LINE
8
Layer 1
10
183.059000
20
46.871300
11
183.059000
21
45.704500
0
LINE
8
Layer 1
10
183.059000
20
45.704500
11
186.558900
21
46.287906
0
LINE
8
Layer 1
10
186.558900
20
46.287906
11
183.059000
21
46.871300
0
LINE
8
Layer 1
10
162.125000
20
56.787900
11
162.091927
21
56.845184
0
LINE
8
Layer 1
10
162.091927
20
56.845184
11
162.025781
21
56.845184
0
LINE
8
Layer 1
10
162.025781
20
56.845184
11
161.992708
21
56.787900
0
LINE
8
Layer 1
10
161.992708
20
56.787900
11
162.025781
21
56.730616
0
LINE
8
Layer 1
10
162.025781
20
56.730616
11
162.091927
21
56.730616
0
LINE
8
Layer 1
10
162.091927
20
56.730616
11
162.125000
21
56.787900
0
LINE
8
Layer 1
10
162.125000
20
56.787900
11
162.125000
21
56.787900
0
LINE
8
Layer 1
10
186.625000
20
56.787900
11
186.591927
21
56.845184
0
LINE
8
Layer 1
10
186.591927
20
56.845184
11
186.525781
21
56.845184
0
LINE
8
Layer 1
10
186.525781
20
56.845184
11
186.492708
21
56.787900
0
LINE
8
Layer 1
10
186.492708
20
56.787900
11
186.525781
21
56.730616
0
LINE
8
Layer 1
10
186.525781
20
56.730616
11
186.591927
21
56.730616
0
LINE
8
Layer 1
10
186.591927
20
56.730616
11
186.625000
21
56.787900
0
LINE
8
Layer 1
10
186.625000
20
56.787900
11
186.625000
21
56.787900
0
LINE
8
Layer 1
10
186.625000
20
46.287900
11
186.591927
21
46.345184
0
LINE
8
Layer 1
10
186.591927
20
46.345184
11
186.525781
21
46.345184
0
LINE
8
Layer 1
10
186.525781
20
46.345184
11
186.492708
21
46.287900
0
LINE
8
Layer 1
10
186.492708
20
46.287900
11
186.525781
21
46.230616
0
LINE
8
Layer 1
10
186.525781
20
46.230616
11
186.591927
21
46.230616
0
LINE
8
Layer 1
10
186.591927
20
46.230616
11
186.625000
21
46.287900
0
LINE
8
Layer 1
10
186.625000
20
46.287900
11
186.625000
21
46.287900
0
LINE
8
Layer 1
10
79.438400
20
80.736400
11
79.438400
21
91.236600
0
LINE
8
Layer 1
10
106.869000
20
76.532900
11
106.869000
21
91.236600
0
LINE
8
Layer 1
10
82.938600
20
89.136600
11
103.368000
21
89.136600
0
LINE
8
Layer 1
10
82.938600
20
89.719700
11
82.938600
21
88.553200
0
LINE
8
Layer 1
10
82.938600
20
88.553200
11
79.438430
21
89.136606
0
LINE
8
Layer 1
10
79.438430
20
89.136606
11
82.938600
21
89.719700
0
LINE
8
Layer 1
10
103.368000
20
89.719700
11
103.368000
21
88.553200
0
LINE
8
Layer 1
10
103.368000
20
88.553200
11
106.868170
21
89.136606
0
LINE
8
Layer 1
10
106.868170
20
89.136606
11
103.368000
21
89.719700
0
LINE
8
Layer 1
10
79.504600
20
78.636500
11
79.471527
21
78.693784
0
LINE
8
Layer 1
10
79.471527
20
78.693784
11
79.405381
21
78.693784
0
LINE
8
Layer 1
10
79.405381
20
78.693784
11
79.372308
21
78.636500
0
LINE
8
Layer 1
10
79.372308
20
78.636500
11
79.405381
21
78.579216
0
LINE
8
Layer 1
10
79.405381
20
78.579216
11
79.471527
21
78.579216
0
LINE
8
Layer 1
10
79.471527
20
78.579216
11
79.504600
21
78.636500
0
LINE
8
Layer 1
10
79.504600
20
78.636500
11
79.504600
21
78.636500
0
LINE
8
Layer 1
10
106.935000
20
74.432900
11
106.901927
21
74.490184
0
LINE
8
Layer 1
10
106.901927
20
74.490184
11
106.835781
21
74.490184
0
LINE
8
Layer 1
10
106.835781
20
74.490184
11
106.802708
21
74.432900
0
LINE
8
Layer 1
10
106.802708
20
74.432900
11
106.835781
21
74.375616
0
LINE
8
Layer 1
10
106.835781
20
74.375616
11
106.901927
21
74.375616
0
LINE
8
Layer 1
10
106.901927
20
74.375616
11
106.935000
21
74.432900
0
LINE
8
Layer 1
10
106.935000
20
74.432900
11
106.935000
21
74.432900
0
LINE
8
Layer 1
10
106.935000
20
89.136500
11
106.901927
21
89.193784
0
LINE
8
Layer 1
10
106.901927
20
89.193784
11
106.835781
21
89.193784
0
LINE
8
Layer 1
10
106.835781
20
89.193784
11
106.802708
21
89.136500
0
LINE
8
Layer 1
10
106.802708
20
89.136500
11
106.835781
21
89.079216
0
LINE
8
Layer 1
10
106.835781
20
89.079216
11
106.901927
21
89.079216
0
LINE
8
Layer 1
10
106.901927
20
89.079216
11
106.935000
21
89.136500
0
LINE
8
Layer 1
10
106.935000
20
89.136500
11
106.935000
21
89.136500
0
LINE
8
Layer 1
10
106.368000
20
19.423000
11
116.868000
21
19.423000
0
LINE
8
Layer 1
10
105.368000
20
-9.527190
11
116.868000
21
-9.527190
0
LINE
8
Layer 1
10
114.768000
20
15.922800
11
114.768000
21
-6.027020
0
LINE
8
Layer 1
10
114.185000
20
15.922800
11
115.352000
21
15.922800
0
LINE
8
Layer 1
10
115.352000
20
15.922800
11
114.768594
21
19.422970
0
LINE
8
Layer 1
10
114.768594
20
19.422970
11
114.185000
21
15.922800
0
LINE
8
Layer 1
10
114.185000
20
-6.027020
11
115.352000
21
-6.027020
0
LINE
8
Layer 1
10
115.352000
20
-6.027020
11
114.768594
21
-9.527190
0
LINE
8
Layer 1
10
114.768594
20
-9.527190
11
114.185000
21
-6.027020
0
LINE
8
Layer 1
10
104.335000
20
19.422900
11
104.268854
21
19.488847
0
LINE
8
Layer 1
10
104.268854
20
19.488847
11
104.202709
21
19.422900
0
LINE
8
Layer 1
10
104.202709
20
19.422900
11
104.268854
21
19.356953
0
LINE
8
Layer 1
10
104.268854
20
19.356953
11
104.335000
21
19.422900
0
LINE
8
Layer 1
10
104.335000
20
19.422900
11
104.335000
21
19.422900
0
LINE
8
Layer 1
10
103.335000
20
-9.527080
11
103.301927
21
-9.469796
0
LINE
8
Layer 1
10
103.301927
20
-9.469796
11
103.235781
21
-9.469796
0
LINE
8
Layer 1
10
103.235781
20
-9.469796
11
103.202708
21
-9.527080
0
LINE
8
Layer 1
10
103.202708
20
-9.527080
11
103.235781
21
-9.584364
0
LINE
8
Layer 1
10
103.235781
20
-9.584364
11
103.301927
21
-9.584364
0
LINE
8
Layer 1
10
103.301927
20
-9.584364
11
103.335000
21
-9.527080
0
LINE
8
Layer 1
10
103.335000
20
-9.527080
11
103.335000
21
-9.527080
0
LINE
8
Layer 1
10
114.835000
20
-9.527080
11
114.768855
21
-9.461133
0
LINE
8
Layer 1
10
114.768855
20
-9.461133
11
114.702709
21
-9.527080
0
LINE
8
Layer 1
10
114.702709
20
-9.527080
11
114.768855
21
-9.593027
0
LINE
8
Layer 1
10
114.768855
20
-9.593027
11
114.835000
21
-9.527080
0
LINE
8
Layer 1
10
114.835000
20
-9.527080
11
114.835000
21
-9.527080
0
LINE
8
Layer 1
10
187.659000
20
81.657900
11
199.159000
21
81.657900
0
LINE
8
Layer 1
10
188.659000
20
56.787900
11
199.159000
21
56.787900
0
LINE
8
Layer 1
10
197.059000
20
78.158000
11
197.059000
21
60.287800
0
LINE
8
Layer 1
10
196.476000
20
78.158000
11
197.642000
21
78.158000
0
LINE
8
Layer 1
10
197.642000
20
78.158000
11
197.058594
21
81.657900
0
LINE
8
Layer 1
10
197.058594
20
81.657900
11
196.476000
21
78.158000
0
LINE
8
Layer 1
10
196.476000
20
60.287800
11
197.642000
21
60.287800
0
LINE
8
Layer 1
10
197.642000
20
60.287800
11
197.058594
21
56.787900
0
LINE
8
Layer 1
10
197.058594
20
56.787900
11
196.476000
21
60.287800
0
LINE
8
Layer 1
10
185.625000
20
81.657900
11
185.591927
21
81.715184
0
LINE
8
Layer 1
10
185.591927
20
81.715184
11
185.525781
21
81.715184
0
LINE
8
Layer 1
10
185.525781
20
81.715184
11
185.492708
21
81.657900
0
LINE
8
Layer 1
10
185.492708
20
81.657900
11
185.525781
21
81.600616
0
LINE
8
Layer 1
10
185.525781
20
81.600616
11
185.591927
21
81.600616
0
LINE
8
Layer 1
10
185.591927
20
81.600616
11
185.625000
21
81.657900
0
LINE
8
Layer 1
10
185.625000
20
81.657900
11
185.625000
21
81.657900
0
LINE
8
Layer 1
10
186.625000
20
56.787900
11
186.591927
21
56.845184
0
LINE
8
Layer 1
10
186.591927
20
56.845184
11
186.525781
21
56.845184
0
LINE
8
Layer 1
10
186.525781
20
56.845184
11
186.492708
21
56.787900
0
LINE
8
Layer 1
10
186.492708
20
56.787900
11
186.525781
21
56.730616
0
LINE
8
Layer 1
10
186.525781
20
56.730616
11
186.591927
21
56.730616
0
LINE
8
Layer 1
10
186.591927
20
56.730616
11
186.625000
21
56.787900
0
LINE
8
Layer 1
10
186.625000
20
56.787900
11
186.625000
21
56.787900
0
LINE
8
Layer 1
10
197.125000
20
56.787900
11
197.091927
21
56.845184
0
LINE
8
Layer 1
10
197.091927
20
56.845184
11
197.025781
21
56.845184
0
LINE
8
Layer 1
10
197.025781
20
56.845184
11
196.992708
21
56.787900
0
LINE
8
Layer 1
10
196.992708
20
56.787900
11
197.025781
21
56.730616
0
LINE
8
Layer 1
10
197.025781
20
56.730616
11
197.091927
21
56.730616
0
LINE
8
Layer 1
10
197.091927
20
56.730616
11
197.125000
21
56.787900
0
LINE
8
Layer 1
10
197.125000
20
56.787900
11
197.125000
21
56.787900
0
LINE
8
Layer 1
10
162.059000
20
54.687900
11
162.059000
21
44.187900
0
LINE
8
Layer 1
10
186.559000
20
54.687900
11
186.559000
21
44.187900
0
LINE
8
Layer 1
10
165.559000
20
46.287900
11
183.059000
21
46.287900
0
LINE
8
Layer 1
10
165.559000
20
46.871300
11
165.559000
21
45.704500
0
LINE
8
Layer 1
10
165.559000
20
45.704500
11
162.058830
21
46.287906
0
LINE
8
Layer 1
10
162.058830
20
46.287906
11
165.559000
21
46.871300
0
LINE
8
Layer 1
10
183.059000
20
46.871300
11
183.059000
21
45.704500
0
LINE
8
Layer 1
10
183.059000
20
45.704500
11
186.558900
21
46.287906
0
LINE
8
Layer 1
10
186.558900
20
46.287906
11
183.059000
21
46.871300
0
LINE
8
Layer 1
10
162.125000
20
56.787900
11
162.091927
21
56.845184
0
LINE
8
Layer 1
10
162.091927
20
56.845184
11
162.025781
21
56.845184
0
LINE
8
Layer 1
10
162.025781
20
56.845184
11
161.992708
21
56.787900
0
LINE
8
Layer 1
10
161.992708
20
56.787900
11
162.025781
21
56.730616
0
LINE
8
Layer 1
10
162.025781
20
56.730616
11
162.091927
21
56.730616
0
LINE
8
Layer 1
10
162.091927
20
56.730616
11
162.125000
21
56.787900
0
LINE
8
Layer 1
10
162.125000
20
56.787900
11
162.125000
21
56.787900
0
LINE
8
Layer 1
10
186.625000
20
56.787900
11
186.591927
21
56.845184
0
LINE
8
Layer 1
10
186.591927
20
56.845184
11
186.525781
21
56.845184
0
LINE
8
Layer 1
10
186.525781
20
56.845184
11
186.492708
21
56.787900
0
LINE
8
Layer 1
10
186.492708
20
56.787900
11
186.525781
21
56.730616
0
LINE
8
Layer 1
10
186.525781
20
56.730616
11
186.591927
21
56.730616
0
LINE
8
Layer 1
10
186.591927
20
56.730616
11
186.625000
21
56.787900
0
LINE
8
Layer 1
10
186.625000
20
56.787900
11
186.625000
21
56.787900
0
LINE
8
Layer 1
10
186.625000
20
46.287900
11
186.591927
21
46.345184
0
LINE
8
Layer 1
10
186.591927
20
46.345184
11
186.525781
21
46.345184
0
LINE
8
Layer 1
10
186.525781
20
46.345184
11
186.492708
21
46.287900
0
LINE
8
Layer 1
10
186.492708
20
46.287900
11
186.525781
21
46.230616
0
LINE
8
Layer 1
10
186.525781
20
46.230616
11
186.591927
21
46.230616
0
LINE
8
Layer 1
10
186.591927
20
46.230616
11
186.625000
21
46.287900
0
LINE
8
Layer 1
10
186.625000
20
46.287900
11
186.625000
21
46.287900
0
LINE
8
Layer 1
10
79.438400
20
80.736400
11
79.438400
21
91.236600
0
LINE
8
Layer 1
10
106.869000
20
76.532900
11
106.869000
21
91.236600
0
LINE
8
Layer 1
10
82.938600
20
89.136600
11
103.368000
21
89.136600
0
LINE
8
Layer 1
10
82.938600
20
89.719700
11
82.938600
21
88.553200
0
LINE
8
Layer 1
10
82.938600
20
88.553200
11
79.438430
21
89.136606
0
LINE
8
Layer 1
10
79.438430
20
89.136606
11
82.938600
21
89.719700
0
LINE
8
Layer 1
10
103.368000
20
89.719700
11
103.368000
21
88.553200
0
LINE
8
Layer 1
10
103.368000
20
88.553200
11
106.868170
21
89.136606
0
LINE
8
Layer 1
10
106.868170
20
89.136606
11
103.368000
21
89.719700
0
LINE
8
Layer 1
10
79.504600
20
78.636500
11
79.471527
21
78.693784
0
LINE
8
Layer 1
10
79.471527
20
78.693784
11
79.405381
21
78.693784
0
LINE
8
Layer 1
10
79.405381
20
78.693784
11
79.372308
21
78.636500
0
LINE
8
Layer 1
10
79.372308
20
78.636500
11
79.405381
21
78.579216
0
LINE
8
Layer 1
10
79.405381
20
78.579216
11
79.471527
21
78.579216
0
LINE
8
Layer 1
10
79.471527
20
78.579216
11
79.504600
21
78.636500
0
LINE
8
Layer 1
10
79.504600
20
78.636500
11
79.504600
21
78.636500
0
LINE
8
Layer 1
10
106.935000
20
74.432900
11
106.901927
21
74.490184
0
LINE
8
Layer 1
10
106.901927
20
74.490184
11
106.835781
21
74.490184
0
LINE
8
Layer 1
10
106.835781
20
74.490184
11
106.802708
21
74.432900
0
LINE
8
Layer 1
10
106.802708
20
74.432900
11
106.835781
21
74.375616
0
LINE
8
Layer 1
10
106.835781
20
74.375616
11
106.901927
21
74.375616
0
LINE
8
Layer 1
10
106.901927
20
74.375616
11
106.935000
21
74.432900
0
LINE
8
Layer 1
10
106.935000
20
74.432900
11
106.935000
21
74.432900
0
LINE
8
Layer 1
10
106.935000
20
89.136500
11
106.901927
21
89.193784
0
LINE
8
Layer 1
10
106.901927
20
89.193784
11
106.835781
21
89.193784
0
LINE
8
Layer 1
10
106.835781
20
89.193784
11
106.802708
21
89.136500
0
LINE
8
Layer 1
10
106.802708
20
89.136500
11
106.835781
21
89.079216
0
LINE
8
Layer 1
10
106.835781
20
89.079216
11
106.901927
21
89.079216
0
LINE
8
Layer 1
10
106.901927
20
89.079216
11
106.935000
21
89.136500
0
LINE
8
Layer 1
10
106.935000
20
89.136500
11
106.935000
21
89.136500
0
LINE
8
Layer 1
10
106.368000
20
19.423000
11
116.868000
21
19.423000
0
LINE
8
Layer 1
10
105.368000
20
-9.527190
11
116.868000
21
-9.527190
0
LINE
8
Layer 1
10
114.768000
20
15.922800
11
114.768000
21
-6.027020
0
LINE
8
Layer 1
10
114.185000
20
15.922800
11
115.352000
21
15.922800
0
LINE
8
Layer 1
10
115.352000
20
15.922800
11
114.768594
21
19.422970
0
LINE
8
Layer 1
10
114.768594
20
19.422970
11
114.185000
21
15.922800
0
LINE
8
Layer 1
10
114.185000
20
-6.027020
11
115.352000
21
-6.027020
0
LINE
8
Layer 1
10
115.352000
20
-6.027020
11
114.768594
21
-9.527190
0
LINE
8
Layer 1
10
114.768594
20
-9.527190
11
114.185000
21
-6.027020
0
LINE
8
Layer 1
10
104.335000
20
19.422900
11
104.268854
21
19.488847
0
LINE
8
Layer 1
10
104.268854
20
19.488847
11
104.202709
21
19.422900
0
LINE
8
Layer 1
10
104.202709
20
19.422900
11
104.268854
21
19.356953
0
LINE
8
Layer 1
10
104.268854
20
19.356953
11
104.335000
21
19.422900
0
LINE
8
Layer 1
10
104.335000
20
19.422900
11
104.335000
21
19.422900
0
LINE
8
Layer 1
10
103.335000
20
-9.527080
11
103.301927
21
-9.469796
0
LINE
8
Layer 1
10
103.301927
20
-9.469796
11
103.235781
21
-9.469796
0
LINE
8
Layer 1
10
103.235781
20
-9.469796
11
103.202708
21
-9.527080
0
LINE
8
Layer 1
10
103.202708
20
-9.527080
11
103.235781
21
-9.584364
0
LINE
8
Layer 1
10
103.235781
20
-9.584364
11
103.301927
21
-9.584364
0
LINE
8
Layer 1
10
103.301927
20
-9.584364
11
103.335000
21
-9.527080
0
LINE
8
Layer 1
10
103.335000
20
-9.527080
11
103.335000
21
-9.527080
0
LINE
8
Layer 1
10
114.835000
20
-9.527080
11
114.768855
21
-9.461133
0
LINE
8
Layer 1
10
114.768855
20
-9.461133
11
114.702709
21
-9.527080
0
LINE
8
Layer 1
10
114.702709
20
-9.527080
11
114.768855
21
-9.593027
0
LINE
8
Layer 1
10
114.768855
20
-9.593027
11
114.835000
21
-9.527080
0
LINE
8
Layer 1
10
114.835000
20
-9.527080
11
114.835000
21
-9.527080
0
LINE
8
Sichtbar
10
90.167400
20
164.857000
11
90.494967
21
164.992681
0
LINE
8
Sichtbar
10
90.495000
20
157.541000
11
90.167433
21
157.676683
0
LINE
8
Sichtbar
10
90.961000
20
165.267000
11
90.633436
21
165.131319
0
LINE
8
Sichtbar
10
90.633400
20
157.403000
11
90.960967
21
157.267317
0
LINE
8
Sichtbar
10
90.495100
20
164.993000
11
90.633477
21
165.131377
0
LINE
8
Sichtbar
10
90.495100
20
157.541000
11
90.633477
21
157.402623
0
LINE
8
Sichtbar
10
87.320900
20
164.857000
11
90.167500
21
164.857000
0
LINE
8
Sichtbar
10
87.320900
20
157.677000
11
90.167500
21
157.677000
0
LINE
8
Sichtbar
10
90.961000
20
165.267000
11
91.000700
21
165.267000
0
LINE
8
Sichtbar
10
90.961000
20
157.267000
11
91.000700
21
157.267000
0
LINE
8
Sichtbar
10
80.497300
20
160.212000
11
80.311999
21
160.046620
0
LINE
8
Sichtbar
10
80.497300
20
160.212000
11
80.497300
21
160.507000
0
LINE
8
Sichtbar
10
80.312000
20
160.740000
11
80.497301
21
160.506738
0
LINE
8
Sichtbar
10
80.497300
20
160.935000
11
80.311999
21
160.739550
0
LINE
8
Sichtbar
10
80.497300
20
160.935000
11
80.497300
21
161.234000
0
LINE
8
Sichtbar
10
80.312000
20
161.443000
11
80.497301
21
161.233905
0
LINE
8
Sichtbar
10
80.497300
20
161.665000
11
80.311999
21
161.443282
0
LINE
8
Sichtbar
10
80.497300
20
161.962000
11
80.497300
21
161.665000
0
LINE
8
Sichtbar
10
80.312000
20
162.143000
11
80.497301
21
161.962144
0
LINE
8
Sichtbar
10
80.497300
20
162.387000
11
80.311999
21
162.143332
0
LINE
8
Sichtbar
10
80.497300
20
162.677000
11
80.497300
21
162.387000
0
LINE
8
Sichtbar
10
80.312000
20
162.826000
11
80.497301
21
162.676900
0
LINE
8
Sichtbar
10
80.497300
20
163.087000
11
80.311999
21
162.826124
0
LINE
8
Sichtbar
10
80.497300
20
163.364000
11
80.497300
21
163.087000
0
LINE
8
Sichtbar
10
80.497300
20
163.751000
11
80.311999
21
163.477995
0
LINE
8
Sichtbar
10
80.497300
20
164.010000
11
80.497300
21
163.751000
0
LINE
8
Sichtbar
10
80.312000
20
164.088000
11
80.497301
21
164.010445
0
LINE
8
Sichtbar
10
80.497300
20
164.368000
11
80.311999
21
164.088180
0
LINE
8
Sichtbar
10
80.497300
20
164.603000
11
80.497300
21
164.368000
0
LINE
8
Sichtbar
10
80.312000
20
164.643000
11
80.497301
21
164.603842
0
LINE
8
Sichtbar
10
80.497300
20
164.924000
11
80.311999
21
164.642809
0
LINE
8
Sichtbar
10
80.497300
20
165.131000
11
80.497300
21
164.924000
0
LINE
8
Sichtbar
10
80.312000
20
165.131000
11
80.497301
21
165.131000
0
LINE
8
Sichtbar
10
80.497300
20
165.409000
11
80.311999
21
165.131910
0
LINE
8
Sichtbar
10
80.497300
20
165.584000
11
80.497300
21
165.409000
0
LINE
8
Sichtbar
10
80.312000
20
165.545000
11
80.497301
21
165.584158
0
LINE
8
Sichtbar
10
80.497300
20
165.813000
11
80.311999
21
165.545409
0
LINE
8
Sichtbar
10
80.497300
20
165.953000
11
80.497300
21
165.813000
0
LINE
8
Sichtbar
10
80.312000
20
165.876000
11
80.497301
21
165.953555
0
LINE
8
Sichtbar
10
80.497300
20
166.128000
11
80.311999
21
165.875112
0
LINE
8
Sichtbar
10
80.497300
20
166.231000
11
80.497300
21
166.128000
0
LINE
8
Sichtbar
10
80.312000
20
166.116000
11
80.497301
21
166.230440
0
LINE
8
Sichtbar
10
80.497300
20
166.350000
11
80.311999
21
166.116741
0
LINE
8
Sichtbar
10
80.497300
20
166.411000
11
80.497300
21
166.349000
0
LINE
8
Sichtbar
10
80.312000
20
166.263000
11
80.497301
21
166.412098
0
LINE
8
Sichtbar
10
80.497300
20
166.472000
11
80.311999
21
166.262908
0
LINE
8
Sichtbar
10
80.497300
20
166.472000
11
80.497300
21
166.492000
0
LINE
8
Sichtbar
10
80.312000
20
166.312000
11
80.497301
21
166.492856
0
LINE
8
Sichtbar
10
80.497300
20
156.039000
11
80.497300
21
156.037000
0
LINE
8
Sichtbar
10
80.312000
20
156.234000
11
80.497301
21
156.038547
0
LINE
8
Sichtbar
10
80.497300
20
156.069000
11
80.311999
21
156.234383
0
LINE
8
Sichtbar
10
80.497300
20
156.069000
11
80.497300
21
156.111000
0
LINE
8
Sichtbar
10
80.312000
20
156.332000
11
80.497301
21
156.110282
0
LINE
8
Sichtbar
10
80.497300
20
156.200000
11
80.497300
21
156.283000
0
LINE
8
Sichtbar
10
80.312000
20
156.526000
11
80.497301
21
156.282332
0
LINE
8
Sichtbar
10
80.497300
20
156.430000
11
80.311999
21
156.526231
0
LINE
8
Sichtbar
10
80.497300
20
156.430000
11
80.497300
21
156.552000
0
LINE
8
Sichtbar
10
80.312000
20
156.813000
11
80.497301
21
156.552124
0
LINE
8
Sichtbar
10
80.497300
20
156.754000
11
80.497300
21
156.913000
0
LINE
8
Sichtbar
10
80.312000
20
157.186000
11
80.497301
21
156.912995
0
LINE
8
Sichtbar
10
80.497300
20
157.166000
11
80.311999
21
157.185632
0
LINE
8
Sichtbar
10
80.497300
20
157.166000
11
80.497300
21
157.358000
0
LINE
8
Sichtbar
10
80.312000
20
157.638000
11
80.497301
21
157.358180
0
LINE
8
Sichtbar
10
80.497300
20
157.658000
11
80.311999
21
157.638368
0
LINE
8
Sichtbar
10
80.497300
20
157.658000
11
80.497300
21
157.880000
0
LINE
8
Sichtbar
10
80.312000
20
158.161000
11
80.497301
21
157.879809
0
LINE
8
Sichtbar
10
80.497300
20
158.220000
11
80.311999
21
158.161503
0
LINE
8
Sichtbar
10
80.497300
20
158.220000
11
80.497300
21
158.468000
0
LINE
8
Sichtbar
10
80.312000
20
158.745000
11
80.497301
21
158.467910
0
LINE
8
Sichtbar
10
80.497300
20
158.841000
11
80.311999
21
158.744769
0
LINE
8
Sichtbar
10
80.497300
20
158.840000
11
80.497300
21
159.109000
0
LINE
8
Sichtbar
10
80.312000
20
159.377000
11
80.497301
21
159.109406
0
LINE
8
Sichtbar
10
80.497300
20
159.509000
11
80.311999
21
159.376910
0
LINE
8
Sichtbar
10
80.497300
20
159.509000
11
80.497300
21
159.794000
0
LINE
8
Sichtbar
10
80.312000
20
160.046000
11
80.497301
21
159.793112
0
LINE
8
Sichtbar
10
79.570700
20
156.963000
11
79.570700
21
165.570000
0
LINE
8
Sichtbar
10
87.320900
20
165.478000
11
87.320900
21
157.056000
0
LINE
8
Sichtbar
10
86.394300
20
156.037000
11
86.394300
21
156.039000
0
LINE
8
Sichtbar
10
80.497300
20
156.039000
11
86.394300
21
156.039000
0
LINE
8
Sichtbar
10
86.394300
20
156.069000
11
86.394300
21
156.039000
0
LINE
8
Sichtbar
10
80.497300
20
156.069000
11
86.394300
21
156.069000
0
LINE
8
Sichtbar
10
86.394300
20
156.200000
11
86.394300
21
156.111000
0
LINE
8
Sichtbar
10
80.497300
20
156.111000
11
86.394300
21
156.111000
0
LINE
8
Sichtbar
10
86.394300
20
156.430000
11
86.394300
21
156.283000
0
LINE
8
Sichtbar
10
80.497300
20
156.283000
11
86.394300
21
156.283000
0
LINE
8
Sichtbar
10
80.497300
20
156.430000
11
86.394300
21
156.430000
0
LINE
8
Sichtbar
10
86.394300
20
156.754000
11
86.394300
21
156.552000
0
LINE
8
Sichtbar
10
80.497300
20
156.552000
11
86.394300
21
156.552000
0
LINE
8
Sichtbar
10
80.497300
20
156.754000
11
86.394300
21
156.754000
0
LINE
8
Sichtbar
10
86.394300
20
157.166000
11
86.394300
21
156.913000
0
LINE
8
Sichtbar
10
80.497300
20
156.913000
11
86.394300
21
156.913000
0
LINE
8
Sichtbar
10
80.497300
20
157.166000
11
86.394300
21
157.166000
0
LINE
8
Sichtbar
10
86.394300
20
157.638000
11
86.394300
21
157.358000
0
LINE
8
Sichtbar
10
80.312100
20
157.638000
11
86.394300
21
157.638000
0
LINE
8
Sichtbar
10
80.497300
20
157.358000
11
86.394300
21
157.358000
0
LINE
8
Sichtbar
10
86.394300
20
157.658000
11
86.394300
21
157.638000
0
LINE
8
Sichtbar
10
80.497300
20
157.658000
11
86.394300
21
157.658000
0
LINE
8
Sichtbar
10
86.394300
20
158.161000
11
86.394300
21
157.880000
0
LINE
8
Sichtbar
10
80.312100
20
158.161000
11
86.394300
21
158.161000
0
LINE
8
Sichtbar
10
80.497300
20
157.880000
11
86.394300
21
157.880000
0
LINE
8
Sichtbar
10
86.394300
20
158.219000
11
86.394300
21
158.161000
0
LINE
8
Sichtbar
10
80.497300
20
158.219000
11
86.394300
21
158.219000
0
LINE
8
Sichtbar
10
86.394300
20
158.744000
11
86.394300
21
158.467000
0
LINE
8
Sichtbar
10
80.312100
20
158.744000
11
86.394300
21
158.744000
0
LINE
8
Sichtbar
10
80.497300
20
158.467000
11
86.394300
21
158.467000
0
LINE
8
Sichtbar
10
86.394300
20
158.841000
11
86.394300
21
158.744000
0
LINE
8
Sichtbar
10
80.497300
20
158.841000
11
86.394300
21
158.841000
0
LINE
8
Sichtbar
10
86.394300
20
159.377000
11
86.394300
21
159.110000
0
LINE
8
Sichtbar
10
80.312100
20
159.377000
11
86.394300
21
159.377000
0
LINE
8
Sichtbar
10
80.497300
20
159.110000
11
86.394300
21
159.110000
0
LINE
8
Sichtbar
10
86.394300
20
159.509000
11
86.394300
21
159.377000
0
LINE
8
Sichtbar
10
80.497300
20
159.509000
11
86.394300
21
159.509000
0
LINE
8
Sichtbar
10
86.394300
20
160.046000
11
86.394300
21
159.793000
0
LINE
8
Sichtbar
10
80.312100
20
160.046000
11
86.394300
21
160.046000
0
LINE
8
Sichtbar
10
80.497300
20
159.793000
11
86.394300
21
159.793000
0
LINE
8
Sichtbar
10
86.394300
20
160.212000
11
86.394300
21
160.046000
0
LINE
8
Sichtbar
10
80.497300
20
160.212000
11
86.394300
21
160.212000
0
LINE
8
Sichtbar
10
86.394300
20
160.740000
11
86.394300
21
160.506000
0
LINE
8
Sichtbar
10
80.312100
20
160.740000
11
86.394300
21
160.740000
0
LINE
8
Sichtbar
10
80.497300
20
160.506000
11
86.394300
21
160.506000
0
LINE
8
Sichtbar
10
86.394300
20
160.935000
11
86.394300
21
160.740000
0
LINE
8
Sichtbar
10
80.497300
20
160.935000
11
86.394300
21
160.935000
0
LINE
8
Sichtbar
10
86.394300
20
161.443000
11
86.394300
21
161.234000
0
LINE
8
Sichtbar
10
80.312100
20
161.443000
11
86.394300
21
161.443000
0
LINE
8
Sichtbar
10
80.497300
20
161.234000
11
86.394300
21
161.234000
0
LINE
8
Sichtbar
10
86.394300
20
161.665000
11
86.394300
21
161.443000
0
LINE
8
Sichtbar
10
80.497300
20
161.665000
11
86.394300
21
161.665000
0
LINE
8
Sichtbar
10
86.394300
20
162.143000
11
86.394300
21
161.962000
0
LINE
8
Sichtbar
10
80.312100
20
162.143000
11
86.394300
21
162.143000
0
LINE
8
Sichtbar
10
80.497300
20
161.962000
11
86.394300
21
161.962000
0
LINE
8
Sichtbar
10
86.394300
20
162.387000
11
86.394300
21
162.143000
0
LINE
8
Sichtbar
10
80.497300
20
162.387000
11
86.394300
21
162.387000
0
LINE
8
Sichtbar
10
86.394300
20
162.826000
11
86.394300
21
162.677000
0
LINE
8
Sichtbar
10
80.312100
20
162.826000
11
86.394300
21
162.826000
0
LINE
8
Sichtbar
10
80.497300
20
162.677000
11
86.394300
21
162.677000
0
LINE
8
Sichtbar
10
86.394300
20
163.087000
11
86.394300
21
162.826000
0
LINE
8
Sichtbar
10
80.497300
20
163.087000
11
86.394300
21
163.087000
0
LINE
8
Sichtbar
10
86.394300
20
163.478000
11
86.394300
21
163.364000
0
LINE
8
Sichtbar
10
80.312100
20
163.478000
11
86.394300
21
163.478000
0
LINE
8
Sichtbar
10
80.497300
20
163.364000
11
86.394300
21
163.364000
0
LINE
8
Sichtbar
10
86.394300
20
163.751000
11
86.394300
21
163.478000
0
LINE
8
Sichtbar
10
80.497300
20
163.751000
11
86.394300
21
163.751000
0
LINE
8
Sichtbar
10
86.394300
20
164.088000
11
86.394300
21
164.010000
0
LINE
8
Sichtbar
10
80.312100
20
164.088000
11
86.394300
21
164.088000
0
LINE
8
Sichtbar
10
80.497300
20
164.010000
11
86.394300
21
164.010000
0
LINE
8
Sichtbar
10
86.394300
20
164.368000
11
86.394300
21
164.088000
0
LINE
8
Sichtbar
10
80.497300
20
164.368000
11
86.394300
21
164.368000
0
LINE
8
Sichtbar
10
86.394300
20
164.642000
11
86.394300
21
164.603000
0
LINE
8
Sichtbar
10
80.312100
20
164.642000
11
86.394300
21
164.642000
0
LINE
8
Sichtbar
10
80.497300
20
164.603000
11
86.394300
21
164.603000
0
LINE
8
Sichtbar
10
86.394300
20
164.924000
11
86.394300
21
164.642000
0
LINE
8
Sichtbar
10
80.497300
20
164.924000
11
86.394300
21
164.924000
0
LINE
8
Sichtbar
10
80.497300
20
165.131000
11
86.394300
21
165.131000
0
LINE
8
Sichtbar
10
86.394300
20
165.408000
11
86.394300
21
165.131000
0
LINE
8
Sichtbar
10
80.497300
20
165.408000
11
86.394300
21
165.408000
0
LINE
8
Sichtbar
10
80.497300
20
165.584000
11
86.394300
21
165.584000
0
LINE
8
Sichtbar
10
86.394300
20
165.813000
11
86.394300
21
165.584000
0
LINE
8
Sichtbar
10
80.497300
20
165.813000
11
86.394300
21
165.813000
0
LINE
8
Sichtbar
10
80.497300
20
165.953000
11
86.394300
21
165.953000
0
LINE
8
Sichtbar
10
86.394300
20
166.128000
11
86.394300
21
165.953000
0
LINE
8
Sichtbar
10
80.497300
20
166.128000
11
86.394300
21
166.128000
0
LINE
8
Sichtbar
10
80.497300
20
166.231000
11
86.394300
21
166.231000
0
LINE
8
Sichtbar
10
86.394300
20
166.350000
11
86.394300
21
166.231000
0
LINE
8
Sichtbar
10
80.497300
20
166.350000
11
86.394300
21
166.350000
0
LINE
8
Sichtbar
10
80.497300
20
166.412000
11
86.394300
21
166.412000
0
LINE
8
Sichtbar
10
86.394300
20
166.472000
11
86.394300
21
166.412000
0
LINE
8
Sichtbar
10
80.497300
20
166.472000
11
86.394300
21
166.472000
0
LINE
8
Sichtbar
10
80.497300
20
166.492000
11
86.394300
21
166.492000
0
LINE
8
Sichtbar
10
86.394300
20
166.472000
11
86.394300
21
166.492000
0
LINE
8
Sichtbar
10
86.394300
20
166.350000
11
86.394300
21
166.412000
0
LINE
8
Sichtbar
10
86.394300
20
166.128000
11
86.394300
21
166.231000
0
LINE
8
Sichtbar
10
86.394300
20
165.813000
11
86.394300
21
165.953000
0
LINE
8
Sichtbar
10
86.394300
20
165.408000
11
86.394300
21
165.584000
0
LINE
8
Sichtbar
10
86.394300
20
164.924000
11
86.394300
21
165.131000
0
LINE
8
Sichtbar
10
86.394300
20
164.368000
11
86.394300
21
164.603000
0
LINE
8
Sichtbar
10
86.394300
20
163.751000
11
86.394300
21
164.010000
0
LINE
8
Sichtbar
10
86.394300
20
163.087000
11
86.394300
21
163.364000
0
LINE
8
Sichtbar
10
86.394300
20
162.387000
11
86.394300
21
162.677000
0
LINE
8
Sichtbar
10
86.394300
20
161.665000
11
86.394300
21
161.962000
0
LINE
8
Sichtbar
10
86.394300
20
160.935000
11
86.394300
21
161.234000
0
LINE
8
Sichtbar
10
86.394300
20
160.212000
11
86.394300
21
160.506000
0
LINE
8
Sichtbar
10
86.394300
20
159.509000
11
86.394300
21
159.793000
0
LINE
8
Sichtbar
10
86.394300
20
158.841000
11
86.394300
21
159.110000
0
LINE
8
Sichtbar
10
86.394300
20
158.219000
11
86.394300
21
158.467000
0
LINE
8
Sichtbar
10
86.394300
20
157.658000
11
86.394300
21
157.880000
0
LINE
8
Sichtbar
10
86.394300
20
157.166000
11
86.394300
21
157.358000
0
LINE
8
Sichtbar
10
86.394300
20
156.754000
11
86.394300
21
156.913000
0
LINE
8
Sichtbar
10
86.394300
20
156.430000
11
86.394300
21
156.552000
0
LINE
8
Sichtbar
10
80.497300
20
156.200000
11
86.394300
21
156.200000
0
LINE
8
Sichtbar
10
86.394300
20
156.200000
11
86.394300
21
156.283000
0
LINE
8
Sichtbar
10
86.394300
20
156.069000
11
86.394300
21
156.111000
0
LINE
8
Sichtbar
10
79.570700
20
165.570000
11
80.312062
21
166.311362
0
LINE
8
Sichtbar
10
79.570700
20
156.963000
11
80.497270
21
156.036695
0
LINE
8
Sichtbar
10
87.320700
20
165.478000
11
87.076471
21
166.067619
0
LINE
8
Sichtbar
10
87.076471
20
166.067619
11
86.486851
21
166.311847
0
LINE
8
Sichtbar
10
86.486900
20
156.222000
11
87.076520
21
156.466229
0
LINE
8
Sichtbar
10
87.076520
20
156.466229
11
87.320749
21
157.055849
0
LINE
8
Sichtbar
10
80.497300
20
156.037000
11
86.394300
21
156.037000
0
LINE
8
Sichtbar
10
86.394300
20
166.312000
11
86.486900
21
166.312000
0
LINE
8
Sichtbar
10
86.394300
20
156.222000
11
86.486900
21
156.222000
0
LINE
8
Sichtbar
10
92.050800
20
163.017000
11
92.050800
21
159.517000
0
LINE
8
Sichtbar
10
92.100800
20
163.017000
11
92.100800
21
159.517000
0
LINE
8
Sichtbar
10
92.530800
20
162.767000
11
92.530800
21
159.767000
0
LINE
8
Sichtbar
10
103.501000
20
162.767000
11
103.501000
21
159.767000
0
LINE
8
Sichtbar
10
107.001000
20
161.367000
11
107.001000
21
161.167000
0
LINE
8
Sichtbar
10
92.050700
20
159.617000
11
92.000699
21
159.739475
0
LINE
8
Sichtbar
10
92.000700
20
162.794000
11
92.050701
21
162.916475
0
LINE
8
Sichtbar
10
92.100800
20
159.517000
11
92.050800
21
159.517000
0
LINE
8
Sichtbar
10
92.100800
20
163.017000
11
92.050800
21
163.017000
0
LINE
8
Sichtbar
10
92.530800
20
159.767000
11
92.100853
21
159.516969
0
LINE
8
Sichtbar
10
92.530800
20
162.767000
11
92.100853
21
163.017031
0
LINE
8
Sichtbar
10
103.501000
20
159.767000
11
92.530800
21
159.767000
0
LINE
8
Sichtbar
10
103.501000
20
162.767000
11
92.530800
21
162.767000
0
LINE
8
Sichtbar
10
106.418000
20
160.436000
11
103.500180
21
159.767134
0
LINE
8
Sichtbar
10
106.418000
20
162.098000
11
103.500180
21
162.766866
0
LINE
8
Sichtbar
10
107.001000
20
161.367000
11
106.837606
21
161.834326
0
LINE
8
Sichtbar
10
106.837606
20
161.834326
11
106.418618
21
162.098030
0
LINE
8
Sichtbar
10
106.418000
20
160.436000
11
106.836988
21
160.699704
0
LINE
8
Sichtbar
10
106.836988
20
160.699704
11
107.000382
21
161.167030
0
LINE
8
Sichtbar
10
95.641500
20
145.432000
11
100.560000
21
145.432000
0
LINE
8
Sichtbar
10
103.401000
20
144.722000
11
92.500900
21
144.722000
0
LINE
8
Sichtbar
10
104.401000
20
144.722000
11
103.401000
21
144.722000
0
LINE
8
Sichtbar
10
107.101000
20
144.722000
11
104.401000
21
144.722000
0
LINE
8
Sichtbar
10
107.101000
20
143.722000
11
107.101000
21
144.722000
0
LINE
8
Sichtbar
10
107.101000
20
143.722000
11
104.401000
21
143.722000
0
LINE
8
Sichtbar
10
103.401000
20
143.722000
11
104.401000
21
143.722000
0
LINE
8
Sichtbar
10
103.401000
20
143.722000
11
92.500900
21
143.722000
0
LINE
8
Sichtbar
10
104.401000
20
144.722000
11
104.401000
21
143.722000
0
LINE
8
Sichtbar
10
92.000800
20
167.592000
11
92.000800
21
168.592000
0
LINE
8
Sichtbar
10
91.000700
20
168.592000
11
92.000800
21
168.592000
0
LINE
8
Sichtbar
10
91.000700
20
168.592000
11
91.000700
21
167.592000
0
LINE
8
Sichtbar
10
92.000800
20
145.222000
11
92.000800
21
167.592000
0
LINE
8
Sichtbar
10
91.000700
20
145.222000
11
91.000700
21
167.592000
0
LINE
8
Sichtbar
10
91.000700
20
145.222000
11
91.114881
21
144.647975
0
LINE
8
Sichtbar
10
91.114881
20
144.647975
11
91.440040
21
144.161340
0
LINE
8
Sichtbar
10
91.440040
20
144.161340
11
91.926675
21
143.836181
0
LINE
8
Sichtbar
10
91.926675
20
143.836181
11
92.500700
21
143.722000
0
LINE
8
Sichtbar
10
92.000700
20
145.222000
11
92.147147
21
144.868447
0
LINE
8
Sichtbar
10
92.147147
20
144.868447
11
92.500701
21
144.722002
0
LINE
8
Sichtbar
10
101.241000
20
144.751000
11
101.311710
21
144.721711
0
LINE
8
Sichtbar
10
94.890100
20
144.722000
11
94.960810
21
144.751289
0
LINE
8
Sichtbar
10
100.560000
20
145.432000
11
101.240507
21
144.751228
0
LINE
8
Sichtbar
10
95.641500
20
145.432000
11
94.960728
21
144.751228
0
LINE
8
Sichtbar
10
101.556000
20
143.472000
11
97.610270
21
141.672040
0
LINE
8
Sichtbar
10
97.610800
20
141.672000
11
93.665000
21
143.472000
0
LINE
8
Sichtbar
10
93.665000
20
143.472000
11
101.556000
21
143.472000
0
LINE
8
Sichtbar
10
97.507000
20
141.444000
11
97.714523
21
141.444000
0
LINE
8
Sichtbar
10
92.860800
20
143.722000
11
92.611507
21
143.472001
0
LINE
8
Sichtbar
10
92.611507
20
143.472001
11
92.860800
21
143.222002
0
LINE
8
Sichtbar
10
93.556500
20
143.222000
11
92.860700
21
143.222000
0
LINE
8
Sichtbar
10
93.660200
20
143.199000
11
93.556438
21
143.221542
0
LINE
8
Sichtbar
10
97.507000
20
141.444000
11
93.660230
21
143.198980
0
LINE
8
Sichtbar
10
101.561000
20
143.199000
11
97.714230
21
141.444020
0
LINE
8
Sichtbar
10
101.665000
20
143.222000
11
101.561238
21
143.199458
0
LINE
8
Sichtbar
10
102.361000
20
143.222000
11
101.665000
21
143.222000
0
LINE
8
Sichtbar
10
102.361000
20
143.222000
11
102.610293
21
143.471999
0
LINE
8
Sichtbar
10
102.610293
20
143.471999
11
102.361000
21
143.721998
0
LINE
8
Sichtbar
10
97.610800
20
141.672000
11
93.665000
21
143.472000
0
LINE
8
Sichtbar
10
93.665000
20
143.472000
11
101.556000
21
143.472000
0
LINE
8
Sichtbar
10
101.556000
20
143.472000
11
97.610270
21
141.672040
0
LINE
8
Sichtbar
10
99.350700
20
147.927000
11
96.850600
21
147.927000
0
LINE
8
Sichtbar
10
96.850600
20
145.432000
11
96.850600
21
147.927000
0
LINE
8
Sichtbar
10
99.350700
20
145.432000
11
99.350700
21
147.927000
0
LINE
8
Sichtbar
10
0.132292
20
160.212000
11
0.132292
21
160.046620
0
LINE
8
Sichtbar
10
175.414000
20
160.212000
11
175.465924
21
160.506478
0
LINE
8
Sichtbar
10
175.308000
20
160.740000
11
175.465337
21
160.506738
0
LINE
8
Sichtbar
10
175.511000
20
160.935000
11
175.308605
21
160.739550
0
LINE
8
Sichtbar
10
175.511000
20
160.935000
11
175.521425
21
161.233839
0
LINE
8
Sichtbar
10
175.333000
20
161.443000
11
175.521267
21
161.233905
0
LINE
8
Sichtbar
10
175.506000
20
161.665000
11
175.332778
21
161.443282
0
LINE
8
Sichtbar
10
175.506000
20
161.665000
11
175.474745
21
161.962383
0
LINE
8
Sichtbar
10
0.132292
20
162.143000
11
0.132292
21
161.962144
0
LINE
8
Sichtbar
10
0.132292
20
162.387000
11
0.132292
21
162.143332
0
LINE
8
Sichtbar
10
175.400000
20
162.387000
11
175.327660
21
162.677139
0
LINE
8
Sichtbar
10
0.132292
20
162.826000
11
0.132292
21
162.676900
0
LINE
8
Sichtbar
10
175.195000
20
163.087000
11
175.089601
21
162.826124
0
LINE
8
Sichtbar
10
175.195000
20
163.087000
11
175.082986
21
163.364249
0
LINE
8
Sichtbar
10
174.826000
20
163.478000
11
175.083040
21
163.363557
0
LINE
8
Sichtbar
10
174.894000
20
163.751000
11
174.825931
21
163.477995
0
LINE
8
Sichtbar
10
174.894000
20
163.751000
11
174.744489
21
164.009961
0
LINE
8
Sichtbar
10
174.474000
20
164.088000
11
174.744465
21
164.010445
0
LINE
8
Sichtbar
10
174.503000
20
164.368000
11
174.473589
21
164.088180
0
LINE
8
Sichtbar
10
174.503000
20
164.368000
11
174.318903
21
164.603632
0
LINE
8
Sichtbar
10
0.132292
20
164.643000
11
0.132292
21
164.603842
0
LINE
8
Sichtbar
10
174.031000
20
164.924000
11
174.040816
21
164.642809
0
LINE
8
Sichtbar
10
174.031000
20
164.924000
11
173.815902
21
165.131716
0
LINE
8
Sichtbar
10
173.534000
20
165.131000
11
173.815363
21
165.131000
0
LINE
8
Sichtbar
10
173.485000
20
165.409000
11
173.533861
21
165.131910
0
LINE
8
Sichtbar
10
173.485000
20
165.409000
11
173.243086
21
165.584760
0
LINE
8
Sichtbar
10
0.132292
20
165.545000
11
0.132292
21
165.584158
0
LINE
8
Sichtbar
10
172.878000
20
165.813000
11
172.964945
21
165.545409
0
LINE
8
Sichtbar
10
172.878000
20
165.813000
11
172.613978
21
165.953382
0
LINE
8
Sichtbar
10
172.343000
20
165.876000
11
172.613462
21
165.953555
0
LINE
8
Sichtbar
10
172.220000
20
166.128000
11
172.343343
21
165.875112
0
LINE
8
Sichtbar
10
172.220000
20
166.128000
11
171.939013
21
166.230272
0
LINE
8
Sichtbar
10
0.132292
20
166.116000
11
0.132292
21
166.230440
0
LINE
8
Sichtbar
10
171.525000
20
166.350000
11
171.682337
21
166.116741
0
LINE
8
Sichtbar
10
171.525000
20
166.350000
11
171.232511
21
166.412169
0
LINE
8
Sichtbar
10
0.132292
20
166.263000
11
0.132292
21
166.412098
0
LINE
8
Sichtbar
10
170.805000
20
166.472000
11
170.993267
21
166.262908
0
LINE
8
Sichtbar
10
170.805000
20
166.472000
11
170.506706
21
166.492849
0
LINE
8
Sichtbar
10
170.291000
20
166.312000
11
170.506537
21
166.492856
0
LINE
8
Sichtbar
10
170.076000
20
166.493000
11
170.291537
21
166.312144
0
LINE
8
Sichtbar
10
170.076000
20
166.493000
11
169.777706
21
166.472151
0
LINE
8
Sichtbar
10
169.589000
20
166.263000
11
169.777269
21
166.472092
0
LINE
8
Sichtbar
10
0.132292
20
166.412000
11
0.132292
21
166.262902
0
LINE
8
Sichtbar
10
169.351000
20
166.412000
11
169.058514
21
166.349831
0
LINE
8
Sichtbar
10
168.901000
20
166.116000
11
169.058337
21
166.349259
0
LINE
8
Sichtbar
10
168.644000
20
166.231000
11
168.901037
21
166.116560
0
LINE
8
Sichtbar
10
168.644000
20
166.231000
11
168.363010
21
166.128728
0
LINE
8
Sichtbar
10
168.239000
20
165.876000
11
168.362341
21
166.128888
0
LINE
8
Sichtbar
10
167.969000
20
165.953000
11
168.239465
21
165.875445
0
LINE
8
Sichtbar
10
167.969000
20
165.953000
11
167.704981
21
165.812618
0
LINE
8
Sichtbar
10
167.618000
20
165.545000
11
167.704947
21
165.812591
0
LINE
8
Sichtbar
10
167.339000
20
165.584000
11
167.617624
21
165.544842
0
LINE
8
Sichtbar
10
167.339000
20
165.584000
11
167.097086
21
165.408240
0
LINE
8
Sichtbar
10
167.049000
20
165.131000
11
167.097858
21
165.408090
0
LINE
8
Sichtbar
10
166.767000
20
165.131000
11
167.048363
21
165.131000
0
LINE
8
Sichtbar
10
166.767000
20
165.131000
11
166.551902
21
164.923284
0
LINE
8
Sichtbar
10
166.542000
20
164.643000
11
166.551816
21
164.924191
0
LINE
8
Sichtbar
10
0.132292
20
164.603000
11
0.132292
21
164.642158
0
LINE
8
Sichtbar
10
166.264000
20
164.603000
11
166.079906
21
164.367368
0
LINE
8
Sichtbar
10
166.109000
20
164.088000
11
166.079589
21
164.367820
0
LINE
8
Sichtbar
10
165.839000
20
164.010000
11
166.109465
21
164.087555
0
LINE
8
Sichtbar
10
165.839000
20
164.010000
11
165.689489
21
163.751039
0
LINE
8
Sichtbar
10
165.757000
20
163.478000
11
165.688933
21
163.751005
0
LINE
8
Sichtbar
10
165.500000
20
163.364000
11
165.757037
21
163.478443
0
LINE
8
Sichtbar
10
165.500000
20
163.364000
11
165.387983
21
163.086751
0
LINE
8
Sichtbar
10
165.493000
20
162.826000
11
165.387598
21
163.086876
0
LINE
8
Sichtbar
10
165.255000
20
162.677000
11
165.493609
21
162.826100
0
LINE
8
Sichtbar
10
165.255000
20
162.677000
11
165.182658
21
162.386861
0
LINE
8
Sichtbar
10
165.323000
20
162.143000
11
165.182316
21
162.386668
0
LINE
8
Sichtbar
10
165.108000
20
161.962000
11
165.323537
21
162.142856
0
LINE
8
Sichtbar
10
165.108000
20
161.962000
11
165.076742
21
161.664617
0
LINE
8
Sichtbar
10
0.132292
20
161.443000
11
0.132292
21
161.664718
0
LINE
8
Sichtbar
10
0.132292
20
161.443000
11
0.132292
21
161.233905
0
LINE
8
Sichtbar
10
165.061000
20
161.234000
11
165.071425
21
160.935161
0
LINE
8
Sichtbar
10
0.132292
20
160.740000
11
0.132292
21
160.935450
0
LINE
8
Sichtbar
10
165.117000
20
160.506000
11
165.274337
21
160.739262
0
LINE
8
Sichtbar
10
165.117000
20
160.506000
11
165.168924
21
160.211522
0
LINE
8
Sichtbar
10
165.396000
20
160.046000
11
165.168371
21
160.211380
0
LINE
8
Sichtbar
10
165.273000
20
159.794000
11
165.396343
21
160.046888
0
LINE
8
Sichtbar
10
165.273000
20
159.794000
11
165.365403
21
159.509613
0
LINE
8
Sichtbar
10
165.614000
20
159.377000
11
165.365570
21
159.509090
0
LINE
8
Sichtbar
10
165.527000
20
159.110000
11
165.613947
21
159.377594
0
LINE
8
Sichtbar
10
165.527000
20
159.110000
11
165.658082
21
158.841242
0
LINE
8
Sichtbar
10
165.922000
20
158.745000
11
165.657605
21
158.841231
0
LINE
8
Sichtbar
10
165.874000
20
158.467000
11
165.922858
21
158.744090
0
LINE
8
Sichtbar
10
165.874000
20
158.467000
11
166.041211
21
158.219102
0
LINE
8
Sichtbar
10
166.316000
20
158.161000
11
166.040786
21
158.219497
0
LINE
8
Sichtbar
10
0.132292
20
157.880000
11
0.132292
21
158.161191
0
LINE
8
Sichtbar
10
166.306000
20
157.880000
11
166.506083
21
157.657782
0
LINE
8
Sichtbar
10
0.132292
20
157.638000
11
0.132292
21
157.657632
0
LINE
8
Sichtbar
10
166.816000
20
157.358000
11
166.786589
21
157.637820
0
LINE
8
Sichtbar
10
166.816000
20
157.358000
11
167.045065
21
157.165791
0
LINE
8
Sichtbar
10
167.326000
20
157.186000
11
167.045322
21
157.166368
0
LINE
8
Sichtbar
10
167.394000
20
156.913000
11
167.325933
21
157.186005
0
LINE
8
Sichtbar
10
167.394000
20
156.913000
11
167.647584
21
156.754544
0
LINE
8
Sichtbar
10
167.923000
20
156.813000
11
167.647783
21
156.754501
0
LINE
8
Sichtbar
10
168.028000
20
156.552000
11
167.922601
21
156.812876
0
LINE
8
Sichtbar
10
168.028000
20
156.552000
11
168.301169
21
156.430376
0
LINE
8
Sichtbar
10
168.566000
20
156.526000
11
168.301605
21
156.429769
0
LINE
8
Sichtbar
10
168.707000
20
156.283000
11
168.566319
21
156.526668
0
LINE
8
Sichtbar
10
168.707000
20
156.283000
11
168.994438
21
156.200577
0
LINE
8
Sichtbar
10
0.132292
20
156.332000
11
0.132292
21
156.199907
0
LINE
8
Sichtbar
10
169.416000
20
156.111000
11
169.242775
21
156.332718
0
LINE
8
Sichtbar
10
169.416000
20
156.111000
11
169.712111
21
156.069386
0
LINE
8
Sichtbar
10
169.939000
20
156.234000
11
169.711371
21
156.068617
0
LINE
8
Sichtbar
10
170.142000
20
156.039000
11
169.939605
21
156.234453
0
LINE
8
Sichtbar
10
170.142000
20
156.039000
11
170.441021
21
156.039000
0
LINE
8
Sichtbar
10
170.643000
20
156.234000
11
170.440605
21
156.038547
0
LINE
8
Sichtbar
10
170.871000
20
156.069000
11
170.643371
21
156.234383
0
LINE
8
Sichtbar
10
170.871000
20
156.069000
11
171.167111
21
156.110614
0
LINE
8
Sichtbar
10
0.132292
20
156.332000
11
0.132292
21
156.110282
0
LINE
8
Sichtbar
10
0.132292
20
156.200000
11
0.132292
21
156.332093
0
LINE
8
Sichtbar
10
171.589000
20
156.200000
11
171.876438
21
156.282423
0
LINE
8
Sichtbar
10
0.132292
20
156.526000
11
0.132292
21
156.282332
0
LINE
8
Sichtbar
10
0.132292
20
156.430000
11
0.132292
21
156.526231
0
LINE
8
Sichtbar
10
172.281000
20
156.430000
11
172.554171
21
156.551624
0
LINE
8
Sichtbar
10
172.660000
20
156.813000
11
172.554601
21
156.552124
0
LINE
8
Sichtbar
10
172.935000
20
156.754000
11
172.659786
21
156.812499
0
LINE
8
Sichtbar
10
172.935000
20
156.754000
11
173.188587
21
156.912456
0
LINE
8
Sichtbar
10
173.257000
20
157.186000
11
173.188933
21
156.912995
0
LINE
8
Sichtbar
10
173.537000
20
157.166000
11
173.256322
21
157.185632
0
LINE
8
Sichtbar
10
173.537000
20
157.166000
11
173.766063
21
157.358209
0
LINE
8
Sichtbar
10
173.796000
20
157.638000
11
173.766592
21
157.358180
0
LINE
8
Sichtbar
10
174.076000
20
157.658000
11
173.795322
21
157.638368
0
LINE
8
Sichtbar
10
174.076000
20
157.658000
11
174.276086
21
157.880218
0
LINE
8
Sichtbar
10
174.267000
20
158.161000
11
174.276816
21
157.879809
0
LINE
8
Sichtbar
10
174.542000
20
158.220000
11
174.266786
21
158.161503
0
LINE
8
Sichtbar
10
174.542000
20
158.220000
11
174.709211
21
158.467898
0
LINE
8
Sichtbar
10
174.660000
20
158.745000
11
174.708858
21
158.467910
0
LINE
8
Sichtbar
10
174.925000
20
158.841000
11
174.660607
21
158.744769
0
LINE
8
Sichtbar
10
174.925000
20
158.841000
11
175.056082
21
159.109758
0
LINE
8
Sichtbar
10
174.969000
20
159.377000
11
175.055945
21
159.109406
0
LINE
8
Sichtbar
10
175.217000
20
159.509000
11
174.968572
21
159.376910
0
LINE
8
Sichtbar
10
175.217000
20
159.509000
11
175.309403
21
159.793387
0
LINE
8
Sichtbar
10
0.132292
20
160.046000
11
0.132292
21
159.793112
0
LINE
8
Sichtbar
10
174.595000
20
161.267000
11
174.506422
21
162.133305
0
LINE
8
Sichtbar
10
174.506422
20
162.133305
11
174.254916
21
162.940045
0
LINE
8
Sichtbar
10
174.254916
20
162.940045
11
173.857750
21
163.669976
0
LINE
8
Sichtbar
10
173.857750
20
163.669976
11
173.332192
21
164.305856
0
LINE
8
Sichtbar
10
173.332192
20
164.305856
11
172.695512
21
164.830444
0
LINE
8
Sichtbar
10
172.695512
20
164.830444
11
171.964976
21
165.226497
0
LINE
8
Sichtbar
10
171.964976
20
165.226497
11
171.157854
21
165.476773
0
LINE
8
Sichtbar
10
171.157854
20
165.476773
11
170.291415
21
165.564030
0
LINE
8
Sichtbar
10
170.291415
20
165.564030
11
169.424976
21
165.476773
0
LINE
8
Sichtbar
10
169.424976
20
165.476773
11
168.617854
21
165.226497
0
LINE
8
Sichtbar
10
168.617854
20
165.226497
11
167.887318
21
164.830444
0
LINE
8
Sichtbar
10
167.887318
20
164.830444
11
167.250638
21
164.305856
0
LINE
8
Sichtbar
10
167.250638
20
164.305856
11
166.725080
21
163.669976
0
LINE
8
Sichtbar
10
166.725080
20
163.669976
11
166.327914
21
162.940045
0
LINE
8
Sichtbar
10
166.327914
20
162.940045
11
166.076408
21
162.133305
0
LINE
8
Sichtbar
10
166.076408
20
162.133305
11
165.987830
21
161.267000
0
LINE
8
Sichtbar
10
165.987830
20
161.267000
11
166.076408
21
160.400695
0
LINE
8
Sichtbar
10
166.076408
20
160.400695
11
166.327914
21
159.593955
0
LINE
8
Sichtbar
10
166.327914
20
159.593955
11
166.725080
21
158.864024
0
LINE
8
Sichtbar
10
166.725080
20
158.864024
11
167.250638
21
158.228144
0
LINE
8
Sichtbar
10
167.250638
20
158.228144
11
167.887318
21
157.703556
0
LINE
8
Sichtbar
10
167.887318
20
157.703556
11
168.617854
21
157.307503
0
LINE
8
Sichtbar
10
168.617854
20
157.307503
11
169.424976
21
157.057227
0
LINE
8
Sichtbar
10
169.424976
20
157.057227
11
170.291415
21
156.969970
0
LINE
8
Sichtbar
10
170.291415
20
156.969970
11
171.157854
21
157.057227
0
LINE
8
Sichtbar
10
171.157854
20
157.057227
11
171.964976
21
157.307503
0
LINE
8
Sichtbar
10
171.964976
20
157.307503
11
172.695512
21
157.703556
0
LINE
8
Sichtbar
10
172.695512
20
157.703556
11
173.332192
21
158.228144
0
LINE
8
Sichtbar
10
173.332192
20
158.228144
11
173.857750
21
158.864024
0
LINE
8
Sichtbar
10
173.857750
20
158.864024
11
174.254916
21
159.593955
0
LINE
8
Sichtbar
10
174.254916
20
159.593955
11
174.506422
21
160.400695
0
LINE
8
Sichtbar
10
174.506422
20
160.400695
11
174.595000
21
161.267000
0
LINE
8
Sichtbar
10
174.595000
20
161.267000
11
174.595000
21
161.267000
0
LINE
8
Sichtbar
10
173.483000
20
161.267000
11
173.372515
21
162.099794
0
LINE
8
Sichtbar
10
173.372515
20
162.099794
11
173.055381
21
162.862895
0
LINE
8
Sichtbar
10
173.055381
20
162.862895
11
172.553083
21
163.519091
0
LINE
8
Sichtbar
10
172.553083
20
163.519091
11
171.887105
21
164.031171
0
LINE
8
Sichtbar
10
171.887105
20
164.031171
11
171.110641
21
164.351885
0
LINE
8
Sichtbar
10
171.110641
20
164.351885
11
170.291210
21
164.458790
0
LINE
8
Sichtbar
10
170.291210
20
164.458790
11
169.471779
21
164.351885
0
LINE
8
Sichtbar
10
169.471779
20
164.351885
11
168.695315
21
164.031171
0
LINE
8
Sichtbar
10
168.695315
20
164.031171
11
168.029337
21
163.519091
0
LINE
8
Sichtbar
10
168.029337
20
163.519091
11
167.527039
21
162.862895
0
LINE
8
Sichtbar
10
167.527039
20
162.862895
11
167.209905
21
162.099794
0
LINE
8
Sichtbar
10
167.209905
20
162.099794
11
167.099420
21
161.267000
0
LINE
8
Sichtbar
10
167.099420
20
161.267000
11
167.209905
21
160.434206
0
LINE
8
Sichtbar
10
167.209905
20
160.434206
11
167.527039
21
159.671105
0
LINE
8
Sichtbar
10
167.527039
20
159.671105
11
168.029337
21
159.014909
0
LINE
8
Sichtbar
10
168.029337
20
159.014909
11
168.695315
21
158.502829
0
LINE
8
Sichtbar
10
168.695315
20
158.502829
11
169.471779
21
158.182115
0
LINE
8
Sichtbar
10
169.471779
20
158.182115
11
170.291210
21
158.075210
0
LINE
8
Sichtbar
10
170.291210
20
158.075210
11
171.110641
21
158.182115
0
LINE
8
Sichtbar
10
171.110641
20
158.182115
11
171.887105
21
158.502829
0
LINE
8
Sichtbar
10
171.887105
20
158.502829
11
172.553083
21
159.014909
0
LINE
8
Sichtbar
10
172.553083
20
159.014909
11
173.055381
21
159.671105
0
LINE
8
Sichtbar
10
173.055381
20
159.671105
11
173.372515
21
160.434206
0
LINE
8
Sichtbar
10
173.372515
20
160.434206
11
173.483000
21
161.267000
0
LINE
8
Sichtbar
10
173.483000
20
161.267000
11
173.483000
21
161.267000
0
LINE
8
Sichtbar
10
170.755000
20
164.237000
11
169.828502
21
164.237000
0
LINE
8
Sichtbar
10
170.755000
20
158.296000
11
171.769956
21
158.648117
0
LINE
8
Sichtbar
10
171.769956
20
158.648117
11
172.575573
21
159.311309
0
LINE
8
Sichtbar
10
172.575573
20
159.311309
11
173.106712
21
160.209494
0
LINE
8
Sichtbar
10
173.106712
20
160.209494
11
173.298233
21
161.266585
0
LINE
8
Sichtbar
10
173.298233
20
161.266585
11
173.106712
21
162.323676
0
LINE
8
Sichtbar
10
173.106712
20
162.323676
11
172.575573
21
163.221861
0
LINE
8
Sichtbar
10
172.575573
20
163.221861
11
171.769956
21
163.885053
0
LINE
8
Sichtbar
10
171.769956
20
163.885053
11
170.755000
21
164.237170
0
LINE
8
Sichtbar
10
169.828000
20
158.296000
11
170.754498
21
158.296000
0
LINE
8
Sichtbar
10
169.828000
20
164.237000
11
168.813044
21
163.884883
0
LINE
8
Sichtbar
10
168.813044
20
163.884883
11
168.007427
21
163.221691
0
LINE
8
Sichtbar
10
168.007427
20
163.221691
11
167.476288
21
162.323506
0
LINE
8
Sichtbar
10
167.476288
20
162.323506
11
167.284767
21
161.266415
0
LINE
8
Sichtbar
10
167.284767
20
161.266415
11
167.476288
21
160.209324
0
LINE
8
Sichtbar
10
167.476288
20
160.209324
11
168.007427
21
159.311139
0
LINE
8
Sichtbar
10
168.007427
20
159.311139
11
168.813044
21
158.647947
0
LINE
8
Sichtbar
10
168.813044
20
158.647947
11
169.828000
21
158.295830
0
LINE
8
Sichtbar
10
172.052000
20
160.868000
11
172.052000
21
161.665000
0
LINE
8
Sichtbar
10
171.510000
20
161.665000
11
171.510000
21
160.868000
0
LINE
8
Sichtbar
10
170.291000
20
161.665000
11
170.291000
21
160.868000
0
LINE
8
Sichtbar
10
169.072000
20
161.665000
11
169.072000
21
160.868000
0
LINE
8
Sichtbar
10
168.531000
20
160.868000
11
168.531000
21
161.665000
0
LINE
8
Sichtbar
10
172.052000
20
160.868000
11
170.754000
21
160.868000
0
LINE
8
Sichtbar
10
169.828000
20
160.868000
11
168.531000
21
160.868000
0
LINE
8
Sichtbar
10
170.754000
20
160.868000
11
169.828000
21
160.868000
0
LINE
8
Sichtbar
10
169.828000
20
160.868000
11
169.828000
21
158.296000
0
LINE
8
Sichtbar
10
169.828000
20
164.237000
11
169.828000
21
161.665000
0
LINE
8
Sichtbar
10
170.754000
20
161.665000
11
169.828000
21
161.665000
0
LINE
8
Sichtbar
10
169.828000
20
161.665000
11
168.531000
21
161.665000
0
LINE
8
Sichtbar
10
172.052000
20
161.665000
11
170.754000
21
161.665000
0
LINE
8
Sichtbar
10
170.754000
20
158.296000
11
170.754000
21
160.868000
0
LINE
8
Sichtbar
10
170.754000
20
161.665000
11
170.754000
21
164.237000
0
LINE
8
Sichtbar
10
175.348000
20
160.778000
11
175.379644
21
160.634842
0
LINE
8
Sichtbar
10
175.449000
20
160.402000
11
175.907962
21
159.596600
0
LINE
8
Sichtbar
10
175.907962
20
159.596600
11
176.597388
21
159.017296
0
LINE
8
Sichtbar
10
176.597388
20
159.017296
11
177.442824
21
158.707232
0
LINE
8
Sichtbar
10
177.442824
20
158.707232
11
178.369814
21
158.709550
0
LINE
8
Sichtbar
10
178.369814
20
158.709550
11
179.237328
21
159.036254
0
LINE
8
Sichtbar
10
179.237328
20
159.036254
11
179.917767
21
159.626087
0
LINE
8
Sichtbar
10
179.917767
20
159.626087
11
180.356827
21
160.412298
0
LINE
8
Sichtbar
10
180.356827
20
160.412298
11
180.500200
21
161.328137
0
LINE
8
Sichtbar
10
180.500200
20
161.328137
11
180.313870
21
162.236210
0
LINE
8
Sichtbar
10
180.313870
20
162.236210
11
179.838285
21
163.000880
0
LINE
8
Sichtbar
10
179.838285
20
163.000880
11
179.130832
21
163.558026
0
LINE
8
Sichtbar
10
179.130832
20
163.558026
11
178.248900
21
163.843528
0
LINE
8
Sichtbar
10
178.248900
20
163.843528
11
177.322829
21
163.802203
0
LINE
8
Sichtbar
10
177.322829
20
163.802203
11
176.492928
21
163.452681
0
LINE
8
Sichtbar
10
176.492928
20
163.452681
11
175.831538
21
162.841564
0
LINE
8
Sichtbar
10
175.831538
20
162.841564
11
175.411001
21
162.015450
0
LINE
8
Sichtbar
10
178.741000
20
147.338000
11
178.566833
21
147.988000
0
LINE
8
Sichtbar
10
178.566833
20
147.988000
11
178.091000
21
148.463833
0
LINE
8
Sichtbar
10
178.091000
20
148.463833
11
177.441000
21
148.638000
0
LINE
8
Sichtbar
10
177.441000
20
148.638000
11
176.791000
21
148.463833
0
LINE
8
Sichtbar
10
176.791000
20
148.463833
11
176.315167
21
147.988000
0
LINE
8
Sichtbar
10
176.315167
20
147.988000
11
176.141000
21
147.338000
0
LINE
8
Sichtbar
10
176.141000
20
147.338000
11
176.315167
21
146.688000
0
LINE
8
Sichtbar
10
176.315167
20
146.688000
11
176.791000
21
146.212167
0
LINE
8
Sichtbar
10
176.791000
20
146.212167
11
177.441000
21
146.038000
0
LINE
8
Sichtbar
10
177.441000
20
146.038000
11
178.091000
21
146.212167
0
LINE
8
Sichtbar
10
178.091000
20
146.212167
11
178.566833
21
146.688000
0
LINE
8
Sichtbar
10
178.566833
20
146.688000
11
178.741000
21
147.338000
0
LINE
8
Sichtbar
10
178.741000
20
147.338000
11
178.741000
21
147.338000
0
LINE
8
Sichtbar
10
183.741000
20
147.338000
11
183.566833
21
147.988000
0
LINE
8
Sichtbar
10
183.566833
20
147.988000
11
183.091000
21
148.463833
0
LINE
8
Sichtbar
10
183.091000
20
148.463833
11
182.441000
21
148.638000
0
LINE
8
Sichtbar
10
182.441000
20
148.638000
11
181.791000
21
148.463833
0
LINE
8
Sichtbar
10
181.791000
20
148.463833
11
181.315167
21
147.988000
0
LINE
8
Sichtbar
10
181.315167
20
147.988000
11
181.141000
21
147.338000
0
LINE
8
Sichtbar
10
181.141000
20
147.338000
11
181.315167
21
146.688000
0
LINE
8
Sichtbar
10
181.315167
20
146.688000
11
181.791000
21
146.212167
0
LINE
8
Sichtbar
10
181.791000
20
146.212167
11
182.441000
21
146.038000
0
LINE
8
Sichtbar
10
182.441000
20
146.038000
11
183.091000
21
146.212167
0
LINE
8
Sichtbar
10
183.091000
20
146.212167
11
183.566833
21
146.688000
0
LINE
8
Sichtbar
10
183.566833
20
146.688000
11
183.741000
21
147.338000
0
LINE
8
Sichtbar
10
183.741000
20
147.338000
11
183.741000
21
147.338000
0
LINE
8
Sichtbar
10
179.651000
20
161.267000
11
179.416544
21
162.142000
0
LINE
8
Sichtbar
10
179.416544
20
162.142000
11
178.776000
21
162.782544
0
LINE
8
Sichtbar
10
178.776000
20
162.782544
11
177.901000
21
163.017000
0
LINE
8
Sichtbar
10
177.901000
20
163.017000
11
177.026000
21
162.782544
0
LINE
8
Sichtbar
10
177.026000
20
162.782544
11
176.385456
21
162.142000
0
LINE
8
Sichtbar
10
176.385456
20
162.142000
11
176.151000
21
161.267000
0
LINE
8
Sichtbar
10
176.151000
20
161.267000
11
176.385456
21
160.392000
0
LINE
8
Sichtbar
10
176.385456
20
160.392000
11
177.026000
21
159.751456
0
LINE
8
Sichtbar
10
177.026000
20
159.751456
11
177.901000
21
159.517000
0
LINE
8
Sichtbar
10
177.901000
20
159.517000
11
178.776000
21
159.751456
0
LINE
8
Sichtbar
10
178.776000
20
159.751456
11
179.416544
21
160.392000
0
LINE
8
Sichtbar
10
179.416544
20
160.392000
11
179.651000
21
161.267000
0
LINE
8
Sichtbar
10
179.651000
20
161.267000
11
179.651000
21
161.267000
0
LINE
8
Sichtbar
10
173.741000
20
147.338000
11
173.566833
21
147.988000
0
LINE
8
Sichtbar
10
173.566833
20
147.988000
11
173.091000
21
148.463833
0
LINE
8
Sichtbar
10
173.091000
20
148.463833
11
172.441000
21
148.638000
0
LINE
8
Sichtbar
10
172.441000
20
148.638000
11
171.791000
21
148.463833
0
LINE
8
Sichtbar
10
171.791000
20
148.463833
11
171.315167
21
147.988000
0
LINE
8
Sichtbar
10
171.315167
20
147.988000
11
171.141000
21
147.338000
0
LINE
8
Sichtbar
10
171.141000
20
147.338000
11
171.315167
21
146.688000
0
LINE
8
Sichtbar
10
171.315167
20
146.688000
11
171.791000
21
146.212167
0
LINE
8
Sichtbar
10
171.791000
20
146.212167
11
172.441000
21
146.038000
0
LINE
8
Sichtbar
10
172.441000
20
146.038000
11
173.091000
21
146.212167
0
LINE
8
Sichtbar
10
173.091000
20
146.212167
11
173.566833
21
146.688000
0
LINE
8
Sichtbar
10
173.566833
20
146.688000
11
173.741000
21
147.338000
0
LINE
8
Sichtbar
10
173.741000
20
147.338000
11
173.741000
21
147.338000
0
LINE
8
Sichtbar
10
168.741000
20
147.338000
11
168.638840
21
147.844019
0
LINE
8
Sichtbar
10
168.638840
20
147.844019
11
168.360239
21
148.257239
0
LINE
8
Sichtbar
10
168.360239
20
148.257239
11
167.947019
21
148.535839
0
LINE
8
Sichtbar
10
167.947019
20
148.535839
11
167.441000
21
148.638000
0
LINE
8
Sichtbar
10
167.441000
20
148.638000
11
166.934981
21
148.535839
0
LINE
8
Sichtbar
10
166.934981
20
148.535839
11
166.521761
21
148.257239
0
LINE
8
Sichtbar
10
166.521761
20
148.257239
11
166.243160
21
147.844019
0
LINE
8
Sichtbar
10
166.243160
20
147.844019
11
166.141000
21
147.338000
0
LINE
8
Sichtbar
10
166.141000
20
147.338000
11
166.315167
21
146.688000
0
LINE
8
Sichtbar
10
166.315167
20
146.688000
11
166.791000
21
146.212167
0
LINE
8
Sichtbar
10
166.791000
20
146.212167
11
167.441000
21
146.038000
0
LINE
8
Sichtbar
10
167.441000
20
146.038000
11
168.091000
21
146.212167
0
LINE
8
Sichtbar
10
168.091000
20
146.212167
11
168.566833
21
146.688000
0
LINE
8
Sichtbar
10
168.566833
20
146.688000
11
168.741000
21
147.338000
0
LINE
8
Sichtbar
10
168.741000
20
147.338000
11
168.741000
21
147.338000
0
LINE
8
Sichtbar
10
157.741000
20
143.722000
11
157.741000
21
144.722000
0
LINE
8
Sichtbar
10
158.741000
20
144.722000
11
157.741000
21
144.722000
0
LINE
8
Sichtbar
10
162.191000
20
144.722000
11
158.741000
21
144.722000
0
LINE
8
Sichtbar
10
162.191000
20
143.722000
11
158.741000
21
143.722000
0
LINE
8
Sichtbar
10
157.741000
20
143.722000
11
158.741000
21
143.722000
0
LINE
8
Sichtbar
10
162.191000
20
143.722000
11
186.691000
21
143.722000
0
LINE
8
Sichtbar
10
165.691000
20
168.592000
11
165.301756
21
168.513415
0
LINE
8
Sichtbar
10
165.301756
20
168.513415
11
164.983895
21
168.299108
0
LINE
8
Sichtbar
10
164.983895
20
168.299108
11
164.769586
21
167.981247
0
LINE
8
Sichtbar
10
164.769586
20
167.981247
11
164.691001
21
167.592003
0
LINE
8
Sichtbar
10
164.691000
20
167.592000
11
164.691000
21
147.722000
0
LINE
8
Sichtbar
10
164.691000
20
147.722000
11
162.191000
21
147.722000
0
LINE
8
Sichtbar
10
186.691000
20
167.592000
11
186.612415
21
167.981244
0
LINE
8
Sichtbar
10
186.612415
20
167.981244
11
186.398106
21
168.299105
0
LINE
8
Sichtbar
10
186.398106
20
168.299105
11
186.080245
21
168.513412
0
LINE
8
Sichtbar
10
186.080245
20
168.513412
11
185.691001
21
168.591997
0
LINE
8
Sichtbar
10
165.691000
20
168.592000
11
185.691000
21
168.592000
0
LINE
8
Sichtbar
10
162.191000
20
147.722000
11
162.191000
21
145.222000
0
LINE
8
Sichtbar
10
186.691000
20
145.222000
11
186.691000
21
167.592000
0
LINE
8
Sichtbar
10
162.191000
20
145.222000
11
162.191000
21
143.722000
0
LINE
8
Sichtbar
10
186.691000
20
143.722000
11
186.691000
21
145.222000
0
LINE
8
Sichtbar
10
167.291000
20
141.444000
11
167.291000
21
141.422000
0
LINE
8
Sichtbar
10
185.691000
20
141.444000
11
185.691000
21
141.422000
0
LINE
8
Sichtbar
10
167.291000
20
143.722000
11
167.291000
21
143.222000
0
LINE
8
Sichtbar
10
167.291000
20
141.444000
11
167.291000
21
143.199000
0
LINE
8
Sichtbar
10
167.291000
20
143.199000
11
167.291000
21
143.222000
0
LINE
8
Sichtbar
10
185.691000
20
143.722000
11
185.691000
21
143.222000
0
LINE
8
Sichtbar
10
185.691000
20
143.222000
11
185.691000
21
143.199000
0
LINE
8
Sichtbar
10
185.691000
20
141.444000
11
185.691000
21
143.199000
0
LINE
8
Sichtbar
10
167.291000
20
143.222000
11
185.691000
21
143.222000
0
LINE
8
Sichtbar
10
167.291000
20
141.422000
11
185.691000
21
141.422000
0
LINE
8
Sichtbar
10
168.600000
20
147.927000
11
167.451000
21
147.927000
0
LINE
8
Sichtbar
10
167.451000
20
146.038000
11
167.451000
21
147.927000
0
LINE
8
Sichtbar
10
182.791000
20
147.927000
11
181.282000
21
147.927000
0
LINE
8
Sichtbar
10
182.791000
20
146.086000
11
182.791000
21
147.927000
0
LINE
8
Sichtbar
10
90.167400
20
97.397100
11
90.494967
21
97.532783
0
LINE
8
Sichtbar
10
90.495000
20
90.081000
11
90.167433
21
90.216683
0
LINE
8
Sichtbar
10
90.961000
20
97.806900
11
90.633436
21
97.671219
0
LINE
8
Sichtbar
10
90.633400
20
89.942600
11
90.960967
21
89.806917
0
LINE
8
Sichtbar
10
90.495100
20
97.532800
11
90.633477
21
97.671177
0
LINE
8
Sichtbar
10
90.495100
20
90.081100
11
90.633477
21
89.942459
0
LINE
8
Sichtbar
10
87.320900
20
97.397100
11
90.167500
21
97.397100
0
LINE
8
Sichtbar
10
87.320900
20
90.216600
11
90.167500
21
90.216600
0
LINE
8
Sichtbar
10
90.961000
20
97.807000
11
91.000700
21
97.807000
0
LINE
8
Sichtbar
10
90.961000
20
89.807000
11
91.000700
21
89.807000
0
LINE
8
Sichtbar
10
80.312000
20
88.765200
11
80.497298
21
88.576933
0
LINE
8
Sichtbar
10
80.497300
20
88.592000
11
80.312002
21
88.765222
0
LINE
8
Sichtbar
10
80.497300
20
88.592100
11
80.497300
21
88.623300
0
LINE
8
Sichtbar
10
80.312000
20
88.838800
11
80.497298
21
88.623263
0
LINE
8
Sichtbar
10
80.497300
20
88.698100
11
80.312002
21
88.838781
0
LINE
8
Sichtbar
10
80.497300
20
92.397000
11
80.497300
21
92.687300
0
LINE
8
Sichtbar
10
80.312000
20
89.009000
11
80.497298
21
88.770391
0
LINE
8
Sichtbar
10
80.497300
20
88.903600
11
80.312002
21
89.008999
0
LINE
8
Sichtbar
10
80.497300
20
91.709900
11
80.497300
21
91.987200
0
LINE
8
Sichtbar
10
80.312000
20
89.272700
11
80.497298
21
89.015660
0
LINE
8
Sichtbar
10
80.497300
20
89.204600
11
80.312002
21
89.272669
0
LINE
8
Sichtbar
10
80.497300
20
91.063500
11
80.497300
21
91.322300
0
LINE
8
Sichtbar
10
80.312000
20
89.624600
11
80.497298
21
89.354135
0
LINE
8
Sichtbar
10
80.497300
20
90.470300
11
80.497300
21
90.706100
0
LINE
8
Sichtbar
10
80.312000
20
90.057900
11
80.497298
21
89.779276
0
LINE
8
Sichtbar
10
80.497300
20
90.067700
11
80.312002
21
90.057884
0
LINE
8
Sichtbar
10
80.497300
20
89.942500
11
80.497300
21
90.150200
0
LINE
8
Sichtbar
10
80.312000
20
90.564200
11
80.497298
21
90.282837
0
LINE
8
Sichtbar
10
80.497300
20
90.613000
11
80.312002
21
90.564139
0
LINE
8
Sichtbar
10
80.497300
20
89.489500
11
80.497300
21
89.665200
0
LINE
8
Sichtbar
10
80.312000
20
91.133600
11
80.497298
21
90.854976
0
LINE
8
Sichtbar
10
80.497300
20
91.220500
11
80.312002
21
91.133555
0
LINE
8
Sichtbar
10
80.497300
20
89.120700
11
80.497300
21
89.261200
0
LINE
8
Sichtbar
10
80.312000
20
91.755000
11
80.497298
21
91.484538
0
LINE
8
Sichtbar
10
80.497300
20
91.878300
11
80.312002
21
91.754957
0
LINE
8
Sichtbar
10
80.497300
20
88.843100
11
80.497300
21
88.945300
0
LINE
8
Sichtbar
10
80.312000
20
92.416400
11
80.497298
21
92.159363
0
LINE
8
Sichtbar
10
80.497300
20
92.573700
11
80.312002
21
92.416363
0
LINE
8
Sichtbar
10
80.497300
20
88.662200
11
80.497300
21
88.724300
0
LINE
8
Sichtbar
10
80.312000
20
93.104800
11
80.497298
21
92.866191
0
LINE
8
Sichtbar
10
80.497300
20
93.293100
11
80.312002
21
93.104833
0
LINE
8
Sichtbar
10
80.497300
20
88.581200
11
80.497300
21
88.602100
0
LINE
8
Sichtbar
10
80.312000
20
93.806900
11
80.497298
21
93.591363
0
LINE
8
Sichtbar
10
80.497300
20
94.022400
11
80.312002
21
93.806863
0
LINE
8
Sichtbar
10
80.497300
20
88.602100
11
80.497300
21
88.581200
0
LINE
8
Sichtbar
10
80.312000
20
94.509000
11
80.497298
21
94.320731
0
LINE
8
Sichtbar
10
80.497300
20
94.747600
11
80.312002
21
94.508991
0
LINE
8
Sichtbar
10
80.497300
20
88.724300
11
80.497300
21
88.662200
0
LINE
8
Sichtbar
10
80.497300
20
95.454500
11
80.312002
21
95.197463
0
LINE
8
Sichtbar
10
80.497300
20
88.945300
11
80.497300
21
88.843100
0
LINE
8
Sichtbar
10
80.497300
20
96.129300
11
80.312002
21
95.858835
0
LINE
8
Sichtbar
10
80.497300
20
89.261200
11
80.497300
21
89.120700
0
LINE
8
Sichtbar
10
80.497300
20
96.758900
11
80.312002
21
96.480276
0
LINE
8
Sichtbar
10
80.497300
20
89.665200
11
80.497300
21
89.489500
0
LINE
8
Sichtbar
10
80.312000
20
97.049600
11
80.497298
21
97.000742
0
LINE
8
Sichtbar
10
80.497300
20
97.331000
11
80.312002
21
97.049637
0
LINE
8
Sichtbar
10
80.497300
20
90.150200
11
80.497300
21
89.942500
0
LINE
8
Sichtbar
10
80.312000
20
97.555900
11
80.497298
21
97.546084
0
LINE
8
Sichtbar
10
80.497300
20
97.834500
11
80.312002
21
97.555873
0
LINE
8
Sichtbar
10
80.497300
20
90.706100
11
80.497300
21
90.470300
0
LINE
8
Sichtbar
10
80.312000
20
97.989200
11
80.497298
21
98.018611
0
LINE
8
Sichtbar
10
80.497300
20
98.259700
11
80.312002
21
97.989235
0
LINE
8
Sichtbar
10
80.497300
20
91.322300
11
80.497300
21
91.063500
0
LINE
8
Sichtbar
10
80.312000
20
98.341100
11
80.497298
21
98.409167
0
LINE
8
Sichtbar
10
80.497300
20
98.598200
11
80.312002
21
98.341163
0
LINE
8
Sichtbar
10
80.497300
20
91.987200
11
80.497300
21
91.709900
0
LINE
8
Sichtbar
10
80.312000
20
98.604800
11
80.497298
21
98.710202
0
LINE
8
Sichtbar
10
80.497300
20
98.843400
11
80.312002
21
98.604791
0
LINE
8
Sichtbar
10
80.497300
20
92.687300
11
80.497300
21
92.397000
0
LINE
8
Sichtbar
10
80.312000
20
98.775000
11
80.497298
21
98.915684
0
LINE
8
Sichtbar
10
80.497300
20
98.990600
11
80.312002
21
98.775063
0
LINE
8
Sichtbar
10
80.497300
20
98.990700
11
80.497300
21
99.021900
0
LINE
8
Sichtbar
10
80.312000
20
98.848600
11
80.497298
21
99.021825
0
LINE
8
Sichtbar
10
80.312000
20
98.848600
11
80.497298
21
99.036869
0
LINE
8
Sichtbar
10
79.570700
20
89.503300
11
79.570700
21
98.110400
0
LINE
8
Sichtbar
10
87.320900
20
98.017800
11
87.320900
21
89.595900
0
LINE
8
Sichtbar
10
86.394300
20
95.454500
11
86.394300
21
95.197400
0
LINE
8
Sichtbar
10
80.497300
20
95.454500
11
86.394300
21
95.454500
0
LINE
8
Sichtbar
10
80.312100
20
95.197400
11
86.394300
21
95.197400
0
LINE
8
Sichtbar
10
86.394300
20
95.858800
11
86.394300
21
95.735500
0
LINE
8
Sichtbar
10
80.312100
20
95.858800
11
86.394300
21
95.858800
0
LINE
8
Sichtbar
10
80.497300
20
95.735500
11
86.394300
21
95.735500
0
LINE
8
Sichtbar
10
86.394300
20
96.129200
11
86.394300
21
95.858800
0
LINE
8
Sichtbar
10
80.497300
20
96.129200
11
86.394300
21
96.129200
0
LINE
8
Sichtbar
10
86.394300
20
96.480300
11
86.394300
21
96.393300
0
LINE
8
Sichtbar
10
80.312100
20
96.480300
11
86.394300
21
96.480300
0
LINE
8
Sichtbar
10
80.497300
20
96.393300
11
86.394300
21
96.393300
0
LINE
8
Sichtbar
10
86.394300
20
96.758900
11
86.394300
21
96.480300
0
LINE
8
Sichtbar
10
80.497300
20
96.758900
11
86.394300
21
96.758900
0
LINE
8
Sichtbar
10
86.394300
20
97.049700
11
86.394300
21
97.000800
0
LINE
8
Sichtbar
10
80.312100
20
97.049700
11
86.394300
21
97.049700
0
LINE
8
Sichtbar
10
80.497300
20
97.000800
11
86.394300
21
97.000800
0
LINE
8
Sichtbar
10
86.394300
20
97.331000
11
86.394300
21
97.049700
0
LINE
8
Sichtbar
10
80.497300
20
97.331000
11
86.394300
21
97.331000
0
LINE
8
Sichtbar
10
86.394300
20
97.555900
11
86.394300
21
97.546100
0
LINE
8
Sichtbar
10
80.312100
20
97.555900
11
86.394300
21
97.555900
0
LINE
8
Sichtbar
10
80.497300
20
97.546100
11
86.394300
21
97.546100
0
LINE
8
Sichtbar
10
86.394300
20
97.834500
11
86.394300
21
97.555900
0
LINE
8
Sichtbar
10
80.497300
20
97.834500
11
86.394300
21
97.834500
0
LINE
8
Sichtbar
10
80.497300
20
98.018600
11
86.394300
21
98.018600
0
LINE
8
Sichtbar
10
86.394300
20
98.259700
11
86.394300
21
98.018600
0
LINE
8
Sichtbar
10
80.497300
20
98.259700
11
86.394300
21
98.259700
0
LINE
8
Sichtbar
10
80.497300
20
98.409100
11
86.394300
21
98.409100
0
LINE
8
Sichtbar
10
86.394300
20
98.598100
11
86.394300
21
98.409100
0
LINE
8
Sichtbar
10
80.497300
20
98.598100
11
86.394300
21
98.598100
0
LINE
8
Sichtbar
10
80.497300
20
98.710200
11
86.394300
21
98.710200
0
LINE
8
Sichtbar
10
86.394300
20
98.843300
11
86.394300
21
98.710200
0
LINE
8
Sichtbar
10
80.497300
20
98.843300
11
86.394300
21
98.843300
0
LINE
8
Sichtbar
10
80.497300
20
98.915800
11
86.394300
21
98.915800
0
LINE
8
Sichtbar
10
86.394300
20
98.990700
11
86.394300
21
98.915800
0
LINE
8
Sichtbar
10
80.497300
20
98.990700
11
86.394300
21
98.990700
0
LINE
8
Sichtbar
10
80.497300
20
99.021900
11
86.394300
21
99.021900
0
LINE
8
Sichtbar
10
86.394300
20
99.037000
11
86.394300
21
99.021900
0
LINE
8
Sichtbar
10
80.497300
20
99.037000
11
86.394300
21
99.037000
0
LINE
8
Sichtbar
10
86.394300
20
88.592100
11
86.394300
21
88.577000
0
LINE
8
Sichtbar
10
80.497300
20
88.577000
11
86.394300
21
88.577000
0
LINE
8
Sichtbar
10
80.497300
20
88.592100
11
86.394300
21
88.592100
0
LINE
8
Sichtbar
10
86.394300
20
88.698200
11
86.394300
21
88.623300
0
LINE
8
Sichtbar
10
80.497300
20
88.623300
11
86.394300
21
88.623300
0
LINE
8
Sichtbar
10
80.497300
20
88.698200
11
86.394300
21
88.698200
0
LINE
8
Sichtbar
10
86.394300
20
88.903700
11
86.394300
21
88.770400
0
LINE
8
Sichtbar
10
80.497300
20
88.770400
11
86.394300
21
88.770400
0
LINE
8
Sichtbar
10
80.497300
20
88.903700
11
86.394300
21
88.903700
0
LINE
8
Sichtbar
10
86.394300
20
89.204600
11
86.394300
21
89.015700
0
LINE
8
Sichtbar
10
80.497300
20
89.015700
11
86.394300
21
89.015700
0
LINE
8
Sichtbar
10
80.497300
20
89.204600
11
86.394300
21
89.204600
0
LINE
8
Sichtbar
10
86.394300
20
89.595100
11
86.394300
21
89.354100
0
LINE
8
Sichtbar
10
80.497300
20
89.354100
11
86.394300
21
89.354100
0
LINE
8
Sichtbar
10
80.497300
20
89.595100
11
86.394300
21
89.595100
0
LINE
8
Sichtbar
10
86.394300
20
90.057800
11
86.394300
21
89.779200
0
LINE
8
Sichtbar
10
80.312100
20
90.057800
11
86.394300
21
90.057800
0
LINE
8
Sichtbar
10
80.497300
20
89.779200
11
86.394300
21
89.779200
0
LINE
8
Sichtbar
10
86.394300
20
90.067600
11
86.394300
21
90.057800
0
LINE
8
Sichtbar
10
80.497300
20
90.067600
11
86.394300
21
90.067600
0
LINE
8
Sichtbar
10
86.394300
20
90.564300
11
86.394300
21
90.282700
0
LINE
8
Sichtbar
10
80.312100
20
90.564300
11
86.394300
21
90.564300
0
LINE
8
Sichtbar
10
80.497300
20
90.282700
11
86.394300
21
90.282700
0
LINE
8
Sichtbar
10
86.394300
20
90.612900
11
86.394300
21
90.564300
0
LINE
8
Sichtbar
10
80.497300
20
90.612900
11
86.394300
21
90.612900
0
LINE
8
Sichtbar
10
86.394300
20
91.133600
11
86.394300
21
90.855000
0
LINE
8
Sichtbar
10
80.312100
20
91.133600
11
86.394300
21
91.133600
0
LINE
8
Sichtbar
10
80.497300
20
90.855000
11
86.394300
21
90.855000
0
LINE
8
Sichtbar
10
86.394300
20
91.220400
11
86.394300
21
91.133600
0
LINE
8
Sichtbar
10
80.497300
20
91.220400
11
86.394300
21
91.220400
0
LINE
8
Sichtbar
10
86.394300
20
91.754900
11
86.394300
21
91.484500
0
LINE
8
Sichtbar
10
80.312100
20
91.754900
11
86.394300
21
91.754900
0
LINE
8
Sichtbar
10
80.497300
20
91.484500
11
86.394300
21
91.484500
0
LINE
8
Sichtbar
10
86.394300
20
91.878400
11
86.394300
21
91.754900
0
LINE
8
Sichtbar
10
80.497300
20
91.878400
11
86.394300
21
91.878400
0
LINE
8
Sichtbar
10
86.394300
20
92.416300
11
86.394300
21
92.159400
0
LINE
8
Sichtbar
10
80.312100
20
92.416300
11
86.394300
21
92.416300
0
LINE
8
Sichtbar
10
80.497300
20
92.159400
11
86.394300
21
92.159400
0
LINE
8
Sichtbar
10
86.394300
20
92.573800
11
86.394300
21
92.416300
0
LINE
8
Sichtbar
10
80.497300
20
92.573800
11
86.394300
21
92.573800
0
LINE
8
Sichtbar
10
86.394300
20
93.104800
11
86.394300
21
92.866100
0
LINE
8
Sichtbar
10
80.312100
20
93.104800
11
86.394300
21
93.104800
0
LINE
8
Sichtbar
10
80.497300
20
92.866100
11
86.394300
21
92.866100
0
LINE
8
Sichtbar
10
86.394300
20
93.293200
11
86.394300
21
93.104800
0
LINE
8
Sichtbar
10
80.497300
20
93.293200
11
86.394300
21
93.293200
0
LINE
8
Sichtbar
10
86.394300
20
93.807000
11
86.394300
21
93.591400
0
LINE
8
Sichtbar
10
80.312100
20
93.807000
11
86.394300
21
93.807000
0
LINE
8
Sichtbar
10
80.497300
20
93.591400
11
86.394300
21
93.591400
0
LINE
8
Sichtbar
10
86.394300
20
94.022400
11
86.394300
21
93.807000
0
LINE
8
Sichtbar
10
80.497300
20
94.022400
11
86.394300
21
94.022400
0
LINE
8
Sichtbar
10
86.394300
20
94.508900
11
86.394300
21
94.320800
0
LINE
8
Sichtbar
10
80.312100
20
94.508900
11
86.394300
21
94.508900
0
LINE
8
Sichtbar
10
80.497300
20
94.320800
11
86.394300
21
94.320800
0
LINE
8
Sichtbar
10
86.394300
20
94.747600
11
86.394300
21
94.508900
0
LINE
8
Sichtbar
10
80.497300
20
94.747600
11
86.394300
21
94.747600
0
LINE
8
Sichtbar
10
86.394300
20
93.293200
11
86.394300
21
93.591400
0
LINE
8
Sichtbar
10
86.394300
20
94.022400
11
86.394300
21
94.320800
0
LINE
8
Sichtbar
10
86.394300
20
92.573800
11
86.394300
21
92.866100
0
LINE
8
Sichtbar
10
86.394300
20
91.878400
11
86.394300
21
92.159400
0
LINE
8
Sichtbar
10
86.394300
20
91.220400
11
86.394300
21
91.484500
0
LINE
8
Sichtbar
10
86.394300
20
90.612900
11
86.394300
21
90.855000
0
LINE
8
Sichtbar
10
86.394300
20
90.067600
11
86.394300
21
90.282700
0
LINE
8
Sichtbar
10
86.394300
20
89.595100
11
86.394300
21
89.779200
0
LINE
8
Sichtbar
10
86.394300
20
89.204600
11
86.394300
21
89.354100
0
LINE
8
Sichtbar
10
86.394300
20
88.903700
11
86.394300
21
89.015700
0
LINE
8
Sichtbar
10
86.394300
20
88.698200
11
86.394300
21
88.770400
0
LINE
8
Sichtbar
10
86.394300
20
88.592100
11
86.394300
21
88.623300
0
LINE
8
Sichtbar
10
86.394300
20
98.990700
11
86.394300
21
99.021900
0
LINE
8
Sichtbar
10
86.394300
20
98.843300
11
86.394300
21
98.915800
0
LINE
8
Sichtbar
10
86.394300
20
98.598100
11
86.394300
21
98.710200
0
LINE
8
Sichtbar
10
86.394300
20
98.259700
11
86.394300
21
98.409100
0
LINE
8
Sichtbar
10
86.394300
20
97.834500
11
86.394300
21
98.018600
0
LINE
8
Sichtbar
10
86.394300
20
97.331000
11
86.394300
21
97.546100
0
LINE
8
Sichtbar
10
86.394300
20
96.758900
11
86.394300
21
97.000800
0
LINE
8
Sichtbar
10
86.394300
20
96.129200
11
86.394300
21
96.393300
0
LINE
8
Sichtbar
10
86.394300
20
95.454500
11
86.394300
21
95.735500
0
LINE
8
Sichtbar
10
80.497300
20
95.040200
11
86.394300
21
95.040200
0
LINE
8
Sichtbar
10
86.394300
20
94.747600
11
86.394300
21
95.040200
0
LINE
8
Sichtbar
10
86.394300
20
95.197400
11
86.394300
21
95.040200
0
LINE
8
Sichtbar
10
79.570700
20
98.110400
11
80.467372
21
99.007072
0
LINE
8
Sichtbar
10
79.570700
20
89.503300
11
80.467372
21
88.606628
0
LINE
8
Sichtbar
10
87.320700
20
98.017800
11
87.076471
21
98.607419
0
LINE
8
Sichtbar
10
87.076471
20
98.607419
11
86.486851
21
98.851647
0
LINE
8
Sichtbar
10
86.486900
20
88.762100
11
87.076520
21
89.006329
0
LINE
8
Sichtbar
10
87.076520
20
89.006329
11
87.320749
21
89.595949
0
LINE
8
Sichtbar
10
86.394300
20
98.851800
11
86.486900
21
98.851800
0
LINE
8
Sichtbar
10
86.394300
20
88.762200
11
86.486900
21
88.762200
0
LINE
8
Sichtbar
10
92.050800
20
87.947000
11
92.050800
21
84.446800
0
LINE
8
Sichtbar
10
92.100800
20
87.947000
11
92.100800
21
84.446800
0
LINE
8
Sichtbar
10
92.530800
20
87.697000
11
92.530800
21
84.696900
0
LINE
8
Sichtbar
10
103.501000
20
87.697000
11
103.501000
21
84.696900
0
LINE
8
Sichtbar
10
107.001000
20
86.296800
11
107.001000
21
86.097000
0
LINE
8
Sichtbar
10
92.050700
20
84.546900
11
92.000702
21
84.669373
0
LINE
8
Sichtbar
10
92.000700
20
87.724400
11
92.050698
21
87.846875
0
LINE
8
Sichtbar
10
92.100800
20
84.446800
11
92.050800
21
84.446800
0
LINE
8
Sichtbar
10
92.100800
20
87.947000
11
92.050800
21
87.947000
0
LINE
8
Sichtbar
10
92.530800
20
84.696900
11
92.100853
21
84.446869
0
LINE
8
Sichtbar
10
92.530800
20
87.697000
11
92.100853
21
87.947031
0
LINE
8
Sichtbar
10
103.501000
20
84.696900
11
92.530800
21
84.696900
0
LINE
8
Sichtbar
10
103.501000
20
87.697000
11
92.530800
21
87.697000
0
LINE
8
Sichtbar
10
106.418000
20
85.366000
11
103.500180
21
84.696870
0
LINE
8
Sichtbar
10
106.418000
20
87.027800
11
103.500180
21
87.696930
0
LINE
8
Sichtbar
10
107.001000
20
86.296900
11
106.837606
21
86.764227
0
LINE
8
Sichtbar
10
106.837606
20
86.764227
11
106.418616
21
87.027930
0
LINE
8
Sichtbar
10
106.418000
20
85.365900
11
106.836990
21
85.629603
0
LINE
8
Sichtbar
10
106.836990
20
85.629603
11
107.000384
21
86.096930
0
LINE
8
Sichtbar
10
100.560000
20
95.396900
11
100.474873
21
96.038551
0
LINE
8
Sichtbar
10
100.474873
20
96.038551
11
100.230528
21
96.626505
0
LINE
8
Sichtbar
10
100.230528
20
96.626505
11
99.843518
21
97.132091
0
LINE
8
Sichtbar
10
99.843518
20
97.132091
11
99.330395
21
97.526638
0
LINE
8
Sichtbar
10
99.330395
20
97.526638
11
98.732145
21
97.773742
0
LINE
8
Sichtbar
10
98.732145
20
97.773742
11
98.100790
21
97.856110
0
LINE
8
Sichtbar
10
98.100790
20
97.856110
11
97.469435
21
97.773742
0
LINE
8
Sichtbar
10
97.469435
20
97.773742
11
96.871185
21
97.526638
0
LINE
8
Sichtbar
10
96.871185
20
97.526638
11
96.358062
21
97.132091
0
LINE
8
Sichtbar
10
96.358062
20
97.132091
11
95.971052
21
96.626505
0
LINE
8
Sichtbar
10
95.971052
20
96.626505
11
95.726707
21
96.038551
0
LINE
8
Sichtbar
10
95.726707
20
96.038551
11
95.641580
21
95.396900
0
LINE
8
Sichtbar
10
95.641580
20
95.396900
11
95.726707
21
94.755249
0
LINE
8
Sichtbar
10
95.726707
20
94.755249
11
95.971052
21
94.167295
0
LINE
8
Sichtbar
10
95.971052
20
94.167295
11
96.358062
21
93.661709
0
LINE
8
Sichtbar
10
96.358062
20
93.661709
11
96.871185
21
93.267162
0
LINE
8
Sichtbar
10
96.871185
20
93.267162
11
97.469435
21
93.020058
0
LINE
8
Sichtbar
10
97.469435
20
93.020058
11
98.100790
21
92.937690
0
LINE
8
Sichtbar
10
98.100790
20
92.937690
11
98.732145
21
93.020058
0
LINE
8
Sichtbar
10
98.732145
20
93.020058
11
99.330395
21
93.267162
0
LINE
8
Sichtbar
10
99.330395
20
93.267162
11
99.843518
21
93.661709
0
LINE
8
Sichtbar
10
99.843518
20
93.661709
11
100.230528
21
94.167295
0
LINE
8
Sichtbar
10
100.230528
20
94.167295
11
100.474873
21
94.755249
0
LINE
8
Sichtbar
10
100.474873
20
94.755249
11
100.560000
21
95.396900
0
LINE
8
Sichtbar
10
100.560000
20
95.396900
11
100.560000
21
95.396900
0
LINE
8
Sichtbar
10
96.889100
20
84.696900
11
96.256808
21
84.184358
0
LINE
8
Sichtbar
10
96.256808
20
84.184358
11
95.834728
21
83.512304
0
LINE
8
Sichtbar
10
95.834728
20
83.512304
11
95.648232
21
82.740923
0
LINE
8
Sichtbar
10
95.648232
20
82.740923
11
95.722697
21
81.930400
0
LINE
8
Sichtbar
10
95.722697
20
81.930400
11
96.057247
21
81.188397
0
LINE
8
Sichtbar
10
96.057247
20
81.188397
11
96.599597
21
80.609031
0
LINE
8
Sichtbar
10
96.599597
20
80.609031
11
97.298015
21
80.232174
0
LINE
8
Sichtbar
10
97.298015
20
80.232174
11
98.100765
21
80.097694
0
LINE
8
Sichtbar
10
98.100765
20
80.097694
11
98.903515
21
80.232174
0
LINE
8
Sichtbar
10
98.903515
20
80.232174
11
99.601933
21
80.609031
0
LINE
8
Sichtbar
10
99.601933
20
80.609031
11
100.144283
21
81.188397
0
LINE
8
Sichtbar
10
100.144283
20
81.188397
11
100.478833
21
81.930400
0
LINE
8
Sichtbar
10
100.478833
20
81.930400
11
100.553298
21
82.740923
0
LINE
8
Sichtbar
10
100.553298
20
82.740923
11
100.366802
21
83.512304
0
LINE
8
Sichtbar
10
100.366802
20
83.512304
11
99.944722
21
84.184358
0
LINE
8
Sichtbar
10
99.944722
20
84.184358
11
99.312430
21
84.696900
0
LINE
8
Sichtbar
10
92.500900
20
101.907000
11
92.827100
21
101.907000
0
LINE
8
Sichtbar
10
104.401000
20
106.357000
11
93.827000
21
106.357000
0
LINE
8
Sichtbar
10
93.827000
20
106.357000
11
93.444317
21
106.280880
0
LINE
8
Sichtbar
10
93.444317
20
106.280880
11
93.119894
21
106.064107
0
LINE
8
Sichtbar
10
93.119894
20
106.064107
11
92.903121
21
105.739684
0
LINE
8
Sichtbar
10
92.903121
20
105.739684
11
92.827001
21
105.357001
0
LINE
8
Sichtbar
10
92.827100
20
101.907000
11
92.827100
21
105.357000
0
LINE
8
Sichtbar
10
103.401000
20
77.406800
11
92.500900
21
77.406800
0
LINE
8
Sichtbar
10
103.401000
20
77.406900
11
103.783683
21
77.483020
0
LINE
8
Sichtbar
10
103.783683
20
77.483020
11
104.108106
21
77.699793
0
LINE
8
Sichtbar
10
104.108106
20
77.699793
11
104.324879
21
78.024216
0
LINE
8
Sichtbar
10
104.324879
20
78.024216
11
104.400999
21
78.406899
0
LINE
8
Sichtbar
10
104.401000
20
99.856900
11
104.401000
21
87.490600
0
LINE
8
Sichtbar
10
104.401000
20
84.903200
11
104.401000
21
78.406900
0
LINE
8
Sichtbar
10
107.101000
20
99.856900
11
104.401000
21
99.856900
0
LINE
8
Sichtbar
10
107.101000
20
104.357000
11
107.101000
21
99.856900
0
LINE
8
Sichtbar
10
104.401000
20
104.357000
11
107.101000
21
104.357000
0
LINE
8
Sichtbar
10
104.401000
20
106.357000
11
104.401000
21
104.357000
0
LINE
8
Sichtbar
10
102.901000
20
105.107000
11
99.900700
21
105.107000
0
LINE
8
Sichtbar
10
102.901000
20
102.107000
11
102.901000
21
105.107000
0
LINE
8
Sichtbar
10
99.900700
20
102.107000
11
102.901000
21
102.107000
0
LINE
8
Sichtbar
10
99.900700
20
105.107000
11
99.900700
21
102.107000
0
LINE
8
Sichtbar
10
91.000700
20
99.406900
11
91.000700
21
98.406800
0
LINE
8
Sichtbar
10
92.000800
20
98.406800
11
92.000800
21
99.406900
0
LINE
8
Sichtbar
10
91.000700
20
99.406900
11
92.000800
21
99.406900
0
LINE
8
Sichtbar
10
92.000800
20
99.406900
11
92.000800
21
101.907000
0
LINE
8
Sichtbar
10
91.000700
20
101.907000
11
92.000800
21
101.907000
0
LINE
8
Sichtbar
10
91.000700
20
99.406900
11
91.000700
21
101.907000
0
LINE
8
Sichtbar
10
92.000800
20
77.406800
11
92.000800
21
78.406900
0
LINE
8
Sichtbar
10
91.000700
20
78.406900
11
91.000700
21
77.406800
0
LINE
8
Sichtbar
10
92.000800
20
77.406800
11
91.000700
21
77.406800
0
LINE
8
Sichtbar
10
91.000700
20
98.406800
11
91.000700
21
78.406900
0
LINE
8
Sichtbar
10
92.000800
20
98.406800
11
92.000800
21
78.406900
0
LINE
8
Sichtbar
10
92.500900
20
101.907000
11
92.000800
21
101.907000
0
LINE
8
Sichtbar
10
92.000800
20
77.406800
11
92.500900
21
77.406800
0
LINE
8
Sichtbar
10
99.350700
20
95.396900
11
99.183232
21
96.021900
0
LINE
8
Sichtbar
10
99.183232
20
96.021900
11
98.725700
21
96.479432
0
LINE
8
Sichtbar
10
98.725700
20
96.479432
11
98.100700
21
96.646900
0
LINE
8
Sichtbar
10
98.100700
20
96.646900
11
97.475700
21
96.479432
0
LINE
8
Sichtbar
10
97.475700
20
96.479432
11
97.018168
21
96.021900
0
LINE
8
Sichtbar
10
97.018168
20
96.021900
11
96.850700
21
95.396900
0
LINE
8
Sichtbar
10
96.850700
20
95.396900
11
96.948931
21
94.910344
0
LINE
8
Sichtbar
10
96.948931
20
94.910344
11
97.216817
21
94.513017
0
LINE
8
Sichtbar
10
97.216817
20
94.513017
11
97.614144
21
94.245131
0
LINE
8
Sichtbar
10
97.614144
20
94.245131
11
98.100700
21
94.146900
0
LINE
8
Sichtbar
10
98.100700
20
94.146900
11
98.587256
21
94.245131
0
LINE
8
Sichtbar
10
98.587256
20
94.245131
11
98.984583
21
94.513017
0
LINE
8
Sichtbar
10
98.984583
20
94.513017
11
99.252469
21
94.910344
0
LINE
8
Sichtbar
10
99.252469
20
94.910344
11
99.350700
21
95.396900
0
LINE
8
Sichtbar
10
99.350700
20
95.396900
11
99.350700
21
95.396900
0
LINE
8
Sichtbar
10
99.350700
20
82.556900
11
99.183232
21
83.181900
0
LINE
8
Sichtbar
10
99.183232
20
83.181900
11
98.725700
21
83.639432
0
LINE
8
Sichtbar
10
98.725700
20
83.639432
11
98.100700
21
83.806900
0
LINE
8
Sichtbar
10
98.100700
20
83.806900
11
97.475700
21
83.639432
0
LINE
8
Sichtbar
10
97.475700
20
83.639432
11
97.018168
21
83.181900
0
LINE
8
Sichtbar
10
97.018168
20
83.181900
11
96.850700
21
82.556900
0
LINE
8
Sichtbar
10
96.850700
20
82.556900
11
96.948931
21
82.070344
0
LINE
8
Sichtbar
10
96.948931
20
82.070344
11
97.216817
21
81.673017
0
LINE
8
Sichtbar
10
97.216817
20
81.673017
11
97.614144
21
81.405131
0
LINE
8
Sichtbar
10
97.614144
20
81.405131
11
98.100700
21
81.306900
0
LINE
8
Sichtbar
10
98.100700
20
81.306900
11
98.587256
21
81.405131
0
LINE
8
Sichtbar
10
98.587256
20
81.405131
11
98.984583
21
81.673017
0
LINE
8
Sichtbar
10
98.984583
20
81.673017
11
99.252469
21
82.070344
0
LINE
8
Sichtbar
10
99.252469
20
82.070344
11
99.350700
21
82.556900
0
LINE
8
Sichtbar
10
99.350700
20
82.556900
11
99.350700
21
82.556900
0
LINE
8
Sichtbar
10
170.934000
20
90.969300
11
171.297201
21
91.272433
0
LINE
8
Sichtbar
10
171.297201
20
91.272433
11
171.556944
21
91.691140
0
LINE
8
Sichtbar
10
171.556944
20
91.691140
11
171.765934
21
92.800967
0
LINE
8
Sichtbar
10
171.765934
20
92.800967
11
171.560730
21
94.150151
0
LINE
8
Sichtbar
10
171.560730
20
94.150151
11
170.941091
21
95.590067
0
LINE
8
Sichtbar
10
170.941091
20
95.590067
11
170.006550
21
96.848539
0
LINE
8
Sichtbar
10
170.006550
20
96.848539
11
168.942585
21
97.702903
0
LINE
8
Sichtbar
10
168.942585
20
97.702903
11
167.877875
21
98.078789
0
LINE
8
Sichtbar
10
167.877875
20
98.078789
11
167.385453
21
98.064062
0
LINE
8
Sichtbar
10
167.385453
20
98.064062
11
166.941099
21
97.901827
0
LINE
8
Sichtbar
10
166.913000
20
97.885800
11
166.558924
21
97.612319
0
LINE
8
Sichtbar
10
166.558924
20
97.612319
11
166.283684
21
97.253820
0
LINE
8
Sichtbar
10
166.283684
20
97.253820
11
166.143167
21
96.969578
0
LINE
8
Sichtbar
10
165.968000
20
96.868500
11
166.556433
21
97.207431
0
LINE
8
Sichtbar
10
169.551000
20
90.646000
11
170.139433
21
90.985195
0
LINE
8
Sichtbar
10
166.913000
20
97.885800
11
166.941310
21
97.901940
0
LINE
8
Sichtbar
10
170.906000
20
90.953200
11
170.934046
21
90.969340
0
LINE
8
Sichtbar
10
165.133000
20
87.210200
11
165.169716
21
87.429809
0
LINE
8
Sichtbar
10
165.201000
20
87.762000
11
165.208382
21
88.002064
0
LINE
8
Sichtbar
10
165.198000
20
88.360400
11
164.944487
21
88.174221
0
LINE
8
Sichtbar
10
165.123000
20
88.993800
11
164.892495
21
88.776421
0
LINE
8
Sichtbar
10
164.978000
20
89.649900
11
164.772445
21
89.404087
0
LINE
8
Sichtbar
10
164.765000
20
90.315800
11
164.585843
21
90.044870
0
LINE
8
Sichtbar
10
164.489000
20
90.978800
11
164.337177
21
90.686555
0
LINE
8
Sichtbar
10
164.154000
20
91.625700
11
164.029919
21
91.316360
0
LINE
8
Sichtbar
10
163.769000
20
92.244100
11
163.672520
21
91.922219
0
LINE
8
Sichtbar
10
163.339000
20
92.821900
11
163.269452
21
92.492275
0
LINE
8
Sichtbar
10
162.874000
20
93.347900
11
162.830188
21
93.015475
0
LINE
8
Sichtbar
10
162.382000
20
93.811800
11
162.362236
21
93.481579
0
LINE
8
Sichtbar
10
161.874000
20
94.204600
11
161.876117
21
93.881542
0
LINE
8
Sichtbar
10
161.358000
20
94.518600
11
161.379378
21
94.207522
0
LINE
8
Sichtbar
10
160.883000
20
94.453300
11
161.147152
21
94.623035
0
LINE
8
Sichtbar
10
160.845000
20
94.747800
11
160.882695
21
94.453290
0
LINE
8
Sichtbar
10
160.396000
20
94.614000
11
160.638281
21
94.816088
0
LINE
8
Sichtbar
10
160.345000
20
94.887700
11
160.395726
21
94.614021
0
LINE
8
Sichtbar
10
159.929000
20
94.686500
11
160.147244
21
94.918476
0
LINE
8
Sichtbar
10
159.868000
20
94.935500
11
159.928219
21
94.686512
0
LINE
8
Sichtbar
10
159.489000
20
94.669400
11
159.681508
21
94.928220
0
LINE
8
Sichtbar
10
159.423000
20
94.890400
11
159.488990
21
94.669476
0
LINE
8
Sichtbar
10
159.087000
20
94.563100
11
159.252576
21
94.845190
0
LINE
8
Sichtbar
10
159.019000
20
94.753100
11
159.086926
21
94.563076
0
LINE
8
Sichtbar
10
158.729000
20
94.369500
11
158.866969
21
94.670842
0
LINE
8
Sichtbar
10
158.663000
20
94.526400
11
158.728990
21
94.369508
0
LINE
8
Sichtbar
10
158.422000
20
94.092500
11
158.532231
21
94.408698
0
LINE
8
Sichtbar
10
158.362000
20
94.214700
11
158.422219
21
94.092518
0
LINE
8
Sichtbar
10
158.173000
20
93.737500
11
158.255897
21
94.063863
0
LINE
8
Sichtbar
10
158.123000
20
93.824100
11
158.173726
21
93.737544
0
LINE
8
Sichtbar
10
157.987000
20
93.311400
11
158.043496
21
93.643049
0
LINE
8
Sichtbar
10
157.949000
20
93.362100
11
157.986695
21
93.311382
0
LINE
8
Sichtbar
10
157.866000
20
92.822400
11
157.897552
21
93.154348
0
LINE
8
Sichtbar
10
157.814000
20
92.280100
11
157.822546
21
92.607355
0
LINE
8
Sichtbar
10
157.814000
20
92.280100
11
157.811883
21
92.264013
0
LINE
8
Sichtbar
10
161.496000
20
85.891100
11
161.616023
21
85.823700
0
LINE
8
Sichtbar
10
161.920000
20
85.673200
11
162.129383
21
85.586647
0
LINE
8
Sichtbar
10
162.121000
20
85.621900
11
162.129546
21
85.586623
0
LINE
8
Sichtbar
10
162.428000
20
85.488200
11
162.631247
21
85.438540
0
LINE
8
Sichtbar
10
162.600000
20
85.505000
11
162.631552
21
85.438529
0
LINE
8
Sichtbar
10
162.918000
20
85.394100
11
163.111161
21
85.382300
0
LINE
8
Sichtbar
10
163.054000
20
85.477200
11
163.110496
21
85.382294
0
LINE
8
Sichtbar
10
163.380000
20
85.392800
11
163.559311
21
85.419100
0
LINE
8
Sichtbar
10
163.476000
20
85.539100
11
163.558897
21
85.419077
0
LINE
8
Sichtbar
10
163.806000
20
85.484200
11
163.967972
21
85.548065
0
LINE
8
Sichtbar
10
163.857000
20
85.689400
11
163.967231
21
85.548062
0
LINE
8
Sichtbar
10
164.187000
20
85.666600
11
164.328483
21
85.766800
0
LINE
8
Sichtbar
10
164.190000
20
85.925300
11
164.327969
21
85.766868
0
LINE
8
Sichtbar
10
164.516000
20
85.936500
11
164.634237
21
86.071080
0
LINE
8
Sichtbar
10
164.469000
20
86.242000
11
164.634573
21
86.071024
0
LINE
8
Sichtbar
10
164.787000
20
86.288500
11
164.879689
21
86.454849
0
LINE
8
Sichtbar
10
164.994000
20
86.715900
11
165.059339
21
86.910773
0
LINE
8
Sichtbar
10
161.183000
20
92.021300
11
161.296506
21
92.086652
0
LINE
8
Sichtbar
10
160.528000
20
87.541400
11
161.183108
21
87.918695
0
LINE
8
Sichtbar
10
160.528000
20
92.398600
11
160.678019
21
92.485119
0
LINE
8
Sichtbar
10
164.515000
20
97.288900
11
164.659198
21
97.131738
0
LINE
8
Sichtbar
10
160.346000
20
94.887800
11
164.515830
21
97.288890
0
LINE
8
Sichtbar
10
160.147000
20
94.918500
11
164.316830
21
97.319860
0
LINE
8
Sichtbar
10
164.038000
20
97.336800
11
164.157592
21
97.228321
0
LINE
8
Sichtbar
10
159.868000
20
94.935400
11
164.037560
21
97.336760
0
LINE
8
Sichtbar
10
159.682000
20
94.928300
11
163.851830
21
97.329390
0
LINE
8
Sichtbar
10
163.593000
20
97.291500
11
163.677402
21
97.229323
0
LINE
8
Sichtbar
10
159.423000
20
94.890500
11
163.592830
21
97.291590
0
LINE
8
Sichtbar
10
159.252000
20
94.845200
11
163.421830
21
97.246290
0
LINE
8
Sichtbar
10
163.188000
20
97.154200
11
163.224777
21
97.133033
0
LINE
8
Sichtbar
10
159.019000
20
94.753100
11
163.188830
21
97.154190
0
LINE
8
Sichtbar
10
158.662000
20
94.526400
11
158.848796
21
94.634085
0
LINE
8
Sichtbar
10
158.362000
20
94.214700
11
158.489794
21
94.288254
0
LINE
8
Sichtbar
10
158.122000
20
93.824200
11
158.206402
21
93.872619
0
LINE
8
Sichtbar
10
157.949000
20
93.362200
11
157.999800
21
93.391304
0
LINE
8
Sichtbar
10
157.845000
20
92.837800
11
157.868812
21
92.851558
0
LINE
8
Sichtbar
10
162.100000
20
88.738900
11
162.100000
21
89.390300
0
LINE
8
Sichtbar
10
161.105000
20
90.628300
11
161.105000
21
90.592300
0
LINE
8
Sichtbar
10
161.183000
20
90.570300
11
161.105213
21
90.592260
0
LINE
8
Sichtbar
10
159.610000
20
90.172400
11
159.610000
21
90.823800
0
LINE
8
Sichtbar
10
161.105000
20
90.592300
11
160.983292
21
90.558169
0
LINE
8
Sichtbar
10
160.371000
20
90.385900
11
159.610588
21
90.172382
0
LINE
8
Sichtbar
10
162.100000
20
88.738900
11
161.182691
21
89.267008
0
LINE
8
Sichtbar
10
160.528000
20
89.644300
11
159.610691
21
90.172408
0
LINE
8
Sichtbar
10
161.183000
20
90.021600
11
160.527892
21
89.644305
0
LINE
8
Sichtbar
10
161.749000
20
89.592700
11
161.183322
21
89.266998
0
LINE
8
Sichtbar
10
160.528000
20
89.644300
11
160.528000
21
87.541400
0
LINE
8
Sichtbar
10
161.183000
20
89.918400
11
161.183000
21
89.267000
0
LINE
8
Sichtbar
10
161.183000
20
90.673000
11
160.527892
21
90.295705
0
LINE
8
Sichtbar
10
161.183000
20
92.174500
11
161.183000
21
92.021300
0
LINE
8
Sichtbar
10
160.528000
20
92.398600
11
160.528000
21
90.295700
0
LINE
8
Sichtbar
10
160.528000
20
90.295700
11
159.610691
21
90.823808
0
LINE
8
Sichtbar
10
162.100000
20
89.390300
11
161.182691
21
89.918408
0
LINE
8
Sichtbar
10
161.183000
20
87.164100
11
161.183000
21
89.267000
0
LINE
8
Sichtbar
10
161.183000
20
89.918400
11
161.183000
21
92.021300
0
LINE
8
Sichtbar
10
162.130000
20
85.586700
11
162.160956
21
85.604427
0
LINE
8
Sichtbar
10
162.631000
20
85.438500
11
162.690531
21
85.472631
0
LINE
8
Sichtbar
10
163.111000
20
85.382400
11
163.206250
21
85.437169
0
LINE
8
Sichtbar
10
163.559000
20
85.419200
11
163.701346
21
85.501221
0
LINE
8
Sichtbar
10
163.968000
20
85.548000
11
164.175168
21
85.667327
0
LINE
8
Sichtbar
10
164.187000
20
85.666600
11
168.356830
21
88.067960
0
LINE
8
Sichtbar
10
168.497000
20
88.228500
11
168.498852
21
88.168175
0
LINE
8
Sichtbar
10
164.329000
20
85.766800
11
168.498830
21
88.168160
0
LINE
8
Sichtbar
10
164.516000
20
85.936400
11
168.685830
21
88.337760
0
LINE
8
Sichtbar
10
168.787000
20
88.592300
11
168.803933
21
88.472179
0
LINE
8
Sichtbar
10
164.634000
20
86.071100
11
168.803830
21
88.472190
0
LINE
8
Sichtbar
10
164.787000
20
86.288600
11
168.956830
21
88.689690
0
LINE
8
Sichtbar
10
169.008000
20
89.027600
11
169.049540
21
88.856150
0
LINE
8
Sichtbar
10
164.879000
20
86.454800
11
169.048830
21
88.856160
0
LINE
8
Sichtbar
10
164.994000
20
86.715900
11
169.163830
21
89.116990
0
LINE
8
Sichtbar
10
169.156000
20
89.527100
11
169.229025
21
89.311994
0
LINE
8
Sichtbar
10
165.059000
20
86.910600
11
169.228830
21
89.311960
0
LINE
8
Sichtbar
10
165.133000
20
87.210100
11
169.302830
21
89.611460
0
LINE
8
Sichtbar
10
169.230000
20
90.081900
11
169.339537
21
89.831075
0
LINE
8
Sichtbar
10
165.169000
20
87.429700
11
169.338830
21
89.831060
0
LINE
8
Sichtbar
10
165.201000
20
87.762100
11
169.370560
21
90.163190
0
LINE
8
Sichtbar
10
169.245000
20
90.650800
11
169.378085
21
90.403415
0
LINE
8
Sichtbar
10
164.944000
20
88.174300
11
169.244800
21
90.650800
0
LINE
8
Sichtbar
10
165.209000
20
88.002000
11
169.378830
21
90.403360
0
LINE
8
Sichtbar
10
169.368000
20
90.761600
11
169.245498
21
90.650740
0
LINE
8
Sichtbar
10
165.198000
20
88.360300
11
169.367830
21
90.761660
0
LINE
8
Sichtbar
10
169.193000
20
91.253000
11
169.345400
21
91.017521
0
LINE
8
Sichtbar
10
164.892000
20
88.776500
11
169.193060
21
91.253000
0
LINE
8
Sichtbar
10
165.176000
20
88.616100
11
169.345830
21
91.017460
0
LINE
8
Sichtbar
10
169.293000
20
91.395100
11
169.193517
21
91.253019
0
LINE
8
Sichtbar
10
165.123000
20
88.993700
11
169.292830
21
91.395060
0
LINE
8
Sichtbar
10
169.073000
20
91.880800
11
169.241539
21
91.661725
0
LINE
8
Sichtbar
10
164.772000
20
89.404100
11
169.073060
21
91.880860
0
LINE
8
Sichtbar
10
165.072000
20
89.260400
11
169.241830
21
91.661760
0
LINE
8
Sichtbar
10
169.147000
20
92.051000
11
169.072652
21
91.880873
0
LINE
8
Sichtbar
10
164.978000
20
89.649900
11
169.147830
21
92.050990
0
LINE
8
Sichtbar
10
168.887000
20
92.521600
11
169.068769
21
92.323427
0
LINE
8
Sichtbar
10
164.586000
20
90.044900
11
168.886800
21
92.521660
0
LINE
8
Sichtbar
10
164.898000
20
89.922100
11
169.067830
21
92.323460
0
LINE
8
Sichtbar
10
168.935000
20
92.717200
11
168.886846
21
92.521673
0
LINE
8
Sichtbar
10
164.765000
20
90.315800
11
168.934830
21
92.717160
0
LINE
8
Sichtbar
10
168.638000
20
93.163300
11
168.829294
21
92.989734
0
LINE
8
Sichtbar
10
164.337000
20
90.686500
11
168.637800
21
93.163260
0
LINE
8
Sichtbar
10
164.659000
20
90.588300
11
168.828830
21
92.989660
0
LINE
8
Sichtbar
10
168.658000
20
93.380000
11
168.637098
21
93.163307
0
LINE
8
Sichtbar
10
164.489000
20
90.978900
11
168.658830
21
93.379990
0
LINE
8
Sichtbar
10
168.331000
20
93.793000
11
168.528114
21
93.647744
0
LINE
8
Sichtbar
10
164.030000
20
91.316500
11
168.330800
21
93.793000
0
LINE
8
Sichtbar
10
164.358000
20
91.246400
11
168.527830
21
93.647760
0
LINE
8
Sichtbar
10
168.324000
20
94.026900
11
168.330879
21
93.793009
0
LINE
8
Sichtbar
10
164.154000
20
91.625800
11
168.323830
21
94.026890
0
LINE
8
Sichtbar
10
167.973000
20
94.398900
11
168.171966
21
94.284336
0
LINE
8
Sichtbar
10
163.672000
20
91.922100
11
167.972800
21
94.398860
0
LINE
8
Sichtbar
10
164.002000
20
91.883200
11
168.171830
21
94.284290
0
LINE
8
Sichtbar
10
167.939000
20
94.645500
11
167.973396
21
94.398909
0
LINE
8
Sichtbar
10
163.769000
20
92.244100
11
167.938830
21
94.645460
0
LINE
8
Sichtbar
10
167.571000
20
94.969000
11
167.767850
21
94.887508
0
LINE
8
Sichtbar
10
163.270000
20
92.492300
11
167.571060
21
94.969060
0
LINE
8
Sichtbar
10
163.598000
20
92.486200
11
167.767830
21
94.887560
0
LINE
8
Sichtbar
10
167.509000
20
95.223000
11
167.570648
21
94.969000
0
LINE
8
Sichtbar
10
163.339000
20
92.821900
11
167.508830
21
95.222990
0
LINE
8
Sichtbar
10
167.131000
20
95.492100
11
167.322294
21
95.445533
0
LINE
8
Sichtbar
10
162.830000
20
93.015400
11
167.130800
21
95.492160
0
LINE
8
Sichtbar
10
163.153000
20
93.044200
11
167.322830
21
95.445560
0
LINE
8
Sichtbar
10
167.044000
20
95.749000
11
167.131312
21
95.492090
0
LINE
8
Sichtbar
10
162.874000
20
93.347900
11
167.043830
21
95.748990
0
LINE
8
Sichtbar
10
166.663000
20
95.958300
11
166.844769
21
95.947187
0
LINE
8
Sichtbar
10
162.363000
20
93.481600
11
166.663800
21
95.958360
0
LINE
8
Sichtbar
10
162.675000
20
93.545800
11
166.844830
21
95.947160
0
LINE
8
Sichtbar
10
166.552000
20
96.213100
11
166.663125
21
95.958307
0
LINE
8
Sichtbar
10
162.383000
20
93.811800
11
166.552830
21
96.213160
0
LINE
8
Sichtbar
10
166.177000
20
96.358100
11
166.345804
21
96.382971
0
LINE
8
Sichtbar
10
161.876000
20
93.881600
11
166.176800
21
96.358100
0
LINE
8
Sichtbar
10
162.176000
20
93.981600
11
166.345830
21
96.382960
0
LINE
8
Sichtbar
10
166.044000
20
96.605700
11
166.177085
21
96.358050
0
LINE
8
Sichtbar
10
161.874000
20
94.204700
11
166.043830
21
96.605790
0
LINE
8
Sichtbar
10
165.680000
20
96.684300
11
165.832400
21
96.744360
0
LINE
8
Sichtbar
10
161.379000
20
94.207600
11
165.679800
21
96.684360
0
LINE
8
Sichtbar
10
161.663000
20
94.343000
11
165.832830
21
96.744360
0
LINE
8
Sichtbar
10
165.528000
20
96.919800
11
165.680400
21
96.684321
0
LINE
8
Sichtbar
10
161.358000
20
94.518700
11
165.527830
21
96.919790
0
LINE
8
Sichtbar
10
161.147000
20
94.623000
11
165.316830
21
97.024360
0
LINE
8
Sichtbar
10
165.015000
20
97.148900
11
165.174279
21
96.942261
0
LINE
8
Sichtbar
10
160.845000
20
94.747800
11
165.014830
21
97.148890
0
LINE
8
Sichtbar
10
160.638000
20
94.816100
11
164.807830
21
97.217460
0
LINE
8
Sichtbar
10
157.812000
20
91.533700
11
157.812000
21
92.263900
0
LINE
8
Sichtbar
10
160.844000
20
86.269800
11
161.496462
21
85.891182
0
LINE
8
Sichtbar
10
169.213000
20
89.260200
11
169.420915
21
89.810250
0
LINE
8
Sichtbar
10
169.420915
20
89.810250
11
169.551913
21
91.115140
0
LINE
8
Sichtbar
10
169.551913
20
91.115140
11
169.282179
21
92.615050
0
LINE
8
Sichtbar
10
169.282179
20
92.615050
11
168.656964
21
94.088420
0
LINE
8
Sichtbar
10
168.656964
20
94.088420
11
167.752275
21
95.404220
0
LINE
8
Sichtbar
10
167.752275
20
95.404220
11
166.635005
21
96.454140
0
LINE
8
Sichtbar
10
166.635005
20
96.454140
11
165.367985
21
97.120016
0
LINE
8
Sichtbar
10
165.367985
20
97.120016
11
164.527945
21
97.275310
0
LINE
8
Sichtbar
10
164.232000
20
97.270900
11
164.122203
21
97.260661
0
LINE
8
Sichtbar
10
159.355000
20
92.386700
11
159.892103
21
92.695998
0
LINE
8
Sichtbar
10
162.356000
20
87.176000
11
162.892839
21
87.485298
0
LINE
8
Sichtbar
10
158.901000
20
94.691000
11
163.070830
21
97.092360
0
LINE
8
Sichtbar
10
173.021000
20
89.083800
11
174.132600
21
88.096840
0
LINE
8
Sichtbar
10
174.132600
20
88.096840
11
175.234768
21
87.628963
0
LINE
8
Sichtbar
10
175.234768
20
87.628963
11
176.202538
21
87.703891
0
LINE
8
Sichtbar
10
176.202538
20
87.703891
11
176.596970
21
87.952321
0
LINE
8
Sichtbar
10
176.596970
20
87.952321
11
176.910941
21
88.345348
0
LINE
8
Sichtbar
10
176.910941
20
88.345348
11
177.212002
21
89.456858
0
LINE
8
Sichtbar
10
177.212002
20
89.456858
11
177.068791
21
90.813801
0
LINE
8
Sichtbar
10
177.068791
20
90.813801
11
176.522909
21
92.247688
0
LINE
8
Sichtbar
10
176.522909
20
92.247688
11
175.615960
21
93.590030
0
LINE
8
Sichtbar
10
175.615960
20
93.590030
11
174.504360
21
94.576990
0
LINE
8
Sichtbar
10
174.504360
20
94.576990
11
173.402192
21
95.044867
0
LINE
8
Sichtbar
10
173.402192
20
95.044867
11
172.434422
21
94.969939
0
LINE
8
Sichtbar
10
172.434422
20
94.969939
11
172.039990
21
94.721509
0
LINE
8
Sichtbar
10
172.039990
20
94.721509
11
171.726019
21
94.328482
0
LINE
8
Sichtbar
10
171.726019
20
94.328482
11
171.424958
21
93.216972
0
LINE
8
Sichtbar
10
171.424958
20
93.216972
11
171.568169
21
91.860029
0
LINE
8
Sichtbar
10
171.568169
20
91.860029
11
172.114051
21
90.426142
0
LINE
8
Sichtbar
10
172.114051
20
90.426142
11
173.021000
21
89.083800
0
LINE
8
Sichtbar
10
173.021000
20
89.083800
11
173.021000
21
89.083800
0
LINE
8
Sichtbar
10
183.906000
20
95.127000
11
184.181437
21
95.517517
0
LINE
8
Sichtbar
10
184.181437
20
95.517517
11
184.182497
21
96.151695
0
LINE
8
Sichtbar
10
184.182497
20
96.151695
11
183.908897
21
96.859607
0
LINE
8
Sichtbar
10
183.908897
20
96.859607
11
183.433947
21
97.451569
0
LINE
8
Sichtbar
10
183.433947
20
97.451569
11
182.884911
21
97.768965
0
LINE
8
Sichtbar
10
182.884911
20
97.768965
11
182.408900
21
97.726749
0
LINE
8
Sichtbar
10
183.906000
20
95.127000
11
181.213870
21
93.576540
0
LINE
8
Sichtbar
10
182.409000
20
97.726800
11
178.722570
21
95.603790
0
LINE
8
Sichtbar
10
185.697000
20
96.943400
11
184.017960
21
95.214610
0
LINE
8
Sichtbar
10
184.879000
20
98.364400
11
182.540880
21
97.779672
0
LINE
8
Sichtbar
10
185.697000
20
96.943200
11
185.833395
21
97.133480
0
LINE
8
Sichtbar
10
185.833395
20
97.133480
11
185.907359
21
97.348313
0
LINE
8
Sichtbar
10
185.907359
20
97.348313
11
185.919398
21
97.576820
0
LINE
8
Sichtbar
10
185.919398
20
97.576820
11
185.865052
21
97.815805
0
LINE
8
Sichtbar
10
185.865052
20
97.815805
11
185.729411
21
98.057028
0
LINE
8
Sichtbar
10
185.729411
20
98.057028
11
185.492821
21
98.268298
0
LINE
8
Sichtbar
10
185.492821
20
98.268298
11
185.188876
21
98.379026
0
LINE
8
Sichtbar
10
185.188876
20
98.379026
11
184.901068
21
98.369660
0
LINE
8
Sichtbar
10
184.901068
20
98.369660
11
184.878605
21
98.364395
0
LINE
8
Sichtbar
10
173.345000
20
79.010200
11
173.901023
21
78.515937
0
LINE
8
Sichtbar
10
173.901023
20
78.515937
11
174.452476
21
78.281452
0
LINE
8
Sichtbar
10
174.452476
20
78.281452
11
174.936748
21
78.318669
0
LINE
8
Sichtbar
10
174.936748
20
78.318669
11
175.291229
21
78.639513
0
LINE
8
Sichtbar
10
175.291229
20
78.639513
11
175.441784
21
79.195679
0
LINE
8
Sichtbar
10
175.441784
20
79.195679
11
175.369931
21
79.874638
0
LINE
8
Sichtbar
10
175.369931
20
79.874638
11
175.096539
21
80.591984
0
LINE
8
Sichtbar
10
175.096539
20
80.591984
11
174.642479
21
81.263308
0
LINE
8
Sichtbar
10
174.642479
20
81.263308
11
173.906819
21
81.860998
0
LINE
8
Sichtbar
10
173.906819
20
81.860998
11
173.194450
21
81.996680
0
LINE
8
Sichtbar
10
173.194450
20
81.996680
11
172.696250
21
81.633996
0
LINE
8
Sichtbar
10
172.696250
20
81.633996
11
172.545711
21
80.870127
0
LINE
8
Sichtbar
10
172.545711
20
80.870127
11
172.783171
21
79.909751
0
LINE
8
Sichtbar
10
172.783171
20
79.909751
11
173.345001
21
79.010201
0
LINE
8
Sichtbar
10
173.345001
20
79.010201
11
173.345000
21
79.010200
0
LINE
8
Sichtbar
10
173.802000
20
81.286500
11
173.818215
21
80.753190
0
LINE
8
Sichtbar
10
173.818215
20
80.753190
11
174.049119
21
80.168970
0
LINE
8
Sichtbar
10
174.049119
20
80.168970
11
174.438516
21
79.676021
0
LINE
8
Sichtbar
10
174.438516
20
79.676021
11
174.891640
21
79.394310
0
LINE
8
Sichtbar
10
176.880000
20
76.974300
11
177.435253
21
76.482730
0
LINE
8
Sichtbar
10
177.435253
20
76.482730
11
177.985436
21
76.250122
0
LINE
8
Sichtbar
10
177.985436
20
76.250122
11
178.468375
21
76.288185
0
LINE
8
Sichtbar
10
178.468375
20
76.288185
11
178.821893
21
76.608626
0
LINE
8
Sichtbar
10
178.821893
20
76.608626
11
178.972363
21
77.163374
0
LINE
8
Sichtbar
10
178.972363
20
77.163374
11
178.901363
21
77.840653
0
LINE
8
Sichtbar
10
178.901363
20
77.840653
11
178.629524
21
78.556614
0
LINE
8
Sichtbar
10
178.629524
20
78.556614
11
178.177480
21
79.227410
0
LINE
8
Sichtbar
10
178.177480
20
79.227410
11
177.622227
21
79.718980
0
LINE
8
Sichtbar
10
177.622227
20
79.718980
11
177.072044
21
79.951588
0
LINE
8
Sichtbar
10
177.072044
20
79.951588
11
176.589105
21
79.913525
0
LINE
8
Sichtbar
10
176.589105
20
79.913525
11
176.235587
21
79.593084
0
LINE
8
Sichtbar
10
176.235587
20
79.593084
11
176.085117
21
79.038336
0
LINE
8
Sichtbar
10
176.085117
20
79.038336
11
176.156117
21
78.361057
0
LINE
8
Sichtbar
10
176.156117
20
78.361057
11
176.427956
21
77.645096
0
LINE
8
Sichtbar
10
176.427956
20
77.645096
11
176.880000
21
76.974300
0
LINE
8
Sichtbar
10
176.880000
20
76.974300
11
176.880000
21
76.974300
0
LINE
8
Sichtbar
10
177.338000
20
79.250500
11
177.354215
21
78.717190
0
LINE
8
Sichtbar
10
177.354215
20
78.717190
11
177.585119
21
78.132970
0
LINE
8
Sichtbar
10
177.585119
20
78.132970
11
177.974516
21
77.640021
0
LINE
8
Sichtbar
10
177.974516
20
77.640021
11
178.427640
21
77.358310
0
LINE
8
Sichtbar
10
169.809000
20
81.046200
11
170.365023
21
80.551937
0
LINE
8
Sichtbar
10
170.365023
20
80.551937
11
170.916476
21
80.317452
0
LINE
8
Sichtbar
10
170.916476
20
80.317452
11
171.400748
21
80.354669
0
LINE
8
Sichtbar
10
171.400748
20
80.354669
11
171.755229
21
80.675513
0
LINE
8
Sichtbar
10
171.755229
20
80.675513
11
171.905784
21
81.231679
0
LINE
8
Sichtbar
10
171.905784
20
81.231679
11
171.833931
21
81.910638
0
LINE
8
Sichtbar
10
171.833931
20
81.910638
11
171.560539
21
82.627984
0
LINE
8
Sichtbar
10
171.560539
20
82.627984
11
171.106479
21
83.299308
0
LINE
8
Sichtbar
10
171.106479
20
83.299308
11
170.550456
21
83.793571
0
LINE
8
Sichtbar
10
170.550456
20
83.793571
11
169.999004
21
84.028057
0
LINE
8
Sichtbar
10
169.999004
20
84.028057
11
169.514732
21
83.990840
0
LINE
8
Sichtbar
10
169.514732
20
83.990840
11
169.160250
21
83.669996
0
LINE
8
Sichtbar
10
169.160250
20
83.669996
11
169.009695
21
83.113830
0
LINE
8
Sichtbar
10
169.009695
20
83.113830
11
169.081548
21
82.434871
0
LINE
8
Sichtbar
10
169.081548
20
82.434871
11
169.354940
21
81.717525
0
LINE
8
Sichtbar
10
169.354940
20
81.717525
11
169.809001
21
81.046201
0
LINE
8
Sichtbar
10
169.809001
20
81.046201
11
169.809000
21
81.046200
0
LINE
8
Sichtbar
10
170.267000
20
83.322500
11
170.283215
21
82.789190
0
LINE
8
Sichtbar
10
170.283215
20
82.789190
11
170.514119
21
82.204970
0
LINE
8
Sichtbar
10
170.514119
20
82.204970
11
170.903516
21
81.712021
0
LINE
8
Sichtbar
10
170.903516
20
81.712021
11
171.356640
21
81.430310
0
LINE
8
Sichtbar
10
166.274000
20
83.082200
11
166.830023
21
82.587937
0
LINE
8
Sichtbar
10
166.830023
20
82.587937
11
167.381476
21
82.353452
0
LINE
8
Sichtbar
10
167.381476
20
82.353452
11
167.865748
21
82.390669
0
LINE
8
Sichtbar
10
167.865748
20
82.390669
11
168.220229
21
82.711513
0
LINE
8
Sichtbar
10
168.220229
20
82.711513
11
168.370784
21
83.267679
0
LINE
8
Sichtbar
10
168.370784
20
83.267679
11
168.298931
21
83.946638
0
LINE
8
Sichtbar
10
168.298931
20
83.946638
11
168.025539
21
84.663984
0
LINE
8
Sichtbar
10
168.025539
20
84.663984
11
167.571479
21
85.335308
0
LINE
8
Sichtbar
10
167.571479
20
85.335308
11
167.015456
21
85.829571
0
LINE
8
Sichtbar
10
167.015456
20
85.829571
11
166.464004
21
86.064057
0
LINE
8
Sichtbar
10
166.464004
20
86.064057
11
165.979732
21
86.026840
0
LINE
8
Sichtbar
10
165.979732
20
86.026840
11
165.625250
21
85.705996
0
LINE
8
Sichtbar
10
165.625250
20
85.705996
11
165.474695
21
85.149830
0
LINE
8
Sichtbar
10
165.474695
20
85.149830
11
165.546548
21
84.470871
0
LINE
8
Sichtbar
10
165.546548
20
84.470871
11
165.819940
21
83.753525
0
LINE
8
Sichtbar
10
165.819940
20
83.753525
11
166.274001
21
83.082201
0
LINE
8
Sichtbar
10
166.274001
20
83.082201
11
166.274000
21
83.082200
0
LINE
8
Sichtbar
10
166.731000
20
85.358400
11
166.747215
21
84.825090
0
LINE
8
Sichtbar
10
166.747215
20
84.825090
11
166.978119
21
84.240870
0
LINE
8
Sichtbar
10
166.978119
20
84.240870
11
167.367516
21
83.747921
0
LINE
8
Sichtbar
10
167.367516
20
83.747921
11
167.820640
21
83.466210
0
LINE
8
Sichtbar
10
189.302000
20
79.280600
11
181.594430
21
74.842220
0
LINE
8
Sichtbar
10
189.302000
20
79.280600
11
189.594892
21
79.687794
0
LINE
8
Sichtbar
10
189.594892
20
79.687794
11
189.302000
21
80.094989
0
LINE
8
Sichtbar
10
181.241000
20
84.737100
11
189.302050
21
80.094990
0
LINE
8
Sichtbar
10
163.210000
20
84.877300
11
162.061710
21
85.538493
0
LINE
8
Sichtbar
10
189.302000
20
78.463000
11
181.594430
21
74.024620
0
LINE
8
Sichtbar
10
165.685000
20
102.297000
11
165.185000
21
102.345477
0
LINE
8
Sichtbar
10
165.185000
20
102.345477
11
164.977894
21
101.886648
0
LINE
8
Sichtbar
10
164.978000
20
101.887000
11
164.978000
21
97.221400
0
LINE
8
Sichtbar
10
164.978000
20
86.122200
11
164.978000
21
85.642200
0
LINE
8
Sichtbar
10
164.978000
20
85.642200
11
164.561282
21
85.882177
0
LINE
8
Sichtbar
10
180.534000
20
92.928600
11
180.326893
21
93.625956
0
LINE
8
Sichtbar
10
180.326893
20
93.625956
11
179.826894
21
94.153340
0
LINE
8
Sichtbar
10
165.685000
20
102.297000
11
179.827200
21
94.153140
0
LINE
8
Sichtbar
10
166.392000
20
102.704000
11
180.534200
21
94.560140
0
LINE
8
Sichtbar
10
181.241000
20
75.047300
11
181.241000
21
93.335800
0
LINE
8
Sichtbar
10
163.210000
20
85.436100
11
163.210000
21
84.616400
0
LINE
8
Sichtbar
10
180.534000
20
74.640100
11
180.534000
21
92.928600
0
LINE
8
Sichtbar
10
180.534000
20
74.640100
11
180.614737
21
74.217300
0
LINE
8
Sichtbar
10
180.614737
20
74.217300
11
180.844659
21
73.951855
0
LINE
8
Sichtbar
10
180.844659
20
73.951855
11
181.188762
21
73.884178
0
LINE
8
Sichtbar
10
181.188762
20
73.884178
11
181.594660
21
74.024571
0
LINE
8
Sichtbar
10
181.241000
20
75.047300
11
181.344554
21
74.817887
0
LINE
8
Sichtbar
10
181.344554
20
74.817887
11
181.594554
21
74.842126
0
LINE
8
Sichtbar
10
183.659000
20
80.797400
11
184.142129
21
80.516942
0
LINE
8
Sichtbar
10
189.595000
20
78.870200
11
189.595000
21
79.687800
0
LINE
8
Sichtbar
10
165.893000
20
102.754000
11
165.185770
21
102.346807
0
LINE
8
Sichtbar
10
180.846000
20
73.951100
11
163.522000
21
83.927200
0
LINE
8
Sichtbar
10
186.134000
20
76.639000
11
184.500730
21
74.836660
0
LINE
8
Sichtbar
10
184.501000
20
74.836700
11
182.867460
21
74.757590
0
LINE
8
Sichtbar
10
184.428000
20
74.608300
11
182.442040
21
74.512256
0
LINE
8
Sichtbar
10
186.560000
20
76.884300
11
184.574040
21
74.693020
0
LINE
8
Sichtbar
10
184.501000
20
74.836700
11
182.867460
21
74.757590
0
LINE
8
Sichtbar
10
186.134000
20
76.639000
11
184.500730
21
74.836660
0
LINE
8
Sichtbar
10
181.241000
20
81.232700
11
182.093816
21
81.127516
0
LINE
8
Sichtbar
10
182.093816
20
81.127516
11
182.858484
21
81.369063
0
LINE
8
Sichtbar
10
182.858484
20
81.369063
11
183.162747
21
81.839750
0
LINE
8
Sichtbar
10
183.162747
20
81.839750
11
182.858484
21
82.310437
0
LINE
8
Sichtbar
10
182.858484
20
82.310437
11
182.093816
21
82.551984
0
LINE
8
Sichtbar
10
182.093816
20
82.551984
11
181.241000
21
82.446800
0
LINE
8
Sichtbar
10
181.241000
20
79.025300
11
181.871740
21
78.912911
0
LINE
8
Sichtbar
10
181.871740
20
78.912911
11
182.513921
21
79.001238
0
LINE
8
Sichtbar
10
182.513921
20
79.001238
11
182.988381
21
79.265639
0
LINE
8
Sichtbar
10
182.988381
20
79.265639
11
183.162750
21
79.632349
0
LINE
8
Sichtbar
10
183.163000
20
79.632200
11
183.163000
21
81.839600
0
LINE
8
Sichtbar schmal
10
169.753000
20
90.762500
11
170.507163
21
90.885520
0
LINE
8
Sichtbar schmal
10
170.507163
20
90.885520
11
171.053869
21
91.357779
0
LINE
8
Sichtbar schmal
10
171.053869
20
91.357779
11
171.358366
21
92.128530
0
LINE
8
Sichtbar schmal
10
171.358366
20
92.128530
11
171.385902
21
93.147026
0
LINE
8
Sichtbar schmal
10
171.385902
20
93.147026
11
171.123315
21
94.287547
0
LINE
8
Sichtbar schmal
10
171.123315
20
94.287547
11
170.613718
21
95.400702
0
LINE
8
Sichtbar schmal
10
170.613718
20
95.400702
11
169.906779
21
96.400237
0
LINE
8
Sichtbar schmal
10
169.906779
20
96.400237
11
169.052164
21
97.199901
0
LINE
8
Sichtbar schmal
10
169.052164
20
97.199901
11
168.157437
21
97.687408
0
LINE
8
Sichtbar schmal
10
168.157437
20
97.687408
11
167.337941
21
97.811026
0
LINE
8
Sichtbar schmal
10
167.337941
20
97.811026
11
166.655016
21
97.575332
0
LINE
8
Sichtbar schmal
10
166.655016
20
97.575332
11
166.170000
21
96.984900
0
LINE
8
Sichtbar schmal
10
170.906000
20
90.953100
11
171.269201
21
91.256233
0
LINE
8
Sichtbar schmal
10
171.269201
20
91.256233
11
171.528944
21
91.674940
0
LINE
8
Sichtbar schmal
10
171.528944
20
91.674940
11
171.737934
21
92.784767
0
LINE
8
Sichtbar schmal
10
171.737934
20
92.784767
11
171.532730
21
94.133951
0
LINE
8
Sichtbar schmal
10
171.532730
20
94.133951
11
170.913091
21
95.573867
0
LINE
8
Sichtbar schmal
10
170.913091
20
95.573867
11
169.978550
21
96.832339
0
LINE
8
Sichtbar schmal
10
169.978550
20
96.832339
11
168.914585
21
97.686703
0
LINE
8
Sichtbar schmal
10
168.914585
20
97.686703
11
167.849875
21
98.062589
0
LINE
8
Sichtbar schmal
10
167.849875
20
98.062589
11
167.357453
21
98.047862
0
LINE
8
Sichtbar schmal
10
167.357453
20
98.047862
11
166.913099
21
97.885627
0
LINE
8
Sichtbar schmal
10
185.697000
20
96.943200
11
185.805931
21
97.331585
0
LINE
8
Sichtbar schmal
10
185.805931
20
97.331585
11
185.636485
21
97.854585
0
LINE
8
Sichtbar schmal
10
185.636485
20
97.854585
11
185.269189
21
98.263651
0
LINE
8
Sichtbar schmal
10
185.269189
20
98.263651
11
184.878597
21
98.364380
0
LINE
8
Sichtbar schmal
10
181.241000
20
75.045700
11
181.594483
21
74.842236
0
LINE
8
Sichtbar schmal
10
189.302000
20
78.463000
11
189.302000
21
79.280600
0
LINE
8
Sichtbar schmal
10
181.595000
20
74.842200
11
181.595000
21
74.024600
0
LINE
8
Sichtbar schmal
10
162.062000
20
85.613100
11
162.062000
21
85.538500
0
LINE
8
Sichtbar schmal
10
166.392000
20
102.704000
11
165.684770
21
102.296807
0
LINE
8
Sichtbar schmal
10
179.827000
20
94.153300
11
180.534230
21
94.560493
0
LINE
8
Sichtbar schmal
10
181.241000
20
93.335800
11
180.534034
21
92.928607
0
LINE
8
Sichtbar schmal
10
163.210000
20
84.616400
11
180.534100
21
74.640030
0
LINE
8
Sichtbar schmal
10
180.534000
20
74.640100
11
181.240966
21
75.047293
 0 
ENDSEC
 0 
EOF